<svg width="58" height="58" viewBox="0 0 58 58" fill="none" xmlns="http://www.w3.org/2000/svg">
<path d="M36.25 45.322H27.1875V54.3845" stroke="white" stroke-width="2.5" stroke-linecap="round" stroke-linejoin="round"/>
<path d="M54.781 47.0934C53.8211 49.8986 51.9623 52.3085 49.4929 53.9493C47.0235 55.5901 44.0816 56.3701 41.1237 56.1682C38.1657 55.9664 35.3571 54.7939 33.1336 52.8328C30.91 50.8717 29.3958 48.2316 28.826 45.322" stroke="white" stroke-width="2.5" stroke-linecap="round" stroke-linejoin="round"/>
<path d="M47.125 38.072H56.1875V29.0095" stroke="white" stroke-width="2.5" stroke-linecap="round" stroke-linejoin="round"/>
<path d="M28.5964 36.2982C29.5581 33.4947 31.4176 31.0867 33.8869 29.4474C36.3562 27.8082 39.2972 27.0292 42.2542 27.2313C45.2112 27.4334 48.0189 28.6052 50.2422 30.5652C52.4655 32.5252 53.9801 35.1638 54.5514 38.0721" stroke="white" stroke-width="2.5" stroke-linecap="round" stroke-linejoin="round"/>
<path d="M19.9375 48.947H5.4375C4.47609 48.947 3.55406 48.5651 2.87424 47.8853C2.19442 47.2055 1.8125 46.2834 1.8125 45.322V5.44702C1.8125 4.48561 2.19442 3.56358 2.87424 2.88376C3.55406 2.20394 4.47609 1.82202 5.4375 1.82202H31.1243C31.6004 1.82181 32.0719 1.91539 32.5118 2.09742C32.9518 2.27946 33.3516 2.54638 33.6883 2.88294L40.6266 9.82119C40.9631 10.158 41.2301 10.5577 41.4121 10.9977C41.5941 11.4376 41.6877 11.9091 41.6875 12.3853V19.947" stroke="white" stroke-width="2.5" stroke-linecap="round" stroke-linejoin="round"/>
<path d="M21.75 14.5095L27.1875 19.947L21.75 25.3845" stroke="white" stroke-width="2.5" stroke-linecap="round" stroke-linejoin="round"/>
<path d="M14.5 14.5095L9.0625 19.947L14.5 25.3845" stroke="white" stroke-width="2.5" stroke-linecap="round" stroke-linejoin="round"/>
</svg>
