<svg width="48" height="48" viewBox="0 0 48 48" fill="none" xmlns="http://www.w3.org/2000/svg">
<rect width="48" height="48" rx="10.6667" fill="#EFF6FC"/>
<path d="M23.885 8.11523C15.7777 8.11523 16.2839 11.631 16.2839 11.631L16.2929 15.2735H24.0295V16.367H13.2201C13.2201 16.367 8.03224 15.7787 8.03224 23.9588C8.03224 32.1392 12.5603 31.8491 12.5603 31.8491H15.2626V28.0531C15.2626 28.0531 15.117 23.525 19.7184 23.525H27.3917C27.3917 23.525 31.7028 23.5947 31.7028 19.3585V12.3542C31.7028 12.3542 32.3576 8.11523 23.885 8.11523ZM19.619 10.5647C19.8018 10.5646 19.9829 10.6004 20.1518 10.6703C20.3208 10.7402 20.4743 10.8427 20.6035 10.972C20.7328 11.1013 20.8353 11.2548 20.9052 11.4237C20.9751 11.5926 21.011 11.7737 21.0108 11.9565C21.011 12.1393 20.9751 12.3204 20.9052 12.4893C20.8353 12.6583 20.7328 12.8118 20.6035 12.941C20.4743 13.0703 20.3208 13.1728 20.1518 13.2427C19.9829 13.3126 19.8018 13.3485 19.619 13.3483C19.4362 13.3485 19.2551 13.3126 19.0862 13.2427C18.9173 13.1728 18.7638 13.0703 18.6345 12.941C18.5052 12.8118 18.4027 12.6583 18.3328 12.4893C18.2629 12.3204 18.227 12.1393 18.2272 11.9565C18.227 11.7737 18.2629 11.5926 18.3328 11.4237C18.4027 11.2548 18.5052 11.1013 18.6345 10.972C18.7638 10.8427 18.9173 10.7402 19.0862 10.6703C19.2551 10.6004 19.4362 10.5646 19.619 10.5647Z" fill="#2989DB"/>
<path d="M24.1152 39.8846C32.2224 39.8846 31.7162 36.3688 31.7162 36.3688L31.7072 32.7264H23.9705V31.6329H34.78C34.78 31.6329 39.9678 32.2212 39.9678 24.0408C39.9678 15.8606 35.4397 16.1507 35.4397 16.1507H32.7374V19.9466C32.7374 19.9466 32.8831 24.4746 28.2816 24.4746H20.6083C20.6083 24.4746 16.2972 24.405 16.2972 28.6413V35.6457C16.2972 35.6457 15.6426 39.8846 24.1151 39.8846H24.1152ZM28.3812 37.4353C28.1983 37.4355 28.0173 37.3996 27.8483 37.3297C27.6794 37.2598 27.5259 37.1573 27.3966 37.028C27.2674 36.8988 27.1648 36.7453 27.095 36.5763C27.0251 36.4074 26.9892 36.2263 26.9893 36.0435C26.9892 35.8607 27.025 35.6796 27.0949 35.5107C27.1648 35.3417 27.2673 35.1882 27.3966 35.0589C27.5259 34.9296 27.6794 34.8271 27.8483 34.7572C28.0172 34.6873 28.1983 34.6514 28.3812 34.6516C28.564 34.6514 28.745 34.6873 28.914 34.7572C29.0829 34.8271 29.2364 34.9296 29.3657 35.0589C29.4949 35.1881 29.5975 35.3416 29.6673 35.5106C29.7372 35.6795 29.7731 35.8606 29.773 36.0434C29.7731 36.2262 29.7372 36.4073 29.6673 36.5762C29.5975 36.7451 29.4949 36.8986 29.3657 37.0279C29.2364 37.1572 29.0829 37.2597 28.914 37.3296C28.745 37.3995 28.564 37.4354 28.3812 37.4352V37.4353Z" fill="#FFC738"/>
</svg>
