<svg width="253" height="252" viewBox="0 0 253 252" fill="none" xmlns="http://www.w3.org/2000/svg">
<rect x="0.552722" y="0.552722" width="250.897" height="250.895" rx="19.3453" fill="white" stroke="#E6E6EB" stroke-width="1.10544"/>
<path d="M25.2634 38.2197V26.9643H29.2754C30.151 26.9643 30.8765 27.1237 31.4517 27.4424C32.0269 27.7612 32.4574 28.1972 32.7432 28.7504C33.029 29.3 33.1719 29.9192 33.1719 30.608C33.1719 31.3005 33.0272 31.9233 32.7377 32.4766C32.4519 33.0262 32.0196 33.4622 31.4407 33.7846C30.8655 34.1034 30.1419 34.2627 29.2699 34.2627H26.511V32.8228H29.116C29.6692 32.8228 30.1181 32.7276 30.4625 32.537C30.8069 32.3429 31.0597 32.0791 31.2209 31.7457C31.3821 31.4122 31.4627 31.033 31.4627 30.608C31.4627 30.183 31.3821 29.8056 31.2209 29.4759C31.0597 29.1461 30.805 28.8878 30.457 28.701C30.1126 28.5141 29.6582 28.4207 29.094 28.4207H26.9616V38.2197H25.2634ZM45.2493 32.592C45.2493 33.7938 45.0295 34.827 44.5898 35.6916C44.1502 36.5527 43.5475 37.2158 42.7817 37.6811C42.0196 38.1428 41.1531 38.3736 40.1822 38.3736C39.2076 38.3736 38.3374 38.1428 37.5717 37.6811C36.8096 37.2158 36.2087 36.5508 35.7691 35.6862C35.3294 34.8215 35.1096 33.7901 35.1096 32.592C35.1096 31.3903 35.3294 30.3589 35.7691 29.4979C36.2087 28.6332 36.8096 27.97 37.5717 27.5084C38.3374 27.0431 39.2076 26.8104 40.1822 26.8104C41.1531 26.8104 42.0196 27.0431 42.7817 27.5084C43.5475 27.97 44.1502 28.6332 44.5898 29.4979C45.0295 30.3589 45.2493 31.3903 45.2493 32.592ZM43.5676 32.592C43.5676 31.676 43.4192 30.9048 43.1225 30.2783C42.8294 29.6481 42.4263 29.1718 41.9134 28.8494C41.4041 28.5233 40.827 28.3602 40.1822 28.3602C39.5337 28.3602 38.9548 28.5233 38.4455 28.8494C37.9362 29.1718 37.5332 29.6481 37.2364 30.2783C36.9433 30.9048 36.7968 31.676 36.7968 32.592C36.7968 33.508 36.9433 34.2811 37.2364 34.9112C37.5332 35.5378 37.9362 36.0141 38.4455 36.3402C38.9548 36.6626 39.5337 36.8238 40.1822 36.8238C40.827 36.8238 41.4041 36.6626 41.9134 36.3402C42.4263 36.0141 42.8294 35.5378 43.1225 34.9112C43.4192 34.2811 43.5676 33.508 43.5676 32.592ZM47.6761 38.2197V26.9643H51.6881C52.5601 26.9643 53.2837 27.1145 53.8589 27.4149C54.4378 27.7154 54.8702 28.1312 55.1559 28.6625C55.4417 29.1901 55.5846 29.8001 55.5846 30.4926C55.5846 31.1814 55.4399 31.7878 55.1504 32.3117C54.8647 32.832 54.4323 33.2369 53.8534 33.5263C53.2782 33.8157 52.5546 33.9605 51.6826 33.9605H48.6434V32.4986H51.5287C52.0783 32.4986 52.5253 32.4198 52.8697 32.2623C53.2178 32.1047 53.4724 31.8757 53.6336 31.5753C53.7948 31.2748 53.8754 30.914 53.8754 30.4926C53.8754 30.0676 53.793 29.6994 53.6281 29.3879C53.4669 29.0765 53.2123 28.8384 52.8642 28.6735C52.5198 28.505 52.0673 28.4207 51.5067 28.4207H49.3743V38.2197H47.6761ZM53.2324 33.1416L56.0133 38.2197H54.0788L51.3528 33.1416H53.2324ZM57.4055 28.4262V26.9643H66.1164V28.4262H62.6045V38.2197H60.9118V28.4262H57.4055ZM74.4896 29.921C74.431 29.4008 74.1892 28.9977 73.7642 28.712C73.3392 28.4225 72.8042 28.2778 72.1594 28.2778C71.6978 28.2778 71.2984 28.3511 70.9613 28.4976C70.6242 28.6405 70.3623 28.8384 70.1754 29.0912C69.9922 29.3403 69.9006 29.6243 69.9006 29.943C69.9006 30.2105 69.9629 30.4413 70.0875 30.6355C70.2157 30.8297 70.3824 30.9927 70.5876 31.1246C70.7964 31.2529 71.0199 31.3609 71.2581 31.4489C71.4962 31.5331 71.7252 31.6028 71.9451 31.6577L73.0442 31.9435C73.4033 32.0314 73.7715 32.1505 74.1489 32.3007C74.5263 32.4509 74.8762 32.6488 75.1986 32.8943C75.521 33.1398 75.7811 33.4439 75.979 33.8066C76.1805 34.1693 76.2813 34.6035 76.2813 35.1091C76.2813 35.7466 76.1164 36.3127 75.7866 36.8073C75.4606 37.3019 74.9861 37.6921 74.3632 37.9779C73.744 38.2637 72.9948 38.4066 72.1154 38.4066C71.2727 38.4066 70.5436 38.2729 69.9281 38.0054C69.3126 37.7379 68.8308 37.3587 68.4827 36.8678C68.1346 36.3731 67.9423 35.7869 67.9056 35.1091H69.6093C69.6423 35.5158 69.7742 35.8547 70.005 36.1258C70.2395 36.3933 70.5381 36.593 70.9009 36.7249C71.2672 36.8531 71.6684 36.9172 72.1044 36.9172C72.5844 36.9172 73.0113 36.8421 73.385 36.6919C73.7624 36.538 74.0591 36.3255 74.2753 36.0544C74.4915 35.7796 74.5995 35.459 74.5995 35.0926C74.5995 34.7592 74.5043 34.4862 74.3138 34.2737C74.1269 34.0612 73.8723 33.8854 73.5498 33.7461C73.2311 33.6069 72.8702 33.4842 72.4672 33.3779L71.1372 33.0152C70.2359 32.7697 69.5214 32.4088 68.9938 31.9325C68.4699 31.4562 68.2079 30.826 68.2079 30.0419C68.2079 29.3934 68.3838 28.8274 68.7355 28.3437C69.0872 27.8601 69.5635 27.4846 70.1644 27.2171C70.7653 26.946 71.4431 26.8104 72.1979 26.8104C72.96 26.8104 73.6323 26.9441 74.2148 27.2116C74.8011 27.4791 75.2627 27.8473 75.5998 28.3163C75.9369 28.7816 76.1127 29.3165 76.1274 29.921H74.4896Z" fill="#6C6C73"/>
<ellipse cx="94.876" cy="32.2013" rx="9.58379" ry="9.55448" fill="#121213"/>
<path d="M91.2325 34.8925V33.8193L95.0317 27.8179H95.8773V29.3977H95.3407L92.6234 33.6991V33.7678H97.8306V34.8925H91.2325ZM95.4008 36.6097V34.5663L95.4094 34.0769V27.8179H96.6672V36.6097H95.4008Z" fill="white"/>
<path d="M49.1174 108.191V119.447H47.8204V108.191H49.1174ZM55.2319 119.622C54.4698 119.622 53.8011 119.441 53.2259 119.078C52.6544 118.716 52.2074 118.208 51.8849 117.556C51.5662 116.904 51.4068 116.142 51.4068 115.27C51.4068 114.39 51.5662 113.623 51.8849 112.967C52.2074 112.311 52.6544 111.802 53.2259 111.439C53.8011 111.076 54.4698 110.895 55.2319 110.895C55.994 110.895 56.6608 111.076 57.2324 111.439C57.8076 111.802 58.2546 112.311 58.5734 112.967C58.8958 113.623 59.057 114.39 59.057 115.27C59.057 116.142 58.8958 116.904 58.5734 117.556C58.2546 118.208 57.8076 118.716 57.2324 119.078C56.6608 119.441 55.994 119.622 55.2319 119.622ZM55.2319 118.457C55.8108 118.457 56.2871 118.309 56.6608 118.012C57.0345 117.715 57.3111 117.325 57.4907 116.842C57.6702 116.358 57.76 115.834 57.76 115.27C57.76 114.706 57.6702 114.18 57.4907 113.692C57.3111 113.205 57.0345 112.811 56.6608 112.511C56.2871 112.21 55.8108 112.06 55.2319 112.06C54.653 112.06 54.1767 112.21 53.803 112.511C53.4293 112.811 53.1526 113.205 52.9731 113.692C52.7936 114.18 52.7038 114.706 52.7038 115.27C52.7038 115.834 52.7936 116.358 52.9731 116.842C53.1526 117.325 53.4293 117.715 53.803 118.012C54.1767 118.309 54.653 118.457 55.2319 118.457ZM64.7758 119.622C63.9844 119.622 63.3029 119.436 62.7313 119.062C62.1598 118.688 61.7201 118.173 61.4123 117.518C61.1046 116.862 60.9507 116.112 60.9507 115.27C60.9507 114.412 61.1082 113.656 61.4233 113C61.7421 112.34 62.1854 111.826 62.7533 111.456C63.3249 111.082 63.9917 110.895 64.7538 110.895C65.3473 110.895 65.8823 111.005 66.3586 111.225C66.8349 111.445 67.2251 111.752 67.5292 112.148C67.8333 112.544 68.022 113.005 68.0952 113.533H66.7982C66.6993 113.148 66.4795 112.808 66.1387 112.511C65.8017 112.21 65.3473 112.06 64.7758 112.06C64.2702 112.06 63.8268 112.192 63.4458 112.456C63.0684 112.716 62.7735 113.084 62.561 113.561C62.3521 114.033 62.2477 114.588 62.2477 115.226C62.2477 115.878 62.3503 116.446 62.5555 116.93C62.7643 117.413 63.0574 117.789 63.4348 118.056C63.8158 118.324 64.2628 118.457 64.7758 118.457C65.1128 118.457 65.4188 118.399 65.6936 118.281C65.9684 118.164 66.201 117.996 66.3915 117.776C66.5821 117.556 66.7176 117.292 66.7982 116.984H68.0952C68.022 117.483 67.8406 117.932 67.5512 118.331C67.2654 118.727 66.8862 119.042 66.4135 119.276C65.9445 119.507 65.3986 119.622 64.7758 119.622ZM72.7849 119.644C72.25 119.644 71.7645 119.544 71.3285 119.342C70.8925 119.137 70.5463 118.842 70.2898 118.457C70.0334 118.069 69.9051 117.6 69.9051 117.05C69.9051 116.567 70.0004 116.175 70.1909 115.874C70.3814 115.57 70.6361 115.332 70.9548 115.16C71.2736 114.988 71.6253 114.859 72.01 114.775C72.3984 114.687 72.7886 114.618 73.1806 114.566C73.6936 114.5 74.1094 114.451 74.4282 114.418C74.7506 114.381 74.9851 114.321 75.1317 114.237C75.2819 114.152 75.357 114.006 75.357 113.797V113.753C75.357 113.211 75.2086 112.789 74.9118 112.489C74.6187 112.188 74.1735 112.038 73.5763 112.038C72.9571 112.038 72.4717 112.174 72.1199 112.445C71.7682 112.716 71.5209 113.005 71.378 113.313L70.1469 112.874C70.3668 112.361 70.6599 111.961 71.0263 111.676C71.3963 111.386 71.7994 111.185 72.2354 111.071C72.675 110.954 73.1074 110.895 73.5324 110.895C73.8035 110.895 74.1149 110.928 74.4667 110.994C74.8221 111.056 75.1646 111.186 75.4944 111.384C75.8278 111.582 76.1044 111.881 76.3242 112.28C76.5441 112.679 76.654 113.214 76.654 113.885V119.447H75.357V118.303H75.291C75.2031 118.487 75.0565 118.683 74.8514 118.892C74.6462 119.1 74.3732 119.278 74.0325 119.425C73.6917 119.571 73.2759 119.644 72.7849 119.644ZM72.9828 118.479C73.4957 118.479 73.9281 118.379 74.2798 118.177C74.6352 117.976 74.9027 117.715 75.0822 117.397C75.2654 117.078 75.357 116.743 75.357 116.391V115.204C75.302 115.27 75.1811 115.33 74.9943 115.385C74.8111 115.436 74.5986 115.482 74.3567 115.523C74.1186 115.559 73.8859 115.592 73.6588 115.622C73.4353 115.647 73.2539 115.669 73.1147 115.687C72.7776 115.731 72.4625 115.803 72.1694 115.902C71.88 115.997 71.6455 116.142 71.4659 116.336C71.2901 116.526 71.2021 116.787 71.2021 117.116C71.2021 117.567 71.3688 117.908 71.7023 118.139C72.0393 118.366 72.4662 118.479 72.9828 118.479ZM80.6279 108.191V119.447H79.3308V108.191H80.6279ZM84.61 114.368V119.447H83.3129V108.191H84.61V112.324H84.7199C84.9177 111.888 85.2145 111.542 85.6102 111.285C86.0096 111.025 86.5408 110.895 87.204 110.895C87.7792 110.895 88.283 111.011 88.7153 111.241C89.1477 111.468 89.4829 111.818 89.7211 112.291C89.9629 112.76 90.0838 113.357 90.0838 114.083V119.447H88.7868V114.171C88.7868 113.5 88.6127 112.982 88.2647 112.615C87.9203 112.245 87.4421 112.06 86.8303 112.06C86.4053 112.06 86.0242 112.15 85.6871 112.33C85.3537 112.509 85.0899 112.771 84.8957 113.115C84.7052 113.46 84.61 113.877 84.61 114.368ZM96.1955 119.622C95.4334 119.622 94.7648 119.441 94.1896 119.078C93.618 118.716 93.171 118.208 92.8486 117.556C92.5298 116.904 92.3704 116.142 92.3704 115.27C92.3704 114.39 92.5298 113.623 92.8486 112.967C93.171 112.311 93.618 111.802 94.1896 111.439C94.7648 111.076 95.4334 110.895 96.1955 110.895C96.9576 110.895 97.6244 111.076 98.196 111.439C98.7712 111.802 99.2182 112.311 99.537 112.967C99.8594 113.623 100.021 114.39 100.021 115.27C100.021 116.142 99.8594 116.904 99.537 117.556C99.2182 118.208 98.7712 118.716 98.196 119.078C97.6244 119.441 96.9576 119.622 96.1955 119.622ZM96.1955 118.457C96.7744 118.457 97.2507 118.309 97.6244 118.012C97.9982 117.715 98.2748 117.325 98.4543 116.842C98.6338 116.358 98.7236 115.834 98.7236 115.27C98.7236 114.706 98.6338 114.18 98.4543 113.692C98.2748 113.205 97.9982 112.811 97.6244 112.511C97.2507 112.21 96.7744 112.06 96.1955 112.06C95.6166 112.06 95.1403 112.21 94.7666 112.511C94.3929 112.811 94.1163 113.205 93.9368 113.692C93.7572 114.18 93.6675 114.706 93.6675 115.27C93.6675 115.834 93.7572 116.358 93.9368 116.842C94.1163 117.325 94.3929 117.715 94.7666 118.012C95.1403 118.309 95.6166 118.457 96.1955 118.457ZM108.289 112.896L107.124 113.225C107.051 113.031 106.943 112.842 106.8 112.659C106.661 112.472 106.47 112.319 106.229 112.198C105.987 112.077 105.677 112.016 105.3 112.016C104.783 112.016 104.353 112.135 104.008 112.373C103.667 112.608 103.497 112.907 103.497 113.269C103.497 113.592 103.614 113.846 103.849 114.033C104.083 114.22 104.45 114.376 104.948 114.5L106.201 114.808C106.956 114.991 107.518 115.272 107.888 115.649C108.258 116.023 108.443 116.504 108.443 117.094C108.443 117.578 108.304 118.01 108.026 118.391C107.751 118.772 107.366 119.073 106.872 119.293C106.377 119.513 105.802 119.622 105.146 119.622C104.285 119.622 103.572 119.436 103.008 119.062C102.444 118.688 102.087 118.142 101.936 117.424L103.167 117.116C103.285 117.571 103.506 117.911 103.832 118.139C104.162 118.366 104.593 118.479 105.124 118.479C105.728 118.479 106.208 118.351 106.564 118.095C106.923 117.834 107.102 117.523 107.102 117.16C107.102 116.867 107 116.622 106.795 116.424C106.589 116.222 106.274 116.072 105.849 115.973L104.442 115.643C103.669 115.46 103.101 115.176 102.739 114.792C102.38 114.403 102.2 113.918 102.2 113.335C102.2 112.859 102.334 112.438 102.601 112.071C102.872 111.705 103.241 111.417 103.706 111.208C104.175 111 104.706 110.895 105.3 110.895C106.135 110.895 106.791 111.078 107.267 111.445C107.747 111.811 108.088 112.295 108.289 112.896ZM114.376 111.005V112.104H110.002V111.005H114.376ZM111.277 108.983H112.574V117.028C112.574 117.395 112.627 117.67 112.733 117.853C112.843 118.032 112.982 118.153 113.151 118.216C113.323 118.274 113.504 118.303 113.695 118.303C113.838 118.303 113.955 118.296 114.047 118.281C114.138 118.263 114.212 118.249 114.267 118.238L114.53 119.403C114.442 119.436 114.32 119.469 114.162 119.502C114.005 119.538 113.805 119.557 113.563 119.557C113.197 119.557 112.838 119.478 112.486 119.32C112.138 119.163 111.848 118.923 111.618 118.6C111.39 118.278 111.277 117.871 111.277 117.38V108.983ZM121.761 114.698C121.761 113.313 121.94 112.04 122.299 110.879C122.662 109.713 123.179 108.642 123.849 107.664H124.992C124.729 108.026 124.481 108.473 124.25 109.005C124.023 109.532 123.824 110.113 123.651 110.747C123.479 111.377 123.344 112.029 123.245 112.703C123.149 113.377 123.102 114.042 123.102 114.698C123.102 115.57 123.186 116.455 123.355 117.353C123.523 118.25 123.75 119.084 124.036 119.853C124.322 120.623 124.641 121.249 124.992 121.733H123.849C123.179 120.755 122.662 119.685 122.299 118.523C121.94 117.358 121.761 116.083 121.761 114.698ZM130.997 119.6C130.272 119.6 129.625 119.476 129.057 119.227C128.493 118.978 128.044 118.631 127.71 118.188C127.381 117.741 127.201 117.223 127.172 116.633H128.557C128.586 116.995 128.711 117.309 128.931 117.573C129.15 117.833 129.438 118.034 129.793 118.177C130.149 118.32 130.543 118.391 130.975 118.391C131.459 118.391 131.887 118.307 132.261 118.139C132.635 117.97 132.928 117.736 133.14 117.435C133.353 117.135 133.459 116.787 133.459 116.391C133.459 115.977 133.357 115.612 133.151 115.297C132.946 114.978 132.646 114.729 132.25 114.55C131.854 114.37 131.371 114.281 130.799 114.281H129.898V113.071H130.799C131.246 113.071 131.638 112.991 131.975 112.83C132.316 112.668 132.582 112.441 132.772 112.148C132.966 111.855 133.063 111.511 133.063 111.115C133.063 110.734 132.979 110.402 132.811 110.12C132.642 109.838 132.404 109.618 132.096 109.461C131.792 109.303 131.433 109.224 131.019 109.224C130.631 109.224 130.264 109.296 129.92 109.439C129.579 109.578 129.301 109.781 129.084 110.049C128.868 110.313 128.751 110.631 128.733 111.005H127.414C127.436 110.415 127.613 109.899 127.947 109.455C128.28 109.008 128.716 108.66 129.255 108.411C129.797 108.162 130.392 108.037 131.041 108.037C131.737 108.037 132.334 108.178 132.833 108.46C133.331 108.739 133.714 109.107 133.981 109.565C134.249 110.023 134.382 110.518 134.382 111.049C134.382 111.683 134.216 112.223 133.882 112.67C133.553 113.117 133.104 113.427 132.536 113.599V113.687C133.247 113.804 133.802 114.106 134.201 114.594C134.6 115.077 134.8 115.676 134.8 116.391C134.8 117.003 134.633 117.552 134.3 118.04C133.97 118.523 133.52 118.904 132.948 119.183C132.376 119.461 131.726 119.6 130.997 119.6ZM141.029 119.6C140.201 119.6 139.495 119.375 138.913 118.924C138.33 118.47 137.885 117.813 137.577 116.951C137.269 116.087 137.116 115.043 137.116 113.819C137.116 112.602 137.269 111.564 137.577 110.703C137.889 109.838 138.336 109.179 138.918 108.724C139.504 108.266 140.208 108.037 141.029 108.037C141.849 108.037 142.551 108.266 143.134 108.724C143.72 109.179 144.167 109.838 144.474 110.703C144.786 111.564 144.942 112.602 144.942 113.819C144.942 115.043 144.788 116.087 144.48 116.951C144.172 117.813 143.727 118.47 143.145 118.924C142.562 119.375 141.857 119.6 141.029 119.6ZM141.029 118.391C141.849 118.391 142.487 117.996 142.941 117.204C143.395 116.413 143.623 115.284 143.623 113.819C143.623 112.844 143.518 112.014 143.309 111.329C143.104 110.644 142.807 110.122 142.419 109.763C142.034 109.404 141.571 109.224 141.029 109.224C140.215 109.224 139.58 109.626 139.122 110.428C138.664 111.227 138.435 112.357 138.435 113.819C138.435 114.793 138.537 115.622 138.742 116.303C138.948 116.984 139.242 117.503 139.627 117.858C140.016 118.214 140.483 118.391 141.029 118.391ZM151.011 119.6C150.183 119.6 149.477 119.375 148.895 118.924C148.312 118.47 147.867 117.813 147.559 116.951C147.252 116.087 147.098 115.043 147.098 113.819C147.098 112.602 147.252 111.564 147.559 110.703C147.871 109.838 148.318 109.179 148.9 108.724C149.487 108.266 150.19 108.037 151.011 108.037C151.831 108.037 152.533 108.266 153.116 108.724C153.702 109.179 154.149 109.838 154.457 110.703C154.768 111.564 154.924 112.602 154.924 113.819C154.924 115.043 154.77 116.087 154.462 116.951C154.154 117.813 153.709 118.47 153.127 118.924C152.544 119.375 151.839 119.6 151.011 119.6ZM151.011 118.391C151.831 118.391 152.469 117.996 152.923 117.204C153.378 116.413 153.605 115.284 153.605 113.819C153.605 112.844 153.5 112.014 153.292 111.329C153.086 110.644 152.79 110.122 152.401 109.763C152.017 109.404 151.553 109.224 151.011 109.224C150.197 109.224 149.562 109.626 149.104 110.428C148.646 111.227 148.417 112.357 148.417 113.819C148.417 114.793 148.519 115.622 148.725 116.303C148.93 116.984 149.225 117.503 149.609 117.858C149.998 118.214 150.465 118.391 151.011 118.391ZM160.993 119.6C160.165 119.6 159.46 119.375 158.877 118.924C158.294 118.47 157.849 117.813 157.542 116.951C157.234 116.087 157.08 115.043 157.08 113.819C157.08 112.602 157.234 111.564 157.542 110.703C157.853 109.838 158.3 109.179 158.883 108.724C159.469 108.266 160.172 108.037 160.993 108.037C161.814 108.037 162.515 108.266 163.098 108.724C163.684 109.179 164.131 109.838 164.439 110.703C164.75 111.564 164.906 112.602 164.906 113.819C164.906 115.043 164.752 116.087 164.444 116.951C164.137 117.813 163.691 118.47 163.109 118.924C162.526 119.375 161.821 119.6 160.993 119.6ZM160.993 118.391C161.814 118.391 162.451 117.996 162.905 117.204C163.36 116.413 163.587 115.284 163.587 113.819C163.587 112.844 163.483 112.014 163.274 111.329C163.069 110.644 162.772 110.122 162.383 109.763C161.999 109.404 161.535 109.224 160.993 109.224C160.18 109.224 159.544 109.626 159.086 110.428C158.628 111.227 158.399 112.357 158.399 113.819C158.399 114.793 158.502 115.622 158.707 116.303C158.912 116.984 159.207 117.503 159.592 117.858C159.98 118.214 160.447 118.391 160.993 118.391ZM170.096 114.698C170.096 116.083 169.914 117.358 169.552 118.523C169.193 119.685 168.678 120.755 168.007 121.733H166.864C167.128 121.37 167.374 120.923 167.601 120.392C167.831 119.864 168.033 119.285 168.205 118.655C168.377 118.021 168.511 117.367 168.606 116.693C168.705 116.015 168.755 115.35 168.755 114.698C168.755 113.826 168.671 112.941 168.502 112.044C168.333 111.146 168.106 110.313 167.821 109.543C167.535 108.774 167.216 108.147 166.864 107.664H168.007C168.678 108.642 169.193 109.713 169.552 110.879C169.914 112.04 170.096 113.313 170.096 114.698Z" fill="#6C6C73"/>
<path d="M49.1174 143.022V148.1H47.8204V136.845H49.1174V140.978H49.2273C49.4252 140.542 49.722 140.195 50.1177 139.939C50.517 139.679 51.0483 139.549 51.7114 139.549C52.2867 139.549 52.7905 139.664 53.2228 139.895C53.6551 140.122 53.9904 140.472 54.2285 140.945C54.4703 141.414 54.5912 142.011 54.5912 142.736V148.1H53.2942V142.824C53.2942 142.154 53.1202 141.635 52.7721 141.269C52.4277 140.899 51.9496 140.714 51.3377 140.714C50.9127 140.714 50.5317 140.804 50.1946 140.983C49.8612 141.163 49.5974 141.425 49.4032 141.769C49.2127 142.114 49.1174 142.531 49.1174 143.022ZM57.2736 148.1V139.659H58.5266V140.978H58.6366C58.8124 140.527 59.0964 140.177 59.4884 139.928C59.8804 139.675 60.3513 139.549 60.9008 139.549C61.4577 139.549 61.9212 139.675 62.2913 139.928C62.665 140.177 62.9563 140.527 63.1651 140.978H63.253C63.4692 140.542 63.7935 140.195 64.2258 139.939C64.6581 139.679 65.1766 139.549 65.7811 139.549C66.5359 139.549 67.1532 139.785 67.6332 140.258C68.1132 140.727 68.3532 141.458 68.3532 142.451V148.1H67.0561V142.451C67.0561 141.828 66.8858 141.383 66.545 141.115C66.2043 140.848 65.8031 140.714 65.3415 140.714C64.7479 140.714 64.2881 140.893 63.962 141.252C63.6359 141.608 63.4729 142.059 63.4729 142.604V148.1H62.1539V142.319C62.1539 141.839 61.9982 141.452 61.6867 141.159C61.3753 140.862 60.9741 140.714 60.4831 140.714C60.1461 140.714 59.831 140.804 59.5379 140.983C59.2484 141.163 59.0139 141.412 58.8344 141.731C58.6585 142.046 58.5706 142.41 58.5706 142.824V148.1H57.2736ZM71.0341 148.1V139.659H72.2872V140.934H72.3751C72.529 140.516 72.8075 140.177 73.2105 139.917C73.6135 139.657 74.0678 139.527 74.5734 139.527C74.6687 139.527 74.7878 139.529 74.9307 139.532C75.0736 139.536 75.1816 139.541 75.2549 139.549V140.868C75.211 140.857 75.1102 140.84 74.9527 140.818C74.7988 140.793 74.6357 140.78 74.4635 140.78C74.0532 140.78 73.6868 140.866 73.3644 141.038C73.0456 141.207 72.7928 141.441 72.6059 141.742C72.4227 142.038 72.3311 142.377 72.3311 142.758V148.1H71.0341ZM82.2258 143.352C82.2258 141.967 82.4053 140.694 82.7644 139.532C83.1271 138.367 83.6437 137.295 84.3142 136.317H85.4573C85.1935 136.68 84.9462 137.127 84.7154 137.658C84.4882 138.186 84.2885 138.767 84.1163 139.4C83.9441 140.031 83.8086 140.683 83.7096 141.357C83.6144 142.031 83.5667 142.696 83.5667 143.352C83.5667 144.224 83.651 145.109 83.8196 146.006C83.9881 146.904 84.2153 147.738 84.501 148.507C84.7868 149.276 85.1056 149.903 85.4573 150.387H84.3142C83.6437 149.408 83.1271 148.338 82.7644 147.177C82.4053 146.012 82.2258 144.737 82.2258 143.352ZM91.264 148.254C90.5093 148.254 89.8424 148.12 89.2635 147.853C88.6883 147.582 88.2395 147.21 87.9171 146.737C87.5946 146.261 87.4353 145.719 87.4389 145.111C87.4353 144.634 87.5287 144.195 87.7192 143.792C87.9097 143.385 88.1699 143.046 88.4996 142.775C88.833 142.5 89.2049 142.326 89.6153 142.253V142.187C89.0767 142.048 88.648 141.745 88.3293 141.28C88.0105 140.811 87.853 140.278 87.8566 139.681C87.853 139.109 87.9977 138.598 88.2908 138.147C88.5839 137.697 88.9869 137.341 89.4999 137.081C90.0165 136.821 90.6045 136.691 91.264 136.691C91.9162 136.691 92.4988 136.821 93.0117 137.081C93.5246 137.341 93.9277 137.697 94.2208 138.147C94.5175 138.598 94.6678 139.109 94.6714 139.681C94.6678 140.278 94.5047 140.811 94.1823 141.28C93.8635 141.745 93.4404 142.048 92.9128 142.187V142.253C93.3195 142.326 93.6858 142.5 94.0119 142.775C94.338 143.046 94.5982 143.385 94.7923 143.792C94.9865 144.195 95.0854 144.634 95.0891 145.111C95.0854 145.719 94.9206 146.261 94.5945 146.737C94.2721 147.21 93.8232 147.582 93.248 147.853C92.6764 148.12 92.0151 148.254 91.264 148.254ZM91.264 147.045C91.7733 147.045 92.213 146.963 92.583 146.798C92.9531 146.633 93.2389 146.4 93.4404 146.1C93.6419 145.799 93.7445 145.448 93.7481 145.045C93.7445 144.62 93.6346 144.244 93.4184 143.918C93.2022 143.592 92.9073 143.335 92.5336 143.149C92.1635 142.962 91.7403 142.868 91.264 142.868C90.7841 142.868 90.3554 142.962 89.978 143.149C89.6043 143.335 89.3093 143.592 89.0932 143.918C88.8807 144.244 88.7762 144.62 88.7799 145.045C88.7762 145.448 88.8733 145.799 89.0712 146.1C89.2727 146.4 89.5603 146.633 89.934 146.798C90.3078 146.963 90.7511 147.045 91.264 147.045ZM91.264 141.703C91.6671 141.703 92.0243 141.623 92.3357 141.461C92.6508 141.3 92.8981 141.075 93.0776 140.785C93.2572 140.496 93.3488 140.157 93.3524 139.769C93.3488 139.388 93.259 139.056 93.0831 138.774C92.9073 138.488 92.6636 138.268 92.3522 138.114C92.0408 137.957 91.678 137.878 91.264 137.878C90.8427 137.878 90.4745 137.957 90.1594 138.114C89.8443 138.268 89.6006 138.488 89.4284 138.774C89.2562 139.056 89.1719 139.388 89.1756 139.769C89.1719 140.157 89.258 140.496 89.4339 140.785C89.6134 141.075 89.8608 141.3 90.1759 141.461C90.4909 141.623 90.8537 141.703 91.264 141.703ZM101.176 148.254C100.348 148.254 99.6428 148.029 99.0602 147.578C98.4777 147.124 98.0325 146.466 97.7247 145.605C97.417 144.741 97.2631 143.696 97.2631 142.473C97.2631 141.256 97.417 140.217 97.7247 139.356C98.0362 138.492 98.4832 137.832 99.0657 137.378C99.6519 136.92 100.355 136.691 101.176 136.691C101.997 136.691 102.698 136.92 103.281 137.378C103.867 137.832 104.314 138.492 104.622 139.356C104.933 140.217 105.089 141.256 105.089 142.473C105.089 143.696 104.935 144.741 104.627 145.605C104.32 146.466 103.875 147.124 103.292 147.578C102.709 148.029 102.004 148.254 101.176 148.254ZM101.176 147.045C101.997 147.045 102.634 146.649 103.089 145.858C103.543 145.067 103.77 143.938 103.77 142.473C103.77 141.498 103.666 140.668 103.457 139.983C103.252 139.298 102.955 138.776 102.567 138.417C102.182 138.058 101.718 137.878 101.176 137.878C100.363 137.878 99.7271 138.279 99.2691 139.082C98.8111 139.88 98.5821 141.011 98.5821 142.473C98.5821 143.447 98.6847 144.275 98.8899 144.957C99.095 145.638 99.39 146.157 99.7747 146.512C100.163 146.867 100.63 147.045 101.176 147.045ZM111.092 148.254C110.338 148.254 109.671 148.12 109.092 147.853C108.517 147.582 108.068 147.21 107.745 146.737C107.423 146.261 107.264 145.719 107.267 145.111C107.264 144.634 107.357 144.195 107.548 143.792C107.738 143.385 107.998 143.046 108.328 142.775C108.661 142.5 109.033 142.326 109.444 142.253V142.187C108.905 142.048 108.476 141.745 108.158 141.28C107.839 140.811 107.681 140.278 107.685 139.681C107.681 139.109 107.826 138.598 108.119 138.147C108.412 137.697 108.815 137.341 109.328 137.081C109.845 136.821 110.433 136.691 111.092 136.691C111.745 136.691 112.327 136.821 112.84 137.081C113.353 137.341 113.756 137.697 114.049 138.147C114.346 138.598 114.496 139.109 114.5 139.681C114.496 140.278 114.333 140.811 114.011 141.28C113.692 141.745 113.269 142.048 112.741 142.187V142.253C113.148 142.326 113.514 142.5 113.84 142.775C114.166 143.046 114.426 143.385 114.621 143.792C114.815 144.195 114.914 144.634 114.917 145.111C114.914 145.719 114.749 146.261 114.423 146.737C114.1 147.21 113.652 147.582 113.076 147.853C112.505 148.12 111.843 148.254 111.092 148.254ZM111.092 147.045C111.602 147.045 112.041 146.963 112.411 146.798C112.781 146.633 113.067 146.4 113.269 146.1C113.47 145.799 113.573 145.448 113.576 145.045C113.573 144.62 113.463 144.244 113.247 143.918C113.031 143.592 112.736 143.335 112.362 143.149C111.992 142.962 111.569 142.868 111.092 142.868C110.612 142.868 110.184 142.962 109.806 143.149C109.433 143.335 109.138 143.592 108.921 143.918C108.709 144.244 108.605 144.62 108.608 145.045C108.605 145.448 108.702 145.799 108.9 146.1C109.101 146.4 109.389 146.633 109.762 146.798C110.136 146.963 110.579 147.045 111.092 147.045ZM111.092 141.703C111.495 141.703 111.853 141.623 112.164 141.461C112.479 141.3 112.726 141.075 112.906 140.785C113.085 140.496 113.177 140.157 113.181 139.769C113.177 139.388 113.087 139.056 112.911 138.774C112.736 138.488 112.492 138.268 112.181 138.114C111.869 137.957 111.506 137.878 111.092 137.878C110.671 137.878 110.303 137.957 109.988 138.114C109.673 138.268 109.429 138.488 109.257 138.774C109.085 139.056 109 139.388 109.004 139.769C109 140.157 109.086 140.496 109.262 140.785C109.442 141.075 109.689 141.3 110.004 141.461C110.319 141.623 110.682 141.703 111.092 141.703ZM121.004 148.254C120.176 148.254 119.471 148.029 118.889 147.578C118.306 147.124 117.861 146.466 117.553 145.605C117.245 144.741 117.091 143.696 117.091 142.473C117.091 141.256 117.245 140.217 117.553 139.356C117.864 138.492 118.311 137.832 118.894 137.378C119.48 136.92 120.184 136.691 121.004 136.691C121.825 136.691 122.527 136.92 123.109 137.378C123.696 137.832 124.143 138.492 124.45 139.356C124.762 140.217 124.917 141.256 124.917 142.473C124.917 143.696 124.764 144.741 124.456 145.605C124.148 146.466 123.703 147.124 123.12 147.578C122.538 148.029 121.832 148.254 121.004 148.254ZM121.004 147.045C121.825 147.045 122.463 146.649 122.917 145.858C123.371 145.067 123.598 143.938 123.598 142.473C123.598 141.498 123.494 140.668 123.285 139.983C123.08 139.298 122.783 138.776 122.395 138.417C122.01 138.058 121.547 137.878 121.004 137.878C120.191 137.878 119.555 138.279 119.097 139.082C118.639 139.88 118.41 141.011 118.41 142.473C118.41 143.447 118.513 144.275 118.718 144.957C118.923 145.638 119.218 146.157 119.603 146.512C119.991 146.867 120.459 147.045 121.004 147.045ZM130.107 143.352C130.107 144.737 129.926 146.012 129.563 147.177C129.204 148.338 128.689 149.408 128.019 150.387H126.876C127.14 150.024 127.385 149.577 127.612 149.046C127.843 148.518 128.045 147.939 128.217 147.309C128.389 146.675 128.523 146.021 128.618 145.347C128.717 144.669 128.766 144.004 128.766 143.352C128.766 142.48 128.682 141.595 128.513 140.697C128.345 139.8 128.118 138.966 127.832 138.197C127.546 137.427 127.227 136.801 126.876 136.317H128.019C128.689 137.295 129.204 138.367 129.563 139.532C129.926 140.694 130.107 141.967 130.107 143.352Z" fill="#6C6C73"/>
<path d="M47.8204 176.754V168.312H49.0734V169.631H49.1834C49.3592 169.181 49.6432 168.831 50.0352 168.582C50.4272 168.329 50.8981 168.202 51.4476 168.202C52.0045 168.202 52.468 168.329 52.8381 168.582C53.2118 168.831 53.5031 169.181 53.7119 169.631H53.7998C54.016 169.195 54.3403 168.849 54.7726 168.593C55.2049 168.333 55.7234 168.202 56.3279 168.202C57.0827 168.202 57.7 168.439 58.18 168.911C58.66 169.38 58.9 170.111 58.9 171.104V176.754H57.603V171.104C57.603 170.481 57.4326 170.036 57.0918 169.769C56.7511 169.501 56.3499 169.368 55.8883 169.368C55.2947 169.368 54.8349 169.547 54.5088 169.906C54.1827 170.262 54.0197 170.712 54.0197 171.258V176.754H52.7007V170.972C52.7007 170.492 52.545 170.106 52.2335 169.813C51.9221 169.516 51.5209 169.368 51.03 169.368C50.6929 169.368 50.3778 169.457 50.0847 169.637C49.7952 169.816 49.5607 170.066 49.3812 170.384C49.2053 170.699 49.1174 171.064 49.1174 171.478V176.754H47.8204ZM62.114 179.92C61.8942 179.92 61.6982 179.901 61.526 179.865C61.3538 179.832 61.2347 179.799 61.1688 179.766L61.4985 178.623C61.8136 178.703 62.0921 178.732 62.3339 178.71C62.5757 178.688 62.79 178.58 62.9769 178.386C63.1674 178.196 63.3414 177.886 63.499 177.457L63.7408 176.798L60.6192 168.312H62.0261L64.3563 175.039H64.4443L66.7745 168.312H68.1814L64.5981 177.985C64.4369 178.421 64.2373 178.782 63.9991 179.068C63.7609 179.357 63.4843 179.571 63.1692 179.711C62.8578 179.85 62.5061 179.92 62.114 179.92ZM76.1823 170.203L75.0172 170.533C74.944 170.339 74.8359 170.15 74.693 169.967C74.5537 169.78 74.3632 169.626 74.1214 169.505C73.8796 169.384 73.57 169.324 73.1926 169.324C72.676 169.324 72.2455 169.443 71.9011 169.681C71.5604 169.915 71.39 170.214 71.39 170.577C71.39 170.899 71.5072 171.154 71.7417 171.341C71.9762 171.527 72.3426 171.683 72.8409 171.808L74.0939 172.115C74.8487 172.299 75.4111 172.579 75.7811 172.956C76.1512 173.33 76.3362 173.812 76.3362 174.402C76.3362 174.885 76.197 175.318 75.9185 175.699C75.6438 176.08 75.259 176.38 74.7644 176.6C74.2698 176.82 73.6946 176.93 73.0387 176.93C72.1777 176.93 71.4651 176.743 70.9009 176.369C70.3366 175.996 69.9794 175.45 69.8292 174.732L71.0602 174.424C71.1775 174.878 71.3991 175.219 71.7252 175.446C72.055 175.673 72.4855 175.787 73.0167 175.787C73.6213 175.787 74.1013 175.658 74.4567 175.402C74.8157 175.142 74.9952 174.83 74.9952 174.468C74.9952 174.175 74.8927 173.929 74.6875 173.731C74.4823 173.53 74.1672 173.38 73.7422 173.281L72.3353 172.951C71.5622 172.768 70.9943 172.484 70.6316 172.099C70.2725 171.711 70.093 171.225 70.093 170.643C70.093 170.166 70.2267 169.745 70.4942 169.379C70.7653 169.012 71.1335 168.725 71.5988 168.516C72.0678 168.307 72.5991 168.202 73.1926 168.202C74.028 168.202 74.6838 168.386 75.1601 168.752C75.6401 169.118 75.9808 169.602 76.1823 170.203ZM84.3578 179.92V175.457H84.2478C84.1526 175.611 84.017 175.805 83.8411 176.04C83.6653 176.27 83.4143 176.477 83.0882 176.661C82.7621 176.84 82.328 176.93 81.7857 176.93C81.0822 176.93 80.4612 176.752 79.9226 176.397C79.384 176.038 78.9627 175.532 78.6586 174.88C78.3545 174.224 78.2024 173.449 78.2024 172.555C78.2024 171.669 78.3545 170.899 78.6586 170.247C78.9627 169.595 79.3859 169.091 79.9281 168.736C80.4704 168.38 81.0969 168.202 81.8077 168.202C82.3573 168.202 82.7914 168.294 83.1102 168.477C83.4326 168.657 83.6781 168.862 83.8466 169.093C84.0188 169.32 84.1526 169.507 84.2478 169.653H84.4017V168.312H85.6548V179.92H84.3578ZM81.9616 175.765C82.4819 175.765 82.9215 175.629 83.2806 175.358C83.6396 175.083 83.9126 174.704 84.0995 174.22C84.2863 173.733 84.3797 173.171 84.3797 172.533C84.3797 171.903 84.2881 171.352 84.1049 170.879C83.9218 170.403 83.6506 170.033 83.2916 169.769C82.9325 169.501 82.4892 169.368 81.9616 169.368C81.412 169.368 80.954 169.509 80.5876 169.791C80.2249 170.069 79.9519 170.448 79.7687 170.928C79.5892 171.405 79.4995 171.94 79.4995 172.533C79.4995 173.134 79.591 173.68 79.7742 174.171C79.9611 174.658 80.2359 175.047 80.5986 175.336C80.965 175.622 81.4193 175.765 81.9616 175.765ZM89.6355 165.499V176.754H88.3385V165.499H89.6355ZM97.4445 172.006C97.4445 170.621 97.624 169.347 97.983 168.186C98.3458 167.021 98.8624 165.949 99.5329 164.971H100.676C100.412 165.334 100.165 165.781 99.9341 166.312C99.7069 166.84 99.5072 167.42 99.335 168.054C99.1628 168.684 99.0273 169.336 98.9283 170.011C98.8331 170.685 98.7854 171.35 98.7854 172.006C98.7854 172.878 98.8697 173.762 99.0382 174.66C99.2068 175.558 99.4339 176.391 99.7197 177.161C100.006 177.93 100.324 178.557 100.676 179.04H99.5329C98.8624 178.062 98.3458 176.992 97.983 175.831C97.624 174.666 97.4445 173.391 97.4445 172.006ZM106.395 176.908C105.75 176.908 105.169 176.78 104.653 176.523C104.136 176.267 103.722 175.915 103.411 175.468C103.099 175.021 102.929 174.512 102.899 173.94H104.218C104.27 174.449 104.501 174.871 104.911 175.204C105.325 175.534 105.82 175.699 106.395 175.699C106.856 175.699 107.267 175.591 107.626 175.375C107.989 175.158 108.273 174.862 108.478 174.484C108.687 174.103 108.791 173.673 108.791 173.193C108.791 172.702 108.683 172.264 108.467 171.879C108.254 171.491 107.961 171.185 107.587 170.961C107.214 170.738 106.787 170.624 106.307 170.621C105.962 170.617 105.609 170.67 105.246 170.78C104.883 170.886 104.585 171.024 104.35 171.192L103.075 171.038L103.757 165.499H109.604V166.708H104.9L104.504 170.027H104.57C104.801 169.844 105.09 169.692 105.439 169.571C105.787 169.45 106.149 169.39 106.527 169.39C107.215 169.39 107.829 169.554 108.368 169.884C108.91 170.21 109.335 170.657 109.643 171.225C109.954 171.793 110.11 172.442 110.11 173.171C110.11 173.889 109.949 174.53 109.626 175.094C109.308 175.655 108.868 176.098 108.307 176.424C107.747 176.747 107.109 176.908 106.395 176.908ZM112.339 174.446V173.325L117.285 165.499H118.099V167.235H117.549L113.812 173.149V173.237H120.473V174.446H112.339ZM117.637 176.754V174.105V173.583V165.499H118.934V176.754H117.637ZM126.447 176.908C125.692 176.908 125.025 176.774 124.447 176.507C123.871 176.236 123.423 175.864 123.1 175.391C122.778 174.915 122.618 174.372 122.622 173.764C122.618 173.288 122.712 172.848 122.902 172.445C123.093 172.039 123.353 171.7 123.683 171.429C124.016 171.154 124.388 170.98 124.798 170.906V170.84C124.26 170.701 123.831 170.399 123.512 169.934C123.194 169.465 123.036 168.932 123.04 168.334C123.036 167.763 123.181 167.252 123.474 166.801C123.767 166.35 124.17 165.995 124.683 165.735C125.2 165.475 125.788 165.345 126.447 165.345C127.099 165.345 127.682 165.475 128.195 165.735C128.708 165.995 129.111 166.35 129.404 166.801C129.701 167.252 129.851 167.763 129.854 168.334C129.851 168.932 129.688 169.465 129.365 169.934C129.047 170.399 128.623 170.701 128.096 170.84V170.906C128.502 170.98 128.869 171.154 129.195 171.429C129.521 171.7 129.781 172.039 129.975 172.445C130.17 172.848 130.268 173.288 130.272 173.764C130.268 174.372 130.104 174.915 129.778 175.391C129.455 175.864 129.006 176.236 128.431 176.507C127.859 176.774 127.198 176.908 126.447 176.908ZM126.447 175.699C126.956 175.699 127.396 175.616 127.766 175.451C128.136 175.287 128.422 175.054 128.623 174.753C128.825 174.453 128.927 174.101 128.931 173.698C128.927 173.273 128.818 172.898 128.601 172.572C128.385 172.246 128.09 171.989 127.717 171.802C127.347 171.615 126.923 171.522 126.447 171.522C125.967 171.522 125.538 171.615 125.161 171.802C124.787 171.989 124.492 172.246 124.276 172.572C124.064 172.898 123.959 173.273 123.963 173.698C123.959 174.101 124.056 174.453 124.254 174.753C124.456 175.054 124.743 175.287 125.117 175.451C125.491 175.616 125.934 175.699 126.447 175.699ZM126.447 170.357C126.85 170.357 127.207 170.276 127.519 170.115C127.834 169.954 128.081 169.728 128.261 169.439C128.44 169.15 128.532 168.811 128.535 168.422C128.532 168.041 128.442 167.71 128.266 167.428C128.09 167.142 127.847 166.922 127.535 166.768C127.224 166.611 126.861 166.532 126.447 166.532C126.026 166.532 125.657 166.611 125.342 166.768C125.027 166.922 124.784 167.142 124.611 167.428C124.439 167.71 124.355 168.041 124.359 168.422C124.355 168.811 124.441 169.15 124.617 169.439C124.796 169.728 125.044 169.954 125.359 170.115C125.674 170.276 126.037 170.357 126.447 170.357ZM136.359 176.908C135.531 176.908 134.826 176.683 134.243 176.232C133.661 175.778 133.216 175.12 132.908 174.259C132.6 173.394 132.446 172.35 132.446 171.126C132.446 169.91 132.6 168.871 132.908 168.01C133.219 167.145 133.666 166.486 134.249 166.032C134.835 165.574 135.538 165.345 136.359 165.345C137.18 165.345 137.881 165.574 138.464 166.032C139.05 166.486 139.497 167.145 139.805 168.01C140.116 168.871 140.272 169.91 140.272 171.126C140.272 172.35 140.118 173.394 139.811 174.259C139.503 175.12 139.058 175.778 138.475 176.232C137.892 176.683 137.187 176.908 136.359 176.908ZM136.359 175.699C137.18 175.699 137.817 175.303 138.272 174.512C138.726 173.72 138.953 172.592 138.953 171.126C138.953 170.152 138.849 169.322 138.64 168.637C138.435 167.951 138.138 167.429 137.75 167.07C137.365 166.711 136.901 166.532 136.359 166.532C135.546 166.532 134.91 166.933 134.452 167.735C133.994 168.534 133.765 169.664 133.765 171.126C133.765 172.101 133.868 172.929 134.073 173.61C134.278 174.292 134.573 174.81 134.958 175.166C135.346 175.521 135.813 175.699 136.359 175.699ZM145.462 172.006C145.462 173.391 145.281 174.666 144.918 175.831C144.559 176.992 144.044 178.062 143.374 179.04H142.23C142.494 178.678 142.74 178.231 142.967 177.699C143.198 177.172 143.399 176.593 143.571 175.963C143.744 175.329 143.877 174.675 143.973 174.001C144.072 173.323 144.121 172.658 144.121 172.006C144.121 171.134 144.037 170.249 143.868 169.351C143.7 168.453 143.472 167.62 143.187 166.851C142.901 166.081 142.582 165.455 142.23 164.971H143.374C144.044 165.949 144.559 167.021 144.918 168.186C145.281 169.347 145.462 170.621 145.462 172.006Z" fill="#6C6C73"/>
<path d="M50.3045 205.605C49.7696 205.605 49.2841 205.505 48.8481 205.303C48.4121 205.098 48.0659 204.803 47.8094 204.418C47.5529 204.03 47.4247 203.561 47.4247 203.011C47.4247 202.528 47.52 202.136 47.7105 201.835C47.901 201.531 48.1556 201.293 48.4744 201.121C48.7932 200.949 49.1449 200.82 49.5296 200.736C49.918 200.648 50.3082 200.579 50.7002 200.527C51.2132 200.461 51.629 200.412 51.9478 200.379C52.2702 200.342 52.5047 200.282 52.6512 200.198C52.8014 200.113 52.8766 199.967 52.8766 199.758V199.714C52.8766 199.172 52.7282 198.75 52.4314 198.45C52.1383 198.149 51.6931 197.999 51.0959 197.999C50.4767 197.999 49.9912 198.135 49.6395 198.406C49.2878 198.677 49.0405 198.966 48.8976 199.274L47.6665 198.835C47.8863 198.322 48.1795 197.922 48.5458 197.637C48.9159 197.347 49.3189 197.146 49.7549 197.032C50.1946 196.915 50.6269 196.856 51.0519 196.856C51.3231 196.856 51.6345 196.889 51.9862 196.955C52.3416 197.017 52.6842 197.147 53.0139 197.345C53.3474 197.543 53.624 197.842 53.8438 198.241C54.0636 198.64 54.1736 199.175 54.1736 199.846V205.408H52.8766V204.264H52.8106C52.7227 204.448 52.5761 204.644 52.3709 204.853C52.1658 205.061 51.8928 205.239 51.5521 205.386C51.2113 205.532 50.7955 205.605 50.3045 205.605ZM50.5024 204.44C51.0153 204.44 51.4476 204.34 51.7994 204.138C52.1548 203.937 52.4222 203.676 52.6018 203.358C52.785 203.039 52.8766 202.704 52.8766 202.352V201.165C52.8216 201.231 52.7007 201.291 52.5138 201.346C52.3306 201.397 52.1181 201.443 51.8763 201.484C51.6382 201.52 51.4055 201.553 51.1783 201.583C50.9548 201.608 50.7735 201.63 50.6343 201.648C50.2972 201.692 49.9821 201.764 49.689 201.863C49.3995 201.958 49.165 202.103 48.9855 202.297C48.8096 202.487 48.7217 202.748 48.7217 203.077C48.7217 203.528 48.8884 203.869 49.2218 204.1C49.5589 204.327 49.9858 204.44 50.5024 204.44ZM56.8504 208.573V196.966H58.1035V198.307H58.2573C58.3526 198.16 58.4845 197.974 58.653 197.746C58.8252 197.516 59.0707 197.31 59.3895 197.131C59.7119 196.948 60.1479 196.856 60.6975 196.856C61.4083 196.856 62.0348 197.034 62.5771 197.389C63.1193 197.745 63.5425 198.248 63.8466 198.901C64.1507 199.553 64.3027 200.322 64.3027 201.209C64.3027 202.103 64.1507 202.878 63.8466 203.534C63.5425 204.186 63.1211 204.691 62.5826 205.05C62.044 205.406 61.4229 205.583 60.7195 205.583C60.1772 205.583 59.743 205.494 59.417 205.314C59.0909 205.131 58.8399 204.924 58.664 204.693C58.4882 204.459 58.3526 204.264 58.2573 204.111H58.1474V208.573H56.8504ZM58.1254 201.187C58.1254 201.824 58.2189 202.387 58.4057 202.874C58.5926 203.358 58.8655 203.737 59.2246 204.012C59.5837 204.283 60.0233 204.418 60.5436 204.418C61.0859 204.418 61.5383 204.275 61.9011 203.99C62.2675 203.7 62.5423 203.312 62.7254 202.825C62.9123 202.334 63.0057 201.788 63.0057 201.187C63.0057 200.593 62.9141 200.058 62.7309 199.582C62.5514 199.102 62.2785 198.723 61.9121 198.444C61.5493 198.162 61.0932 198.021 60.5436 198.021C60.016 198.021 59.5727 198.155 59.2136 198.422C58.8546 198.686 58.5834 199.056 58.4002 199.533C58.217 200.005 58.1254 200.557 58.1254 201.187ZM66.5908 205.408V196.966H67.8878V205.408H66.5908ZM67.2503 195.559C66.9975 195.559 66.7795 195.473 66.5963 195.301C66.4167 195.129 66.327 194.922 66.327 194.68C66.327 194.438 66.4167 194.231 66.5963 194.059C66.7795 193.887 66.9975 193.8 67.2503 193.8C67.5031 193.8 67.7192 193.887 67.8988 194.059C68.082 194.231 68.1736 194.438 68.1736 194.68C68.1736 194.922 68.082 195.129 67.8988 195.301C67.7192 195.473 67.5031 195.559 67.2503 195.559ZM75.6967 200.659C75.6967 199.274 75.8763 198.001 76.2353 196.84C76.598 195.674 77.1147 194.603 77.7851 193.625H78.9283C78.6645 193.987 78.4172 194.434 78.1863 194.966C77.9592 195.493 77.7595 196.074 77.5873 196.708C77.4151 197.338 77.2795 197.99 77.1806 198.664C77.0853 199.338 77.0377 200.003 77.0377 200.659C77.0377 201.531 77.122 202.416 77.2905 203.314C77.4591 204.211 77.6862 205.045 77.972 205.814C78.2578 206.584 78.5765 207.21 78.9283 207.694H77.7851C77.1147 206.716 76.598 205.646 76.2353 204.484C75.8763 203.319 75.6967 202.044 75.6967 200.659ZM84.9328 205.561C84.2074 205.561 83.5607 205.437 82.9928 205.188C82.4286 204.939 81.9798 204.592 81.6463 204.149C81.3166 203.702 81.1371 203.184 81.1078 202.594H82.4927C82.522 202.956 82.6466 203.27 82.8664 203.534C83.0862 203.794 83.3739 203.995 83.7293 204.138C84.0847 204.281 84.4785 204.352 84.9109 204.352C85.3945 204.352 85.8232 204.268 86.1969 204.1C86.5706 203.931 86.8637 203.697 87.0762 203.396C87.2887 203.096 87.395 202.748 87.395 202.352C87.395 201.938 87.2924 201.573 87.0872 201.258C86.882 200.939 86.5816 200.69 86.1859 200.511C85.7902 200.331 85.3066 200.242 84.735 200.242H83.8337V199.032H84.735C85.182 199.032 85.574 198.952 85.9111 198.791C86.2518 198.629 86.5175 198.402 86.708 198.109C86.9022 197.816 86.9993 197.472 86.9993 197.076C86.9993 196.695 86.915 196.363 86.7465 196.081C86.5779 195.799 86.3398 195.579 86.032 195.422C85.7279 195.264 85.3688 195.185 84.9548 195.185C84.5665 195.185 84.2001 195.257 83.8557 195.4C83.5149 195.539 83.2365 195.742 83.0203 196.01C82.8041 196.274 82.6869 196.592 82.6686 196.966H81.3496C81.3716 196.376 81.5493 195.86 81.8827 195.416C82.2161 194.969 82.6521 194.621 83.1907 194.372C83.7329 194.123 84.3283 193.998 84.9768 193.998C85.6729 193.998 86.2702 194.139 86.7684 194.421C87.2667 194.7 87.6496 195.068 87.9171 195.526C88.1845 195.984 88.3183 196.479 88.3183 197.01C88.3183 197.644 88.1516 198.184 87.8181 198.631C87.4884 199.078 87.0396 199.388 86.4717 199.56V199.648C87.1825 199.765 87.7375 200.067 88.1369 200.555C88.5363 201.038 88.736 201.637 88.736 202.352C88.736 202.964 88.5692 203.513 88.2358 204.001C87.9061 204.484 87.4554 204.865 86.8839 205.144C86.3123 205.422 85.662 205.561 84.9328 205.561ZM94.9645 205.561C94.1364 205.561 93.4311 205.336 92.8486 204.885C92.266 204.431 91.8209 203.774 91.5131 202.912C91.2053 202.048 91.0514 201.004 91.0514 199.78C91.0514 198.563 91.2053 197.525 91.5131 196.664C91.8245 195.799 92.2715 195.14 92.8541 194.685C93.4403 194.227 94.1438 193.998 94.9645 193.998C95.7852 193.998 96.4868 194.227 97.0694 194.685C97.6556 195.14 98.1026 195.799 98.4104 196.664C98.7218 197.525 98.8775 198.563 98.8775 199.78C98.8775 201.004 98.7236 202.048 98.4158 202.912C98.1081 203.774 97.6629 204.431 97.0804 204.885C96.4978 205.336 95.7925 205.561 94.9645 205.561ZM94.9645 204.352C95.7852 204.352 96.4227 203.957 96.877 203.165C97.3313 202.374 97.5585 201.245 97.5585 199.78C97.5585 198.805 97.4541 197.975 97.2452 197.29C97.0401 196.605 96.7433 196.083 96.3549 195.724C95.9702 195.365 95.5067 195.185 94.9645 195.185C94.1511 195.185 93.5154 195.587 93.0574 196.389C92.5994 197.188 92.3704 198.318 92.3704 199.78C92.3704 200.754 92.473 201.583 92.6782 202.264C92.8834 202.945 93.1783 203.464 93.563 203.819C93.9514 204.175 94.4186 204.352 94.9645 204.352ZM104.947 205.561C104.119 205.561 103.413 205.336 102.831 204.885C102.248 204.431 101.803 203.774 101.495 202.912C101.187 202.048 101.034 201.004 101.034 199.78C101.034 198.563 101.187 197.525 101.495 196.664C101.807 195.799 102.254 195.14 102.836 194.685C103.422 194.227 104.126 193.998 104.947 193.998C105.767 193.998 106.469 194.227 107.052 194.685C107.638 195.14 108.085 195.799 108.393 196.664C108.704 197.525 108.86 198.563 108.86 199.78C108.86 201.004 108.706 202.048 108.398 202.912C108.09 203.774 107.645 204.431 107.063 204.885C106.48 205.336 105.775 205.561 104.947 205.561ZM104.947 204.352C105.767 204.352 106.405 203.957 106.859 203.165C107.314 202.374 107.541 201.245 107.541 199.78C107.541 198.805 107.436 197.975 107.227 197.29C107.022 196.605 106.725 196.083 106.337 195.724C105.952 195.365 105.489 195.185 104.947 195.185C104.133 195.185 103.498 195.587 103.04 196.389C102.582 197.188 102.353 198.318 102.353 199.78C102.353 200.754 102.455 201.583 102.66 202.264C102.866 202.945 103.16 203.464 103.545 203.819C103.934 204.175 104.401 204.352 104.947 204.352ZM115.215 194.152V205.408H113.852V195.581H113.786L111.038 197.406V196.021L113.852 194.152H115.215ZM121.553 200.659C121.553 202.044 121.372 203.319 121.009 204.484C120.65 205.646 120.135 206.716 119.465 207.694H118.321C118.585 207.331 118.831 206.884 119.058 206.353C119.289 205.825 119.49 205.246 119.662 204.616C119.835 203.982 119.968 203.328 120.064 202.654C120.163 201.976 120.212 201.311 120.212 200.659C120.212 199.787 120.128 198.902 119.959 198.005C119.791 197.107 119.564 196.274 119.278 195.504C118.992 194.735 118.673 194.108 118.321 193.625H119.465C120.135 194.603 120.65 195.674 121.009 196.84C121.372 198.001 121.553 199.274 121.553 200.659Z" fill="#6C6C73"/>
<ellipse cx="31.461" cy="114.263" rx="7.43411" ry="7.41138" fill="#368FF9"/>
<path d="M38.3424 142.917C38.3424 146.703 35.2631 149.775 31.461 149.775C27.6589 149.775 24.5796 146.703 24.5796 142.917C24.5796 139.13 27.6589 136.058 31.461 136.058C35.2631 136.058 38.3424 139.13 38.3424 142.917Z" fill="white" stroke="#E6E6EB" stroke-width="1.10544"/>
<path d="M38.3424 171.57C38.3424 175.357 35.2631 178.429 31.461 178.429C27.6589 178.429 24.5796 175.357 24.5796 171.57C24.5796 167.784 27.6589 164.712 31.461 164.712C35.2631 164.712 38.3424 167.784 38.3424 171.57Z" fill="white" stroke="#E6E6EB" stroke-width="1.10544"/>
<path d="M38.3424 200.224C38.3424 204.01 35.2631 207.083 31.461 207.083C27.6589 207.083 24.5796 204.01 24.5796 200.224C24.5796 196.438 27.6589 193.365 31.461 193.365C35.2631 193.365 38.3424 196.438 38.3424 200.224Z" fill="white" stroke="#E6E6EB" stroke-width="1.10544"/>
<path d="M48.0893 92.8995V81.6441H52.53C53.3836 81.6441 54.1109 81.8071 54.7118 82.1332C55.3127 82.4556 55.7707 82.9044 56.0858 83.4797C56.4045 84.0512 56.5639 84.7107 56.5639 85.4582C56.5639 86.2056 56.4027 86.8651 56.0803 87.4367C55.7578 88.0082 55.2907 88.4534 54.6788 88.7721C54.0706 89.0909 53.3342 89.2503 52.4695 89.2503H49.6392V87.3432H52.0848C52.5428 87.3432 52.9202 87.2645 53.2169 87.1069C53.5174 86.9457 53.7409 86.724 53.8874 86.4419C54.0376 86.1561 54.1128 85.8282 54.1128 85.4582C54.1128 85.0845 54.0376 84.7584 53.8874 84.4799C53.7409 84.1978 53.5174 83.9798 53.2169 83.8259C52.9165 83.6684 52.5355 83.5896 52.0738 83.5896H50.469V92.8995H48.0893ZM62.0532 93.0644C61.1995 93.0644 60.4613 92.883 59.8384 92.5203C59.2192 92.1539 58.7411 91.6446 58.404 90.9925C58.0669 90.3366 57.8984 89.5764 57.8984 88.7117C57.8984 87.8397 58.0669 87.0776 58.404 86.4254C58.7411 85.7696 59.2192 85.2603 59.8384 84.8976C60.4613 84.5312 61.1995 84.348 62.0532 84.348C62.9069 84.348 63.6434 84.5312 64.2625 84.8976C64.8854 85.2603 65.3654 85.7696 65.7025 86.4254C66.0395 87.0776 66.2081 87.8397 66.2081 88.7117C66.2081 89.5764 66.0395 90.3366 65.7025 90.9925C65.3654 91.6446 64.8854 92.1539 64.2625 92.5203C63.6434 92.883 62.9069 93.0644 62.0532 93.0644ZM62.0642 91.2508C62.4526 91.2508 62.7768 91.1408 63.037 90.921C63.2971 90.6975 63.4931 90.3934 63.625 90.0087C63.7606 89.624 63.8284 89.1862 63.8284 88.6952C63.8284 88.2042 63.7606 87.7664 63.625 87.3817C63.4931 86.997 63.2971 86.6929 63.037 86.4694C62.7768 86.2459 62.4526 86.1342 62.0642 86.1342C61.6722 86.1342 61.3424 86.2459 61.075 86.4694C60.8112 86.6929 60.6115 86.997 60.4759 87.3817C60.344 87.7664 60.2781 88.2042 60.2781 88.6952C60.2781 89.1862 60.344 89.624 60.4759 90.0087C60.6115 90.3934 60.8112 90.6975 61.075 90.921C61.3424 91.1408 61.6722 91.2508 62.0642 91.2508ZM68.0399 92.8995V84.4579H70.3097V85.9308H70.3976C70.5515 85.4069 70.8098 85.0112 71.1726 84.7437C71.5353 84.4726 71.953 84.337 72.4256 84.337C72.5428 84.337 72.6692 84.3443 72.8048 84.359C72.9404 84.3737 73.0594 84.3938 73.162 84.4195V86.4969C73.0521 86.4639 72.9001 86.4346 72.7059 86.4089C72.5117 86.3833 72.334 86.3705 72.1728 86.3705C71.8284 86.3705 71.5206 86.4456 71.2495 86.5958C70.982 86.7424 70.7695 86.9475 70.612 87.2113C70.4581 87.4751 70.3812 87.7792 70.3812 88.1236V92.8995H68.0399ZM79.1721 84.4579V86.2166H74.0885V84.4579H79.1721ZM75.2426 82.4355H77.5838V90.3055C77.5838 90.5216 77.6168 90.6902 77.6827 90.8111C77.7487 90.9283 77.8403 91.0108 77.9575 91.0584C78.0784 91.106 78.2177 91.1299 78.3752 91.1299C78.4851 91.1299 78.595 91.1207 78.705 91.1024C78.8149 91.0804 78.8991 91.0639 78.9578 91.0529L79.326 92.7951C79.2087 92.8317 79.0439 92.8739 78.8314 92.9215C78.6189 92.9728 78.3606 93.0039 78.0564 93.0149C77.4922 93.0369 76.9976 92.9618 76.5726 92.7896C76.1512 92.6174 75.8233 92.3499 75.5888 91.9872C75.3543 91.6245 75.2389 91.1665 75.2426 90.6132V82.4355Z" fill="#121213"/>
<line x1="0.101074" y1="58.5218" x2="251.34" y2="58.5218" stroke="#E6E6EB" stroke-width="1.10544"/>
<line x1="0.161865" y1="58.5218" x2="125.164" y2="58.5218" stroke="#121213" stroke-width="1.10544"/>
</svg>
