<svg width="268" height="292" viewBox="0 0 268 292" fill="none" xmlns="http://www.w3.org/2000/svg">
<rect x="0.552722" y="0.552722" width="266.895" height="290.895" rx="19.3453" fill="white" stroke="#E6E6EB" stroke-width="1.10544"/>
<line x1="-3.01979e-08" y1="61.1863" x2="268" y2="61.1862" stroke="#E6E6EB" stroke-width="1.10544"/>
<path d="M86.3901 166.374V156.57H90.0664C90.8196 156.57 91.4514 156.71 91.962 156.991C92.4758 157.272 92.8636 157.658 93.1253 158.15C93.3901 158.638 93.5226 159.193 93.5226 159.816C93.5226 160.444 93.3901 161.003 93.1253 161.491C92.8604 161.979 92.4695 162.364 91.9525 162.645C91.4355 162.922 90.7988 163.061 90.0425 163.061H87.6059V161.601H89.8031C90.2435 161.601 90.6042 161.524 90.885 161.371C91.1658 161.218 91.3733 161.008 91.5073 160.739C91.6445 160.471 91.7131 160.163 91.7131 159.816C91.7131 159.468 91.6445 159.161 91.5073 158.896C91.3733 158.632 91.1642 158.426 90.8802 158.279C90.5994 158.129 90.2372 158.054 89.7936 158.054H88.166V166.374H86.3901ZM96.3352 169.131C96.0991 169.131 95.8805 169.112 95.6794 169.073C95.4816 169.038 95.3236 168.997 95.2055 168.949L95.6076 167.599C95.8597 167.673 96.0847 167.708 96.2826 167.704C96.4804 167.701 96.6544 167.639 96.8044 167.518C96.9575 167.4 97.0868 167.202 97.1921 166.924L97.3405 166.527L94.6742 159.021H96.5124L98.2069 164.574H98.2835L99.9829 159.021H101.826L98.8819 167.264C98.7447 167.653 98.5628 167.987 98.3362 168.264C98.1096 168.545 97.832 168.759 97.5033 168.906C97.1777 169.056 96.7884 169.131 96.3352 169.131ZM106.966 159.021V160.361H102.739V159.021H106.966ZM103.783 157.259H105.516V164.162C105.516 164.395 105.551 164.574 105.621 164.698C105.694 164.82 105.79 164.902 105.908 164.947C106.026 164.992 106.157 165.014 106.301 165.014C106.409 165.014 106.508 165.006 106.598 164.99C106.69 164.974 106.76 164.96 106.808 164.947L107.1 166.302C107.008 166.334 106.875 166.369 106.703 166.407C106.534 166.445 106.326 166.468 106.081 166.474C105.647 166.487 105.256 166.422 104.908 166.278C104.56 166.131 104.284 165.905 104.08 165.598C103.879 165.292 103.78 164.909 103.783 164.449V157.259ZM110.576 162.065V166.374H108.843V156.57H110.538V160.27H110.624C110.796 159.855 111.063 159.528 111.423 159.289C111.787 159.046 112.25 158.925 112.811 158.925C113.322 158.925 113.767 159.032 114.147 159.246C114.527 159.46 114.82 159.772 115.028 160.184C115.238 160.596 115.344 161.098 115.344 161.692V166.374H113.611V161.96C113.611 161.465 113.483 161.081 113.228 160.806C112.976 160.529 112.621 160.39 112.165 160.39C111.859 160.39 111.584 160.457 111.342 160.591C111.102 160.722 110.914 160.912 110.777 161.161C110.643 161.41 110.576 161.711 110.576 162.065ZM120.587 166.517C119.869 166.517 119.247 166.359 118.72 166.043C118.193 165.727 117.785 165.285 117.494 164.717C117.207 164.149 117.064 163.486 117.064 162.726C117.064 161.966 117.207 161.301 117.494 160.73C117.785 160.159 118.193 159.715 118.72 159.399C119.247 159.083 119.869 158.925 120.587 158.925C121.305 158.925 121.927 159.083 122.454 159.399C122.98 159.715 123.387 160.159 123.674 160.73C123.965 161.301 124.11 161.966 124.11 162.726C124.11 163.486 123.965 164.149 123.674 164.717C123.387 165.285 122.98 165.727 122.454 166.043C121.927 166.359 121.305 166.517 120.587 166.517ZM120.596 165.129C120.986 165.129 121.311 165.022 121.573 164.808C121.835 164.591 122.029 164.301 122.157 163.937C122.288 163.573 122.353 163.168 122.353 162.721C122.353 162.271 122.288 161.864 122.157 161.501C122.029 161.134 121.835 160.842 121.573 160.625C121.311 160.408 120.986 160.299 120.596 160.299C120.198 160.299 119.866 160.408 119.601 160.625C119.339 160.842 119.143 161.134 119.012 161.501C118.884 161.864 118.82 162.271 118.82 162.721C118.82 163.168 118.884 163.573 119.012 163.937C119.143 164.301 119.339 164.591 119.601 164.808C119.866 165.022 120.198 165.129 120.596 165.129ZM127.583 162.065V166.374H125.85V159.021H127.507V160.27H127.593C127.762 159.859 128.032 159.532 128.402 159.289C128.775 159.046 129.236 158.925 129.785 158.925C130.293 158.925 130.735 159.034 131.111 159.251C131.491 159.468 131.785 159.782 131.992 160.194C132.203 160.605 132.306 161.105 132.303 161.692V166.374H130.57V161.96C130.57 161.469 130.443 161.084 130.187 160.806C129.935 160.529 129.586 160.39 129.139 160.39C128.836 160.39 128.566 160.457 128.33 160.591C128.097 160.722 127.914 160.912 127.78 161.161C127.649 161.41 127.583 161.711 127.583 162.065Z" fill="#121213"/>
<path d="M92.2242 175.139C92.1646 174.635 91.9226 174.244 91.4984 173.965C91.0741 173.687 90.5538 173.548 89.9373 173.548C89.4865 173.548 89.0921 173.621 88.7541 173.767C88.4193 173.912 88.1575 174.113 87.9686 174.368C87.7829 174.623 87.6901 174.913 87.6901 175.238C87.6901 175.51 87.7548 175.744 87.884 175.939C88.0166 176.131 88.1856 176.292 88.3911 176.421C88.5966 176.547 88.8121 176.652 89.0374 176.735C89.2628 176.814 89.47 176.879 89.6589 176.928L90.693 177.207C90.9581 177.276 91.2531 177.373 91.5779 177.495C91.9061 177.618 92.2193 177.785 92.5176 177.997C92.8192 178.206 93.0677 178.475 93.2633 178.803C93.4588 179.131 93.5566 179.534 93.5566 180.011C93.5566 180.561 93.4124 181.058 93.1241 181.502C92.8391 181.946 92.4214 182.299 91.8712 182.561C91.3244 182.823 90.6598 182.954 89.8776 182.954C89.1485 182.954 88.5171 182.836 87.9835 182.601C87.4532 182.366 87.0355 182.038 86.7306 181.617C86.429 181.196 86.2583 180.707 86.2186 180.15H87.4913C87.5244 180.534 87.6537 180.853 87.8791 181.105C88.1078 181.353 88.3961 181.539 88.7441 181.661C89.0954 181.781 89.4733 181.84 89.8776 181.84C90.3483 181.84 90.7709 181.764 91.1454 181.612C91.5199 181.456 91.8166 181.24 92.0353 180.965C92.2541 180.687 92.3634 180.362 92.3634 179.991C92.3634 179.653 92.269 179.378 92.0801 179.166C91.8911 178.954 91.6426 178.781 91.3343 178.649C91.0261 178.516 90.693 178.4 90.335 178.301L89.0822 177.943C88.2867 177.714 87.657 177.387 87.193 176.963C86.729 176.539 86.497 175.984 86.497 175.298C86.497 174.728 86.6511 174.231 86.9593 173.806C87.2709 173.379 87.6885 173.047 88.2122 172.812C88.7391 172.573 89.3275 172.454 89.9771 172.454C90.6333 172.454 91.2167 172.572 91.7271 172.807C92.2375 173.039 92.6418 173.357 92.9401 173.762C93.2418 174.166 93.4008 174.625 93.4174 175.139H92.2242ZM98.6264 182.934C97.8906 182.934 97.2559 182.772 96.7223 182.447C96.192 182.119 95.7826 181.661 95.4943 181.075C95.2093 180.485 95.0667 179.799 95.0667 179.017C95.0667 178.234 95.2093 177.545 95.4943 176.948C95.7826 176.348 96.1837 175.881 96.6974 175.546C97.2145 175.208 97.8177 175.039 98.5071 175.039C98.9048 175.039 99.2976 175.106 99.6853 175.238C100.073 175.371 100.426 175.586 100.744 175.884C101.062 176.179 101.316 176.57 101.505 177.058C101.694 177.545 101.788 178.145 101.788 178.857V179.355H95.902V178.34H100.595C100.595 177.909 100.509 177.525 100.337 177.187C100.168 176.849 99.9256 176.582 99.6108 176.387C99.2992 176.191 98.9313 176.093 98.5071 176.093C98.0398 176.093 97.6354 176.209 97.294 176.441C96.9559 176.67 96.6958 176.968 96.5135 177.336C96.3312 177.704 96.24 178.098 96.24 178.519V179.195C96.24 179.772 96.3395 180.261 96.5383 180.662C96.7405 181.06 97.0206 181.363 97.3785 181.572C97.7365 181.777 98.1524 181.88 98.6264 181.88C98.9346 181.88 99.213 181.837 99.4616 181.751C99.7135 181.661 99.9306 181.529 100.113 181.353C100.295 181.174 100.436 180.952 100.535 180.687L101.669 181.005C101.55 181.39 101.349 181.728 101.067 182.019C100.786 182.308 100.438 182.533 100.023 182.695C99.6091 182.855 99.1434 182.934 98.6264 182.934ZM104.746 172.593V182.775H103.573V172.593H104.746ZM110.097 182.934C109.361 182.934 108.727 182.772 108.193 182.447C107.663 182.119 107.253 181.661 106.965 181.075C106.68 180.485 106.537 179.799 106.537 179.017C106.537 178.234 106.68 177.545 106.965 176.948C107.253 176.348 107.654 175.881 108.168 175.546C108.685 175.208 109.288 175.039 109.978 175.039C110.376 175.039 110.768 175.106 111.156 175.238C111.544 175.371 111.897 175.586 112.215 175.884C112.533 176.179 112.787 176.57 112.976 177.058C113.165 177.545 113.259 178.145 113.259 178.857V179.355H107.373V178.34H112.066C112.066 177.909 111.98 177.525 111.807 177.187C111.638 176.849 111.396 176.582 111.081 176.387C110.77 176.191 110.402 176.093 109.978 176.093C109.51 176.093 109.106 176.209 108.765 176.441C108.427 176.67 108.166 176.968 107.984 177.336C107.802 177.704 107.711 178.098 107.711 178.519V179.195C107.711 179.772 107.81 180.261 108.009 180.662C108.211 181.06 108.491 181.363 108.849 181.572C109.207 181.777 109.623 181.88 110.097 181.88C110.405 181.88 110.684 181.837 110.932 181.751C111.184 181.661 111.401 181.529 111.584 181.353C111.766 181.174 111.907 180.952 112.006 180.687L113.14 181.005C113.02 181.39 112.82 181.728 112.538 182.019C112.256 182.308 111.908 182.533 111.494 182.695C111.08 182.855 110.614 182.934 110.097 182.934ZM118.146 182.934C117.43 182.934 116.814 182.765 116.297 182.427C115.78 182.089 115.382 181.623 115.103 181.03C114.825 180.437 114.686 179.759 114.686 178.997C114.686 178.221 114.828 177.537 115.113 176.943C115.402 176.347 115.803 175.881 116.317 175.546C116.834 175.208 117.437 175.039 118.126 175.039C118.663 175.039 119.147 175.139 119.578 175.338C120.009 175.536 120.362 175.815 120.637 176.173C120.912 176.531 121.083 176.948 121.149 177.426H119.976C119.886 177.078 119.687 176.769 119.379 176.501C119.074 176.229 118.663 176.093 118.146 176.093C117.689 176.093 117.288 176.213 116.943 176.451C116.602 176.686 116.335 177.02 116.143 177.45C115.954 177.878 115.859 178.38 115.859 178.957C115.859 179.547 115.952 180.061 116.138 180.498C116.327 180.936 116.592 181.275 116.933 181.517C117.278 181.759 117.682 181.88 118.146 181.88C118.451 181.88 118.728 181.827 118.976 181.721C119.225 181.615 119.435 181.463 119.608 181.264C119.78 181.065 119.903 180.826 119.976 180.548H121.149C121.083 180.999 120.919 181.405 120.657 181.766C120.398 182.124 120.055 182.409 119.628 182.621C119.203 182.83 118.71 182.934 118.146 182.934ZM126.185 175.139V176.133H122.228V175.139H126.185ZM123.381 173.309H124.554V180.588C124.554 180.919 124.603 181.168 124.699 181.333C124.798 181.496 124.924 181.605 125.077 181.661C125.232 181.714 125.396 181.741 125.569 181.741C125.698 181.741 125.804 181.734 125.887 181.721C125.97 181.704 126.036 181.691 126.086 181.681L126.324 182.735C126.245 182.765 126.134 182.795 125.991 182.825C125.849 182.858 125.668 182.874 125.449 182.874C125.118 182.874 124.793 182.803 124.475 182.661C124.16 182.518 123.898 182.301 123.689 182.009C123.484 181.718 123.381 181.35 123.381 180.906V173.309ZM133.061 172.593V182.775H131.888V172.593H133.061ZM137.457 182.954C136.973 182.954 136.534 182.863 136.14 182.681C135.745 182.495 135.432 182.228 135.2 181.88C134.968 181.529 134.852 181.105 134.852 180.607C134.852 180.17 134.938 179.815 135.11 179.543C135.283 179.268 135.513 179.053 135.801 178.897C136.09 178.741 136.408 178.625 136.756 178.549C137.107 178.47 137.46 178.407 137.815 178.36C138.279 178.301 138.655 178.256 138.944 178.226C139.235 178.193 139.447 178.138 139.58 178.062C139.716 177.986 139.784 177.853 139.784 177.664V177.624C139.784 177.134 139.649 176.753 139.381 176.481C139.116 176.209 138.713 176.073 138.173 176.073C137.613 176.073 137.174 176.196 136.855 176.441C136.537 176.686 136.314 176.948 136.184 177.227L135.071 176.829C135.27 176.365 135.535 176.004 135.866 175.745C136.201 175.483 136.565 175.301 136.96 175.198C137.358 175.092 137.749 175.039 138.133 175.039C138.378 175.039 138.66 175.069 138.978 175.129C139.3 175.185 139.61 175.303 139.908 175.482C140.21 175.661 140.46 175.931 140.659 176.292C140.858 176.653 140.957 177.137 140.957 177.744V182.775H139.784V181.741H139.724C139.645 181.907 139.512 182.084 139.326 182.273C139.141 182.462 138.894 182.623 138.586 182.755C138.277 182.888 137.901 182.954 137.457 182.954ZM137.636 181.9C138.1 181.9 138.491 181.809 138.809 181.627C139.131 181.444 139.373 181.209 139.535 180.921C139.701 180.632 139.784 180.329 139.784 180.011V178.937C139.734 178.997 139.625 179.051 139.456 179.101C139.29 179.147 139.098 179.189 138.879 179.225C138.663 179.258 138.453 179.288 138.247 179.315C138.045 179.338 137.881 179.358 137.755 179.374C137.45 179.414 137.165 179.479 136.9 179.568C136.638 179.655 136.426 179.785 136.264 179.961C136.105 180.133 136.025 180.369 136.025 180.667C136.025 181.075 136.176 181.383 136.478 181.592C136.783 181.797 137.169 181.9 137.636 181.9ZM144.272 178.181V182.775H143.099V175.139H144.232V176.332H144.331C144.51 175.944 144.782 175.633 145.147 175.397C145.511 175.159 145.982 175.039 146.559 175.039C147.076 175.039 147.528 175.145 147.916 175.357C148.304 175.566 148.605 175.884 148.821 176.312C149.036 176.736 149.144 177.273 149.144 177.923V182.775H147.971V178.002C147.971 177.402 147.815 176.935 147.503 176.6C147.192 176.262 146.764 176.093 146.221 176.093C145.846 176.093 145.511 176.174 145.216 176.337C144.925 176.499 144.694 176.736 144.525 177.048C144.356 177.359 144.272 177.737 144.272 178.181ZM154.37 185.798C153.804 185.798 153.316 185.725 152.909 185.579C152.501 185.436 152.161 185.248 151.89 185.012C151.621 184.78 151.407 184.532 151.248 184.267L152.183 183.61C152.289 183.749 152.423 183.909 152.586 184.088C152.748 184.27 152.97 184.427 153.252 184.56C153.537 184.696 153.91 184.764 154.37 184.764C154.987 184.764 155.496 184.615 155.897 184.316C156.298 184.018 156.498 183.551 156.498 182.914V181.363H156.399C156.313 181.502 156.19 181.675 156.031 181.88C155.875 182.082 155.65 182.263 155.355 182.422C155.063 182.578 154.669 182.656 154.171 182.656C153.555 182.656 153.002 182.51 152.511 182.218C152.024 181.927 151.638 181.502 151.353 180.945C151.071 180.389 150.93 179.713 150.93 178.917C150.93 178.135 151.068 177.454 151.343 176.874C151.618 176.29 152.001 175.84 152.491 175.521C152.982 175.2 153.548 175.039 154.191 175.039C154.689 175.039 155.083 175.122 155.375 175.288C155.67 175.45 155.895 175.636 156.051 175.845C156.21 176.05 156.332 176.219 156.419 176.352H156.538V175.139H157.671V182.994C157.671 183.65 157.522 184.184 157.224 184.595C156.929 185.009 156.531 185.312 156.031 185.504C155.534 185.7 154.98 185.798 154.37 185.798ZM154.331 181.602C154.801 181.602 155.199 181.494 155.524 181.279C155.849 181.063 156.096 180.753 156.265 180.349C156.434 179.945 156.518 179.461 156.518 178.897C156.518 178.347 156.435 177.861 156.27 177.441C156.104 177.02 155.859 176.69 155.534 176.451C155.209 176.213 154.808 176.093 154.331 176.093C153.833 176.093 153.419 176.219 153.088 176.471C152.76 176.723 152.513 177.061 152.347 177.485C152.185 177.909 152.103 178.38 152.103 178.897C152.103 179.427 152.186 179.896 152.352 180.304C152.521 180.708 152.77 181.027 153.098 181.259C153.429 181.487 153.84 181.602 154.331 181.602ZM164.632 179.653V175.139H165.805V182.775H164.632V181.482H164.552C164.373 181.87 164.095 182.2 163.717 182.472C163.339 182.74 162.862 182.874 162.285 182.874C161.808 182.874 161.384 182.77 161.012 182.561C160.641 182.349 160.35 182.031 160.137 181.607C159.925 181.179 159.819 180.641 159.819 179.991V175.139H160.993V179.911C160.993 180.468 161.148 180.912 161.46 181.244C161.775 181.575 162.176 181.741 162.663 181.741C162.955 181.741 163.251 181.666 163.553 181.517C163.858 181.368 164.113 181.139 164.319 180.831C164.527 180.523 164.632 180.13 164.632 179.653ZM170.201 182.954C169.717 182.954 169.278 182.863 168.884 182.681C168.489 182.495 168.176 182.228 167.944 181.88C167.712 181.529 167.596 181.105 167.596 180.607C167.596 180.17 167.682 179.815 167.855 179.543C168.027 179.268 168.257 179.053 168.546 178.897C168.834 178.741 169.152 178.625 169.5 178.549C169.851 178.47 170.204 178.407 170.559 178.36C171.023 178.301 171.399 178.256 171.688 178.226C171.979 178.193 172.191 178.138 172.324 178.062C172.46 177.986 172.528 177.853 172.528 177.664V177.624C172.528 177.134 172.394 176.753 172.125 176.481C171.86 176.209 171.457 176.073 170.917 176.073C170.357 176.073 169.918 176.196 169.6 176.441C169.281 176.686 169.058 176.948 168.928 177.227L167.815 176.829C168.014 176.365 168.279 176.004 168.61 175.745C168.945 175.483 169.31 175.301 169.704 175.198C170.102 175.092 170.493 175.039 170.877 175.039C171.123 175.039 171.404 175.069 171.722 175.129C172.044 175.185 172.354 175.303 172.652 175.482C172.954 175.661 173.204 175.931 173.403 176.292C173.602 176.653 173.701 177.137 173.701 177.744V182.775H172.528V181.741H172.468C172.389 181.907 172.256 182.084 172.07 182.273C171.885 182.462 171.638 182.623 171.33 182.755C171.021 182.888 170.645 182.954 170.201 182.954ZM170.38 181.9C170.844 181.9 171.235 181.809 171.553 181.627C171.875 181.444 172.117 181.209 172.279 180.921C172.445 180.632 172.528 180.329 172.528 180.011V178.937C172.478 178.997 172.369 179.051 172.2 179.101C172.034 179.147 171.842 179.189 171.623 179.225C171.408 179.258 171.197 179.288 170.992 179.315C170.789 179.338 170.625 179.358 170.499 179.374C170.195 179.414 169.909 179.479 169.644 179.568C169.382 179.655 169.17 179.785 169.008 179.961C168.849 180.133 168.769 180.369 168.769 180.667C168.769 181.075 168.92 181.383 169.222 181.592C169.527 181.797 169.913 181.9 170.38 181.9ZM178.925 185.798C178.358 185.798 177.871 185.725 177.463 185.579C177.056 185.436 176.716 185.248 176.444 185.012C176.176 184.78 175.962 184.532 175.803 184.267L176.738 183.61C176.844 183.749 176.978 183.909 177.14 184.088C177.303 184.27 177.525 184.427 177.806 184.56C178.091 184.696 178.464 184.764 178.925 184.764C179.542 184.764 180.05 184.615 180.451 184.316C180.852 184.018 181.053 183.551 181.053 182.914V181.363H180.953C180.867 181.502 180.745 181.675 180.586 181.88C180.43 182.082 180.204 182.263 179.909 182.422C179.618 182.578 179.223 182.656 178.726 182.656C178.11 182.656 177.556 182.51 177.066 182.218C176.578 181.927 176.192 181.502 175.907 180.945C175.626 180.389 175.485 179.713 175.485 178.917C175.485 178.135 175.622 177.454 175.897 176.874C176.172 176.29 176.555 175.84 177.046 175.521C177.536 175.2 178.103 175.039 178.746 175.039C179.243 175.039 179.638 175.122 179.929 175.288C180.224 175.45 180.45 175.636 180.605 175.845C180.765 176.05 180.887 176.219 180.973 176.352H181.093V175.139H182.226V182.994C182.226 183.65 182.077 184.184 181.779 184.595C181.484 185.009 181.086 185.312 180.586 185.504C180.088 185.7 179.535 185.798 178.925 185.798ZM178.885 181.602C179.356 181.602 179.754 181.494 180.078 181.279C180.403 181.063 180.65 180.753 180.819 180.349C180.988 179.945 181.073 179.461 181.073 178.897C181.073 178.347 180.99 177.861 180.824 177.441C180.658 177.02 180.413 176.69 180.088 176.451C179.764 176.213 179.363 176.093 178.885 176.093C178.388 176.093 177.974 176.219 177.642 176.471C177.314 176.723 177.067 177.061 176.902 177.485C176.739 177.909 176.658 178.38 176.658 178.897C176.658 179.427 176.741 179.896 176.907 180.304C177.076 180.708 177.324 181.027 177.652 181.259C177.984 181.487 178.395 181.602 178.885 181.602ZM187.576 182.934C186.84 182.934 186.205 182.772 185.671 182.447C185.141 182.119 184.732 181.661 184.444 181.075C184.158 180.485 184.016 179.799 184.016 179.017C184.016 178.234 184.158 177.545 184.444 176.948C184.732 176.348 185.133 175.881 185.647 175.546C186.164 175.208 186.767 175.039 187.456 175.039C187.854 175.039 188.247 175.106 188.635 175.238C189.022 175.371 189.375 175.586 189.694 175.884C190.012 176.179 190.265 176.57 190.454 177.058C190.643 177.545 190.738 178.145 190.738 178.857V179.355H184.851V178.34H189.544C189.544 177.909 189.458 177.525 189.286 177.187C189.117 176.849 188.875 176.582 188.56 176.387C188.248 176.191 187.881 176.093 187.456 176.093C186.989 176.093 186.585 176.209 186.243 176.441C185.905 176.67 185.645 176.968 185.463 177.336C185.28 177.704 185.189 178.098 185.189 178.519V179.195C185.189 179.772 185.289 180.261 185.488 180.662C185.69 181.06 185.97 181.363 186.328 181.572C186.686 181.777 187.102 181.88 187.576 181.88C187.884 181.88 188.162 181.837 188.411 181.751C188.663 181.661 188.88 181.529 189.062 181.353C189.244 181.174 189.385 180.952 189.485 180.687L190.618 181.005C190.499 181.39 190.298 181.728 190.017 182.019C189.735 182.308 189.387 182.533 188.973 182.695C188.558 182.855 188.093 182.934 187.576 182.934Z" fill="#A8A8B5"/>
<rect x="23.9692" y="145.575" width="48.0874" height="47.9971" rx="10.6667" fill="#2989DB"/>
<path d="M47.8977 153.69C39.7757 153.69 40.2828 157.206 40.2828 157.206L40.2918 160.848H48.0425V161.941H37.2134C37.2134 161.941 32.0161 161.353 32.0161 169.533C32.0161 177.713 36.5524 177.423 36.5524 177.423H39.2597V173.627C39.2597 173.627 39.1137 169.099 43.7236 169.099H51.4109C51.4109 169.099 55.7298 169.169 55.7298 164.933V157.929C55.7298 157.929 56.3858 153.69 47.8977 153.69ZM43.624 156.139C43.8071 156.139 43.9885 156.175 44.1578 156.245C44.327 156.315 44.4808 156.417 44.6103 156.547C44.7398 156.676 44.8425 156.829 44.9125 156.998C44.9825 157.167 45.0185 157.348 45.0183 157.531C45.0185 157.714 44.9825 157.895 44.9125 158.064C44.8425 158.233 44.7398 158.386 44.6103 158.516C44.4808 158.645 44.327 158.747 44.1578 158.817C43.9885 158.887 43.8071 158.923 43.624 158.923C43.4408 158.923 43.2594 158.887 43.0902 158.817C42.9209 158.747 42.7672 158.645 42.6377 158.516C42.5082 158.386 42.4055 158.233 42.3354 158.064C42.2654 157.895 42.2295 157.714 42.2296 157.531C42.2295 157.348 42.2654 157.167 42.3354 156.998C42.4055 156.829 42.5082 156.676 42.6377 156.547C42.7672 156.417 42.9209 156.315 43.0902 156.245C43.2594 156.175 43.4408 156.139 43.624 156.139Z" fill="white"/>
<path d="M48.1284 185.458C56.2504 185.458 55.7433 181.942 55.7433 181.942L55.7343 178.3H47.9835V177.206H58.8126C58.8126 177.206 64.0099 177.795 64.0099 169.615C64.0099 161.435 59.4736 161.725 59.4736 161.725H56.7663V165.521C56.7663 165.521 56.9123 170.049 52.3024 170.049H44.6151C44.6151 170.049 40.2962 169.979 40.2962 174.215V181.219C40.2962 181.219 39.6403 185.458 48.1283 185.458H48.1284ZM52.4021 183.009C52.219 183.009 52.0376 182.973 51.8684 182.903C51.6991 182.833 51.5453 182.731 51.4158 182.601C51.2863 182.472 51.1836 182.319 51.1136 182.15C51.0436 181.981 51.0076 181.8 51.0078 181.617C51.0076 181.434 51.0436 181.253 51.1136 181.084C51.1836 180.915 51.2863 180.762 51.4158 180.632C51.5453 180.503 51.6991 180.4 51.8683 180.331C52.0376 180.261 52.219 180.225 52.4021 180.225C52.5853 180.225 52.7667 180.261 52.9359 180.331C53.1052 180.4 53.259 180.503 53.3885 180.632C53.518 180.761 53.6207 180.915 53.6907 181.084C53.7607 181.253 53.7967 181.434 53.7965 181.617C53.7967 181.799 53.7607 181.981 53.6907 182.149C53.6207 182.318 53.518 182.472 53.3885 182.601C53.259 182.73 53.1052 182.833 52.9359 182.903C52.7667 182.973 52.5853 183.009 52.4021 183.008V183.009Z" fill="white"/>
<path d="M86.3901 228.294V218.491H90.0664C90.8196 218.491 91.4514 218.622 91.962 218.883C92.4758 219.145 92.8636 219.512 93.1253 219.984C93.3901 220.453 93.5226 221.001 93.5226 221.626C93.5226 222.255 93.3886 222.801 93.1205 223.263C92.8556 223.723 92.4647 224.079 91.9477 224.331C91.4307 224.58 90.7956 224.704 90.0425 224.704H87.424V223.23H89.8031C90.2435 223.23 90.6042 223.169 90.885 223.048C91.1658 222.923 91.3733 222.743 91.5073 222.507C91.6445 222.268 91.7131 221.974 91.7131 221.626C91.7131 221.278 91.6445 220.981 91.5073 220.736C91.3701 220.487 91.161 220.299 90.8802 220.171C90.5994 220.04 90.2372 219.975 89.7936 219.975H88.166V228.294H86.3901ZM91.4546 223.852L93.8816 228.294H91.8998L89.5159 223.852H91.4546ZM100.037 225.202V220.942H101.77V228.294H100.089V226.987H100.013C99.8469 227.399 99.574 227.736 99.1942 227.998C98.8177 228.259 98.3533 228.39 97.8012 228.39C97.3194 228.39 96.8933 228.283 96.5231 228.069C96.1561 227.852 95.8689 227.538 95.6615 227.126C95.454 226.711 95.3503 226.21 95.3503 225.623V220.942H97.0832V225.355C97.0832 225.821 97.2109 226.191 97.4662 226.466C97.7215 226.74 98.0565 226.877 98.4714 226.877C98.7267 226.877 98.974 226.815 99.2134 226.691C99.4527 226.566 99.649 226.381 99.8022 226.135C99.9586 225.886 100.037 225.575 100.037 225.202ZM103.898 228.294V218.491H105.631V222.157H105.702C105.792 221.979 105.918 221.789 106.081 221.588C106.243 221.384 106.464 221.21 106.741 221.066C107.019 220.919 107.373 220.846 107.804 220.846C108.372 220.846 108.884 220.991 109.34 221.281C109.8 221.569 110.164 221.995 110.432 222.56C110.703 223.121 110.839 223.811 110.839 224.628C110.839 225.435 110.706 226.121 110.441 226.686C110.177 227.251 109.816 227.682 109.36 227.978C108.903 228.275 108.386 228.424 107.809 228.424C107.387 228.424 107.038 228.353 106.76 228.213C106.483 228.073 106.259 227.903 106.09 227.706C105.924 227.504 105.795 227.315 105.702 227.136H105.602V228.294H103.898ZM105.597 224.618C105.597 225.093 105.664 225.51 105.798 225.867C105.935 226.225 106.132 226.504 106.387 226.705C106.645 226.903 106.958 227.002 107.325 227.002C107.708 227.002 108.029 226.9 108.287 226.695C108.546 226.488 108.741 226.206 108.871 225.848C109.005 225.488 109.072 225.077 109.072 224.618C109.072 224.162 109.007 223.756 108.876 223.402C108.745 223.048 108.551 222.77 108.292 222.569C108.034 222.368 107.711 222.268 107.325 222.268C106.955 222.268 106.641 222.365 106.382 222.56C106.124 222.754 105.927 223.027 105.793 223.378C105.663 223.729 105.597 224.142 105.597 224.618ZM113.409 231.052C113.172 231.052 112.954 231.032 112.753 230.994C112.555 230.959 112.397 230.918 112.279 230.87L112.681 229.52C112.933 229.593 113.158 229.628 113.356 229.625C113.554 229.622 113.728 229.56 113.878 229.438C114.031 229.32 114.16 229.122 114.265 228.845L114.414 228.447L111.747 220.942H113.586L115.28 226.494H115.357L117.056 220.942H118.899L115.955 229.185C115.818 229.574 115.636 229.908 115.409 230.185C115.183 230.466 114.905 230.68 114.577 230.827C114.251 230.977 113.862 231.052 113.409 231.052Z" fill="#121213"/>
<path d="M92.2242 237.059C92.1646 236.556 91.9226 236.164 91.4984 235.886C91.0741 235.608 90.5538 235.468 89.9373 235.468C89.4865 235.468 89.0921 235.541 88.7541 235.687C88.4193 235.833 88.1575 236.034 87.9686 236.289C87.7829 236.544 87.6901 236.834 87.6901 237.159C87.6901 237.431 87.7548 237.664 87.884 237.86C88.0166 238.052 88.1856 238.213 88.3911 238.342C88.5966 238.468 88.8121 238.572 89.0374 238.655C89.2628 238.735 89.47 238.799 89.6589 238.849L90.693 239.127C90.9581 239.197 91.2531 239.293 91.5779 239.416C91.9061 239.538 92.2193 239.706 92.5176 239.918C92.8192 240.127 93.0677 240.395 93.2633 240.723C93.4588 241.052 93.5566 241.454 93.5566 241.931C93.5566 242.482 93.4124 242.979 93.1241 243.423C92.8391 243.867 92.4214 244.22 91.8712 244.482C91.3244 244.744 90.6598 244.875 89.8776 244.875C89.1485 244.875 88.5171 244.757 87.9835 244.522C87.4532 244.286 87.0355 243.958 86.7306 243.537C86.429 243.116 86.2583 242.627 86.2186 242.071H87.4913C87.5244 242.455 87.6537 242.773 87.8791 243.025C88.1078 243.274 88.3961 243.459 88.7441 243.582C89.0954 243.701 89.4733 243.761 89.8776 243.761C90.3483 243.761 90.7709 243.685 91.1454 243.532C91.5199 243.377 91.8166 243.161 92.0353 242.886C92.2541 242.608 92.3634 242.283 92.3634 241.912C92.3634 241.574 92.269 241.298 92.0801 241.086C91.8911 240.874 91.6426 240.702 91.3343 240.569C91.0261 240.437 90.693 240.321 90.335 240.221L89.0822 239.863C88.2867 239.635 87.657 239.308 87.193 238.884C86.729 238.46 86.497 237.904 86.497 237.218C86.497 236.648 86.6511 236.151 86.9593 235.727C87.2709 235.299 87.6885 234.968 88.2122 234.733C88.7391 234.494 89.3275 234.375 89.9771 234.375C90.6333 234.375 91.2167 234.492 91.7271 234.728C92.2375 234.96 92.6418 235.278 92.9401 235.682C93.2418 236.087 93.4008 236.546 93.4174 237.059H92.2242ZM98.6264 244.855C97.8906 244.855 97.2559 244.692 96.7223 244.368C96.192 244.039 95.7826 243.582 95.4943 242.995C95.2093 242.405 95.0667 241.719 95.0667 240.937C95.0667 240.155 95.2093 239.466 95.4943 238.869C95.7826 238.269 96.1837 237.802 96.6974 237.467C97.2145 237.129 97.8177 236.96 98.5071 236.96C98.9048 236.96 99.2976 237.026 99.6853 237.159C100.073 237.291 100.426 237.507 100.744 237.805C101.062 238.1 101.316 238.491 101.505 238.978C101.694 239.466 101.788 240.065 101.788 240.778V241.275H95.902V240.261H100.595C100.595 239.83 100.509 239.446 100.337 239.108C100.168 238.77 99.9256 238.503 99.6108 238.307C99.2992 238.112 98.9313 238.014 98.5071 238.014C98.0398 238.014 97.6354 238.13 97.294 238.362C96.9559 238.591 96.6958 238.889 96.5135 239.257C96.3312 239.625 96.24 240.019 96.24 240.44V241.116C96.24 241.693 96.3395 242.182 96.5383 242.583C96.7405 242.98 97.0206 243.284 97.3785 243.493C97.7365 243.698 98.1524 243.801 98.6264 243.801C98.9346 243.801 99.213 243.758 99.4616 243.672C99.7135 243.582 99.9306 243.449 100.113 243.274C100.295 243.095 100.436 242.873 100.535 242.608L101.669 242.926C101.55 243.31 101.349 243.648 101.067 243.94C100.786 244.228 100.438 244.454 100.023 244.616C99.6091 244.775 99.1434 244.855 98.6264 244.855ZM104.746 234.514V244.696H103.573V234.514H104.746ZM110.097 244.855C109.361 244.855 108.727 244.692 108.193 244.368C107.663 244.039 107.253 243.582 106.965 242.995C106.68 242.405 106.537 241.719 106.537 240.937C106.537 240.155 106.68 239.466 106.965 238.869C107.253 238.269 107.654 237.802 108.168 237.467C108.685 237.129 109.288 236.96 109.978 236.96C110.376 236.96 110.768 237.026 111.156 237.159C111.544 237.291 111.897 237.507 112.215 237.805C112.533 238.1 112.787 238.491 112.976 238.978C113.165 239.466 113.259 240.065 113.259 240.778V241.275H107.373V240.261H112.066C112.066 239.83 111.98 239.446 111.807 239.108C111.638 238.77 111.396 238.503 111.081 238.307C110.77 238.112 110.402 238.014 109.978 238.014C109.51 238.014 109.106 238.13 108.765 238.362C108.427 238.591 108.166 238.889 107.984 239.257C107.802 239.625 107.711 240.019 107.711 240.44V241.116C107.711 241.693 107.81 242.182 108.009 242.583C108.211 242.98 108.491 243.284 108.849 243.493C109.207 243.698 109.623 243.801 110.097 243.801C110.405 243.801 110.684 243.758 110.932 243.672C111.184 243.582 111.401 243.449 111.584 243.274C111.766 243.095 111.907 242.873 112.006 242.608L113.14 242.926C113.02 243.31 112.82 243.648 112.538 243.94C112.256 244.228 111.908 244.454 111.494 244.616C111.08 244.775 110.614 244.855 110.097 244.855ZM118.146 244.855C117.43 244.855 116.814 244.686 116.297 244.348C115.78 244.01 115.382 243.544 115.103 242.951C114.825 242.357 114.686 241.68 114.686 240.917C114.686 240.142 114.828 239.457 115.113 238.864C115.402 238.267 115.803 237.802 116.317 237.467C116.834 237.129 117.437 236.96 118.126 236.96C118.663 236.96 119.147 237.059 119.578 237.258C120.009 237.457 120.362 237.735 120.637 238.093C120.912 238.451 121.083 238.869 121.149 239.346H119.976C119.886 238.998 119.687 238.69 119.379 238.422C119.074 238.15 118.663 238.014 118.146 238.014C117.689 238.014 117.288 238.133 116.943 238.372C116.602 238.607 116.335 238.94 116.143 239.371C115.954 239.799 115.859 240.301 115.859 240.877C115.859 241.467 115.952 241.981 116.138 242.419C116.327 242.856 116.592 243.196 116.933 243.438C117.278 243.68 117.682 243.801 118.146 243.801C118.451 243.801 118.728 243.748 118.976 243.642C119.225 243.536 119.435 243.383 119.608 243.184C119.78 242.985 119.903 242.747 119.976 242.468H121.149C121.083 242.919 120.919 243.325 120.657 243.686C120.398 244.044 120.055 244.329 119.628 244.542C119.203 244.75 118.71 244.855 118.146 244.855ZM126.185 237.059V238.054H122.228V237.059H126.185ZM123.381 235.23H124.554V242.508C124.554 242.84 124.603 243.088 124.699 243.254C124.798 243.416 124.924 243.526 125.077 243.582C125.232 243.635 125.396 243.662 125.569 243.662C125.698 243.662 125.804 243.655 125.887 243.642C125.97 243.625 126.036 243.612 126.086 243.602L126.324 244.656C126.245 244.686 126.134 244.716 125.991 244.745C125.849 244.779 125.668 244.795 125.449 244.795C125.118 244.795 124.793 244.724 124.475 244.581C124.16 244.439 123.898 244.222 123.689 243.93C123.484 243.638 123.381 243.27 123.381 242.826V235.23ZM133.061 234.514V244.696H131.888V234.514H133.061ZM137.457 244.875C136.973 244.875 136.534 244.784 136.14 244.601C135.745 244.416 135.432 244.149 135.2 243.801C134.968 243.449 134.852 243.025 134.852 242.528C134.852 242.091 134.938 241.736 135.11 241.464C135.283 241.189 135.513 240.974 135.801 240.818C136.09 240.662 136.408 240.546 136.756 240.47C137.107 240.39 137.46 240.327 137.815 240.281C138.279 240.221 138.655 240.177 138.944 240.147C139.235 240.114 139.447 240.059 139.58 239.983C139.716 239.906 139.784 239.774 139.784 239.585V239.545C139.784 239.055 139.649 238.673 139.381 238.402C139.116 238.13 138.713 237.994 138.173 237.994C137.613 237.994 137.174 238.117 136.855 238.362C136.537 238.607 136.314 238.869 136.184 239.147L135.071 238.75C135.27 238.286 135.535 237.924 135.866 237.666C136.201 237.404 136.565 237.222 136.96 237.119C137.358 237.013 137.749 236.96 138.133 236.96C138.378 236.96 138.66 236.99 138.978 237.049C139.3 237.106 139.61 237.223 139.908 237.402C140.21 237.581 140.46 237.851 140.659 238.213C140.858 238.574 140.957 239.058 140.957 239.664V244.696H139.784V243.662H139.724C139.645 243.827 139.512 244.005 139.326 244.194C139.141 244.382 138.894 244.543 138.586 244.676C138.277 244.808 137.901 244.875 137.457 244.875ZM137.636 243.821C138.1 243.821 138.491 243.73 138.809 243.547C139.131 243.365 139.373 243.13 139.535 242.841C139.701 242.553 139.784 242.25 139.784 241.931V240.858C139.734 240.917 139.625 240.972 139.456 241.022C139.29 241.068 139.098 241.11 138.879 241.146C138.663 241.179 138.453 241.209 138.247 241.235C138.045 241.259 137.881 241.279 137.755 241.295C137.45 241.335 137.165 241.4 136.9 241.489C136.638 241.575 136.426 241.706 136.264 241.882C136.105 242.054 136.025 242.289 136.025 242.588C136.025 242.995 136.176 243.304 136.478 243.512C136.783 243.718 137.169 243.821 137.636 243.821ZM144.272 240.102V244.696H143.099V237.059H144.232V238.252H144.331C144.51 237.865 144.782 237.553 145.147 237.318C145.511 237.079 145.982 236.96 146.559 236.96C147.076 236.96 147.528 237.066 147.916 237.278C148.304 237.487 148.605 237.805 148.821 238.233C149.036 238.657 149.144 239.194 149.144 239.843V244.696H147.971V239.923C147.971 239.323 147.815 238.856 147.503 238.521C147.192 238.183 146.764 238.014 146.221 238.014C145.846 238.014 145.511 238.095 145.216 238.257C144.925 238.42 144.694 238.657 144.525 238.968C144.356 239.28 144.272 239.658 144.272 240.102ZM154.37 247.718C153.804 247.718 153.316 247.645 152.909 247.5C152.501 247.357 152.161 247.168 151.89 246.933C151.621 246.701 151.407 246.452 151.248 246.187L152.183 245.531C152.289 245.67 152.423 245.829 152.586 246.008C152.748 246.19 152.97 246.348 153.252 246.48C153.537 246.616 153.91 246.684 154.37 246.684C154.987 246.684 155.496 246.535 155.897 246.237C156.298 245.939 156.498 245.471 156.498 244.835V243.284H156.399C156.313 243.423 156.19 243.595 156.031 243.801C155.875 244.003 155.65 244.184 155.355 244.343C155.063 244.498 154.669 244.576 154.171 244.576C153.555 244.576 153.002 244.431 152.511 244.139C152.024 243.847 151.638 243.423 151.353 242.866C151.071 242.309 150.93 241.633 150.93 240.838C150.93 240.056 151.068 239.374 151.343 238.794C151.618 238.211 152.001 237.76 152.491 237.442C152.982 237.121 153.548 236.96 154.191 236.96C154.689 236.96 155.083 237.043 155.375 237.208C155.67 237.371 155.895 237.556 156.051 237.765C156.21 237.971 156.332 238.14 156.419 238.272H156.538V237.059H157.671V244.914C157.671 245.571 157.522 246.104 157.224 246.515C156.929 246.93 156.531 247.233 156.031 247.425C155.534 247.621 154.98 247.718 154.37 247.718ZM154.331 243.522C154.801 243.522 155.199 243.415 155.524 243.199C155.849 242.984 156.096 242.674 156.265 242.27C156.434 241.865 156.518 241.381 156.518 240.818C156.518 240.268 156.435 239.782 156.27 239.361C156.104 238.94 155.859 238.61 155.534 238.372C155.209 238.133 154.808 238.014 154.331 238.014C153.833 238.014 153.419 238.14 153.088 238.392C152.76 238.644 152.513 238.982 152.347 239.406C152.185 239.83 152.103 240.301 152.103 240.818C152.103 241.348 152.186 241.817 152.352 242.225C152.521 242.629 152.77 242.947 153.098 243.179C153.429 243.408 153.84 243.522 154.331 243.522ZM164.632 241.574V237.059H165.805V244.696H164.632V243.403H164.552C164.373 243.791 164.095 244.121 163.717 244.392C163.339 244.661 162.862 244.795 162.285 244.795C161.808 244.795 161.384 244.691 161.012 244.482C160.641 244.27 160.35 243.952 160.137 243.527C159.925 243.1 159.819 242.561 159.819 241.912V237.059H160.993V241.832C160.993 242.389 161.148 242.833 161.46 243.164C161.775 243.496 162.176 243.662 162.663 243.662C162.955 243.662 163.251 243.587 163.553 243.438C163.858 243.289 164.113 243.06 164.319 242.752C164.527 242.444 164.632 242.051 164.632 241.574ZM170.201 244.875C169.717 244.875 169.278 244.784 168.884 244.601C168.489 244.416 168.176 244.149 167.944 243.801C167.712 243.449 167.596 243.025 167.596 242.528C167.596 242.091 167.682 241.736 167.855 241.464C168.027 241.189 168.257 240.974 168.546 240.818C168.834 240.662 169.152 240.546 169.5 240.47C169.851 240.39 170.204 240.327 170.559 240.281C171.023 240.221 171.399 240.177 171.688 240.147C171.979 240.114 172.191 240.059 172.324 239.983C172.46 239.906 172.528 239.774 172.528 239.585V239.545C172.528 239.055 172.394 238.673 172.125 238.402C171.86 238.13 171.457 237.994 170.917 237.994C170.357 237.994 169.918 238.117 169.6 238.362C169.281 238.607 169.058 238.869 168.928 239.147L167.815 238.75C168.014 238.286 168.279 237.924 168.61 237.666C168.945 237.404 169.31 237.222 169.704 237.119C170.102 237.013 170.493 236.96 170.877 236.96C171.123 236.96 171.404 236.99 171.722 237.049C172.044 237.106 172.354 237.223 172.652 237.402C172.954 237.581 173.204 237.851 173.403 238.213C173.602 238.574 173.701 239.058 173.701 239.664V244.696H172.528V243.662H172.468C172.389 243.827 172.256 244.005 172.07 244.194C171.885 244.382 171.638 244.543 171.33 244.676C171.021 244.808 170.645 244.875 170.201 244.875ZM170.38 243.821C170.844 243.821 171.235 243.73 171.553 243.547C171.875 243.365 172.117 243.13 172.279 242.841C172.445 242.553 172.528 242.25 172.528 241.931V240.858C172.478 240.917 172.369 240.972 172.2 241.022C172.034 241.068 171.842 241.11 171.623 241.146C171.408 241.179 171.197 241.209 170.992 241.235C170.789 241.259 170.625 241.279 170.499 241.295C170.195 241.335 169.909 241.4 169.644 241.489C169.382 241.575 169.17 241.706 169.008 241.882C168.849 242.054 168.769 242.289 168.769 242.588C168.769 242.995 168.92 243.304 169.222 243.512C169.527 243.718 169.913 243.821 170.38 243.821ZM178.925 247.718C178.358 247.718 177.871 247.645 177.463 247.5C177.056 247.357 176.716 247.168 176.444 246.933C176.176 246.701 175.962 246.452 175.803 246.187L176.738 245.531C176.844 245.67 176.978 245.829 177.14 246.008C177.303 246.19 177.525 246.348 177.806 246.48C178.091 246.616 178.464 246.684 178.925 246.684C179.542 246.684 180.05 246.535 180.451 246.237C180.852 245.939 181.053 245.471 181.053 244.835V243.284H180.953C180.867 243.423 180.745 243.595 180.586 243.801C180.43 244.003 180.204 244.184 179.909 244.343C179.618 244.498 179.223 244.576 178.726 244.576C178.11 244.576 177.556 244.431 177.066 244.139C176.578 243.847 176.192 243.423 175.907 242.866C175.626 242.309 175.485 241.633 175.485 240.838C175.485 240.056 175.622 239.374 175.897 238.794C176.172 238.211 176.555 237.76 177.046 237.442C177.536 237.121 178.103 236.96 178.746 236.96C179.243 236.96 179.638 237.043 179.929 237.208C180.224 237.371 180.45 237.556 180.605 237.765C180.765 237.971 180.887 238.14 180.973 238.272H181.093V237.059H182.226V244.914C182.226 245.571 182.077 246.104 181.779 246.515C181.484 246.93 181.086 247.233 180.586 247.425C180.088 247.621 179.535 247.718 178.925 247.718ZM178.885 243.522C179.356 243.522 179.754 243.415 180.078 243.199C180.403 242.984 180.65 242.674 180.819 242.27C180.988 241.865 181.073 241.381 181.073 240.818C181.073 240.268 180.99 239.782 180.824 239.361C180.658 238.94 180.413 238.61 180.088 238.372C179.764 238.133 179.363 238.014 178.885 238.014C178.388 238.014 177.974 238.14 177.642 238.392C177.314 238.644 177.067 238.982 176.902 239.406C176.739 239.83 176.658 240.301 176.658 240.818C176.658 241.348 176.741 241.817 176.907 242.225C177.076 242.629 177.324 242.947 177.652 243.179C177.984 243.408 178.395 243.522 178.885 243.522ZM187.576 244.855C186.84 244.855 186.205 244.692 185.671 244.368C185.141 244.039 184.732 243.582 184.444 242.995C184.158 242.405 184.016 241.719 184.016 240.937C184.016 240.155 184.158 239.466 184.444 238.869C184.732 238.269 185.133 237.802 185.647 237.467C186.164 237.129 186.767 236.96 187.456 236.96C187.854 236.96 188.247 237.026 188.635 237.159C189.022 237.291 189.375 237.507 189.694 237.805C190.012 238.1 190.265 238.491 190.454 238.978C190.643 239.466 190.738 240.065 190.738 240.778V241.275H184.851V240.261H189.544C189.544 239.83 189.458 239.446 189.286 239.108C189.117 238.77 188.875 238.503 188.56 238.307C188.248 238.112 187.881 238.014 187.456 238.014C186.989 238.014 186.585 238.13 186.243 238.362C185.905 238.591 185.645 238.889 185.463 239.257C185.28 239.625 185.189 240.019 185.189 240.44V241.116C185.189 241.693 185.289 242.182 185.488 242.583C185.69 242.98 185.97 243.284 186.328 243.493C186.686 243.698 187.102 243.801 187.576 243.801C187.884 243.801 188.162 243.758 188.411 243.672C188.663 243.582 188.88 243.449 189.062 243.274C189.244 243.095 189.385 242.873 189.485 242.608L190.618 242.926C190.499 243.31 190.298 243.648 190.017 243.94C189.735 244.228 189.387 244.454 188.973 244.616C188.558 244.775 188.093 244.855 187.576 244.855Z" fill="#A8A8B5"/>
<rect x="23.9692" y="207.572" width="48.0874" height="47.9971" rx="10.6667" fill="#E01425"/>
<path d="M34.5283 245.043V231.563L48.0332 218.083H61.5389V245.043H34.5283Z" fill="#FED0D4"/>
<path d="M54.855 225.044L61.5383 218.373V245.057L54.855 225.044Z" fill="#FF818D"/>
<path d="M34.5278 245.058L41.2112 238.386L34.5278 231.715V245.058Z" fill="#FF828D"/>
<path opacity="0.4" d="M54.5381 225.044L47.799 218.318L34.4873 231.715L41.1706 238.386L47.799 231.715L54.5381 225.044Z" fill="#FD9BA4"/>
<path d="M34.4873 245.044L41.1706 238.372L61.2215 245.044H34.4873V245.044Z" fill="#FFAEB5"/>
<path d="M41.2803 238.166V224.823H54.6477L41.2803 238.166Z" fill="white"/>
<rect x="23.9692" y="83.579" width="48.0874" height="47.9971" rx="10.6667" fill="#EF652A"/>
<path d="M37.052 119.474L34.8472 92.5784L61.1789 92.6325L58.8474 119.474L48.1124 122.577L37.052 119.474Z" fill="white"/>
<path d="M48.1125 119.979V95.1397L58.9561 95.1758L57.0224 117.399L48.1125 119.979Z" fill="#FFEFE9"/>
<path d="M55.9742 101.345L56.2812 98.0621H39.6003L40.522 108.128H52.0342L51.5827 112.421L47.8959 113.413L44.1549 112.331L43.9561 109.769H40.6485L41.1004 115L47.8957 116.894L54.7451 115L55.6667 104.791H43.5764L43.2331 101.345H55.9742Z" fill="#EF652A"/>
<path d="M86.3901 104.377V94.5738H88.166V98.724H92.7088V94.5738H94.4895V104.377H92.7088V100.213H88.166V104.377H86.3901ZM96.2598 96.0625V94.5738H104.082V96.0625H101.052V104.377H99.29V96.0625H96.2598ZM105.859 94.5738H108.032L110.943 101.678H111.058L113.968 94.5738H116.142V104.377H114.437V97.6422H114.346L111.637 104.349H110.364L107.654 97.6278H107.563V104.377H105.859V94.5738ZM118.345 104.377V94.5738H120.121V102.889H124.439V104.377H118.345Z" fill="#121213"/>
<path d="M92.2242 113.142C92.1646 112.639 91.9226 112.247 91.4984 111.969C91.0741 111.691 90.5538 111.551 89.9373 111.551C89.4865 111.551 89.0921 111.624 88.7541 111.77C88.4193 111.916 88.1575 112.117 87.9686 112.372C87.7829 112.627 87.6901 112.917 87.6901 113.242C87.6901 113.514 87.7548 113.747 87.884 113.943C88.0166 114.135 88.1856 114.296 88.3911 114.425C88.5966 114.551 88.8121 114.655 89.0374 114.738C89.2628 114.818 89.47 114.882 89.6589 114.932L90.693 115.211C90.9581 115.28 91.2531 115.376 91.5779 115.499C91.9061 115.622 92.2193 115.789 92.5176 116.001C92.8192 116.21 93.0677 116.478 93.2633 116.806C93.4588 117.135 93.5566 117.537 93.5566 118.015C93.5566 118.565 93.4124 119.062 93.1241 119.506C92.8391 119.95 92.4214 120.303 91.8712 120.565C91.3244 120.827 90.6598 120.958 89.8776 120.958C89.1485 120.958 88.5171 120.84 87.9835 120.605C87.4532 120.369 87.0355 120.041 86.7306 119.62C86.429 119.199 86.2583 118.711 86.2186 118.154H87.4913C87.5244 118.538 87.6537 118.856 87.8791 119.108C88.1078 119.357 88.3961 119.542 88.7441 119.665C89.0954 119.784 89.4733 119.844 89.8776 119.844C90.3483 119.844 90.7709 119.768 91.1454 119.615C91.5199 119.46 91.8166 119.244 92.0353 118.969C92.2541 118.691 92.3634 118.366 92.3634 117.995C92.3634 117.657 92.269 117.381 92.0801 117.169C91.8911 116.957 91.6426 116.785 91.3343 116.652C91.0261 116.52 90.693 116.404 90.335 116.304L89.0822 115.946C88.2867 115.718 87.657 115.391 87.193 114.967C86.729 114.543 86.497 113.988 86.497 113.301C86.497 112.731 86.6511 112.234 86.9593 111.81C87.2709 111.382 87.6885 111.051 88.2122 110.816C88.7391 110.577 89.3275 110.458 89.9771 110.458C90.6333 110.458 91.2167 110.575 91.7271 110.811C92.2375 111.043 92.6418 111.361 92.9401 111.765C93.2418 112.17 93.4008 112.629 93.4174 113.142H92.2242ZM98.6264 120.938C97.8906 120.938 97.2559 120.775 96.7223 120.451C96.192 120.122 95.7826 119.665 95.4943 119.078C95.2093 118.489 95.0667 117.802 95.0667 117.02C95.0667 116.238 95.2093 115.549 95.4943 114.952C95.7826 114.352 96.1837 113.885 96.6974 113.55C97.2145 113.212 97.8177 113.043 98.5071 113.043C98.9048 113.043 99.2976 113.109 99.6853 113.242C100.073 113.374 100.426 113.59 100.744 113.888C101.062 114.183 101.316 114.574 101.505 115.061C101.694 115.549 101.788 116.149 101.788 116.861V117.358H95.902V116.344H100.595C100.595 115.913 100.509 115.529 100.337 115.191C100.168 114.853 99.9256 114.586 99.6108 114.39C99.2992 114.195 98.9313 114.097 98.5071 114.097C98.0398 114.097 97.6354 114.213 97.294 114.445C96.9559 114.674 96.6958 114.972 96.5135 115.34C96.3312 115.708 96.24 116.102 96.24 116.523V117.199C96.24 117.776 96.3395 118.265 96.5383 118.666C96.7405 119.064 97.0206 119.367 97.3785 119.576C97.7365 119.781 98.1524 119.884 98.6264 119.884C98.9346 119.884 99.213 119.841 99.4616 119.755C99.7135 119.665 99.9306 119.533 100.113 119.357C100.295 119.178 100.436 118.956 100.535 118.691L101.669 119.009C101.55 119.393 101.349 119.731 101.067 120.023C100.786 120.311 100.438 120.537 100.023 120.699C99.6091 120.858 99.1434 120.938 98.6264 120.938ZM104.746 110.597V120.779H103.573V110.597H104.746ZM110.097 120.938C109.361 120.938 108.727 120.775 108.193 120.451C107.663 120.122 107.253 119.665 106.965 119.078C106.68 118.489 106.537 117.802 106.537 117.02C106.537 116.238 106.68 115.549 106.965 114.952C107.253 114.352 107.654 113.885 108.168 113.55C108.685 113.212 109.288 113.043 109.978 113.043C110.376 113.043 110.768 113.109 111.156 113.242C111.544 113.374 111.897 113.59 112.215 113.888C112.533 114.183 112.787 114.574 112.976 115.061C113.165 115.549 113.259 116.149 113.259 116.861V117.358H107.373V116.344H112.066C112.066 115.913 111.98 115.529 111.807 115.191C111.638 114.853 111.396 114.586 111.081 114.39C110.77 114.195 110.402 114.097 109.978 114.097C109.51 114.097 109.106 114.213 108.765 114.445C108.427 114.674 108.166 114.972 107.984 115.34C107.802 115.708 107.711 116.102 107.711 116.523V117.199C107.711 117.776 107.81 118.265 108.009 118.666C108.211 119.064 108.491 119.367 108.849 119.576C109.207 119.781 109.623 119.884 110.097 119.884C110.405 119.884 110.684 119.841 110.932 119.755C111.184 119.665 111.401 119.533 111.584 119.357C111.766 119.178 111.907 118.956 112.006 118.691L113.14 119.009C113.02 119.393 112.82 119.731 112.538 120.023C112.256 120.311 111.908 120.537 111.494 120.699C111.08 120.858 110.614 120.938 110.097 120.938ZM118.146 120.938C117.43 120.938 116.814 120.769 116.297 120.431C115.78 120.093 115.382 119.627 115.103 119.034C114.825 118.44 114.686 117.763 114.686 117C114.686 116.225 114.828 115.54 115.113 114.947C115.402 114.35 115.803 113.885 116.317 113.55C116.834 113.212 117.437 113.043 118.126 113.043C118.663 113.043 119.147 113.142 119.578 113.341C120.009 113.54 120.362 113.819 120.637 114.176C120.912 114.534 121.083 114.952 121.149 115.429H119.976C119.886 115.081 119.687 114.773 119.379 114.505C119.074 114.233 118.663 114.097 118.146 114.097C117.689 114.097 117.288 114.216 116.943 114.455C116.602 114.69 116.335 115.023 116.143 115.454C115.954 115.882 115.859 116.384 115.859 116.961C115.859 117.551 115.952 118.064 116.138 118.502C116.327 118.939 116.592 119.279 116.933 119.521C117.278 119.763 117.682 119.884 118.146 119.884C118.451 119.884 118.728 119.831 118.976 119.725C119.225 119.619 119.435 119.466 119.608 119.267C119.78 119.069 119.903 118.83 119.976 118.551H121.149C121.083 119.002 120.919 119.408 120.657 119.77C120.398 120.127 120.055 120.413 119.628 120.625C119.203 120.833 118.71 120.938 118.146 120.938ZM126.185 113.142V114.137H122.228V113.142H126.185ZM123.381 111.313H124.554V118.591C124.554 118.923 124.603 119.171 124.699 119.337C124.798 119.499 124.924 119.609 125.077 119.665C125.232 119.718 125.396 119.745 125.569 119.745C125.698 119.745 125.804 119.738 125.887 119.725C125.97 119.708 126.036 119.695 126.086 119.685L126.324 120.739C126.245 120.769 126.134 120.799 125.991 120.828C125.849 120.862 125.668 120.878 125.449 120.878C125.118 120.878 124.793 120.807 124.475 120.664C124.16 120.522 123.898 120.305 123.689 120.013C123.484 119.721 123.381 119.354 123.381 118.909V111.313ZM133.061 110.597V120.779H131.888V110.597H133.061ZM137.457 120.958C136.973 120.958 136.534 120.867 136.14 120.684C135.745 120.499 135.432 120.232 135.2 119.884C134.968 119.533 134.852 119.108 134.852 118.611C134.852 118.174 134.938 117.819 135.11 117.547C135.283 117.272 135.513 117.057 135.801 116.901C136.09 116.745 136.408 116.629 136.756 116.553C137.107 116.473 137.46 116.41 137.815 116.364C138.279 116.304 138.655 116.26 138.944 116.23C139.235 116.197 139.447 116.142 139.58 116.066C139.716 115.989 139.784 115.857 139.784 115.668V115.628C139.784 115.138 139.649 114.756 139.381 114.485C139.116 114.213 138.713 114.077 138.173 114.077C137.613 114.077 137.174 114.2 136.855 114.445C136.537 114.69 136.314 114.952 136.184 115.23L135.071 114.833C135.27 114.369 135.535 114.007 135.866 113.749C136.201 113.487 136.565 113.305 136.96 113.202C137.358 113.096 137.749 113.043 138.133 113.043C138.378 113.043 138.66 113.073 138.978 113.132C139.3 113.189 139.61 113.306 139.908 113.485C140.21 113.664 140.46 113.935 140.659 114.296C140.858 114.657 140.957 115.141 140.957 115.747V120.779H139.784V119.745H139.724C139.645 119.91 139.512 120.088 139.326 120.277C139.141 120.466 138.894 120.626 138.586 120.759C138.277 120.891 137.901 120.958 137.457 120.958ZM137.636 119.904C138.1 119.904 138.491 119.813 138.809 119.63C139.131 119.448 139.373 119.213 139.535 118.924C139.701 118.636 139.784 118.333 139.784 118.015V116.941C139.734 117 139.625 117.055 139.456 117.105C139.29 117.151 139.098 117.193 138.879 117.229C138.663 117.262 138.453 117.292 138.247 117.319C138.045 117.342 137.881 117.362 137.755 117.378C137.45 117.418 137.165 117.483 136.9 117.572C136.638 117.658 136.426 117.789 136.264 117.965C136.105 118.137 136.025 118.372 136.025 118.671C136.025 119.078 136.176 119.387 136.478 119.596C136.783 119.801 137.169 119.904 137.636 119.904ZM144.272 116.185V120.779H143.099V113.142H144.232V114.336H144.331C144.51 113.948 144.782 113.636 145.147 113.401C145.511 113.162 145.982 113.043 146.559 113.043C147.076 113.043 147.528 113.149 147.916 113.361C148.304 113.57 148.605 113.888 148.821 114.316C149.036 114.74 149.144 115.277 149.144 115.926V120.779H147.971V116.006C147.971 115.406 147.815 114.939 147.503 114.604C147.192 114.266 146.764 114.097 146.221 114.097C145.846 114.097 145.511 114.178 145.216 114.341C144.925 114.503 144.694 114.74 144.525 115.051C144.356 115.363 144.272 115.741 144.272 116.185ZM154.37 123.801C153.804 123.801 153.316 123.729 152.909 123.583C152.501 123.44 152.161 123.251 151.89 123.016C151.621 122.784 151.407 122.535 151.248 122.27L152.183 121.614C152.289 121.753 152.423 121.912 152.586 122.091C152.748 122.274 152.97 122.431 153.252 122.564C153.537 122.699 153.91 122.767 154.37 122.767C154.987 122.767 155.496 122.618 155.897 122.32C156.298 122.022 156.498 121.554 156.498 120.918V119.367H156.399C156.313 119.506 156.19 119.678 156.031 119.884C155.875 120.086 155.65 120.267 155.355 120.426C155.063 120.582 154.669 120.659 154.171 120.659C153.555 120.659 153.002 120.514 152.511 120.222C152.024 119.93 151.638 119.506 151.353 118.949C151.071 118.392 150.93 117.716 150.93 116.921C150.93 116.139 151.068 115.457 151.343 114.877C151.618 114.294 152.001 113.843 152.491 113.525C152.982 113.204 153.548 113.043 154.191 113.043C154.689 113.043 155.083 113.126 155.375 113.292C155.67 113.454 155.895 113.64 156.051 113.848C156.21 114.054 156.332 114.223 156.419 114.355H156.538V113.142H157.671V120.997C157.671 121.654 157.522 122.187 157.224 122.598C156.929 123.013 156.531 123.316 156.031 123.508C155.534 123.704 154.98 123.801 154.37 123.801ZM154.331 119.605C154.801 119.605 155.199 119.498 155.524 119.282C155.849 119.067 156.096 118.757 156.265 118.353C156.434 117.948 156.518 117.464 156.518 116.901C156.518 116.351 156.435 115.865 156.27 115.444C156.104 115.023 155.859 114.694 155.534 114.455C155.209 114.216 154.808 114.097 154.331 114.097C153.833 114.097 153.419 114.223 153.088 114.475C152.76 114.727 152.513 115.065 152.347 115.489C152.185 115.913 152.103 116.384 152.103 116.901C152.103 117.431 152.186 117.9 152.352 118.308C152.521 118.712 152.77 119.03 153.098 119.262C153.429 119.491 153.84 119.605 154.331 119.605ZM164.632 117.657V113.142H165.805V120.779H164.632V119.486H164.552C164.373 119.874 164.095 120.204 163.717 120.475C163.339 120.744 162.862 120.878 162.285 120.878C161.808 120.878 161.384 120.774 161.012 120.565C160.641 120.353 160.35 120.035 160.137 119.61C159.925 119.183 159.819 118.644 159.819 117.995V113.142H160.993V117.915C160.993 118.472 161.148 118.916 161.46 119.247C161.775 119.579 162.176 119.745 162.663 119.745C162.955 119.745 163.251 119.67 163.553 119.521C163.858 119.372 164.113 119.143 164.319 118.835C164.527 118.527 164.632 118.134 164.632 117.657ZM170.201 120.958C169.717 120.958 169.278 120.867 168.884 120.684C168.489 120.499 168.176 120.232 167.944 119.884C167.712 119.533 167.596 119.108 167.596 118.611C167.596 118.174 167.682 117.819 167.855 117.547C168.027 117.272 168.257 117.057 168.546 116.901C168.834 116.745 169.152 116.629 169.5 116.553C169.851 116.473 170.204 116.41 170.559 116.364C171.023 116.304 171.399 116.26 171.688 116.23C171.979 116.197 172.191 116.142 172.324 116.066C172.46 115.989 172.528 115.857 172.528 115.668V115.628C172.528 115.138 172.394 114.756 172.125 114.485C171.86 114.213 171.457 114.077 170.917 114.077C170.357 114.077 169.918 114.2 169.6 114.445C169.281 114.69 169.058 114.952 168.928 115.23L167.815 114.833C168.014 114.369 168.279 114.007 168.61 113.749C168.945 113.487 169.31 113.305 169.704 113.202C170.102 113.096 170.493 113.043 170.877 113.043C171.123 113.043 171.404 113.073 171.722 113.132C172.044 113.189 172.354 113.306 172.652 113.485C172.954 113.664 173.204 113.935 173.403 114.296C173.602 114.657 173.701 115.141 173.701 115.747V120.779H172.528V119.745H172.468C172.389 119.91 172.256 120.088 172.07 120.277C171.885 120.466 171.638 120.626 171.33 120.759C171.021 120.891 170.645 120.958 170.201 120.958ZM170.38 119.904C170.844 119.904 171.235 119.813 171.553 119.63C171.875 119.448 172.117 119.213 172.279 118.924C172.445 118.636 172.528 118.333 172.528 118.015V116.941C172.478 117 172.369 117.055 172.2 117.105C172.034 117.151 171.842 117.193 171.623 117.229C171.408 117.262 171.197 117.292 170.992 117.319C170.789 117.342 170.625 117.362 170.499 117.378C170.195 117.418 169.909 117.483 169.644 117.572C169.382 117.658 169.17 117.789 169.008 117.965C168.849 118.137 168.769 118.372 168.769 118.671C168.769 119.078 168.92 119.387 169.222 119.596C169.527 119.801 169.913 119.904 170.38 119.904ZM178.925 123.801C178.358 123.801 177.871 123.729 177.463 123.583C177.056 123.44 176.716 123.251 176.444 123.016C176.176 122.784 175.962 122.535 175.803 122.27L176.738 121.614C176.844 121.753 176.978 121.912 177.14 122.091C177.303 122.274 177.525 122.431 177.806 122.564C178.091 122.699 178.464 122.767 178.925 122.767C179.542 122.767 180.05 122.618 180.451 122.32C180.852 122.022 181.053 121.554 181.053 120.918V119.367H180.953C180.867 119.506 180.745 119.678 180.586 119.884C180.43 120.086 180.204 120.267 179.909 120.426C179.618 120.582 179.223 120.659 178.726 120.659C178.11 120.659 177.556 120.514 177.066 120.222C176.578 119.93 176.192 119.506 175.907 118.949C175.626 118.392 175.485 117.716 175.485 116.921C175.485 116.139 175.622 115.457 175.897 114.877C176.172 114.294 176.555 113.843 177.046 113.525C177.536 113.204 178.103 113.043 178.746 113.043C179.243 113.043 179.638 113.126 179.929 113.292C180.224 113.454 180.45 113.64 180.605 113.848C180.765 114.054 180.887 114.223 180.973 114.355H181.093V113.142H182.226V120.997C182.226 121.654 182.077 122.187 181.779 122.598C181.484 123.013 181.086 123.316 180.586 123.508C180.088 123.704 179.535 123.801 178.925 123.801ZM178.885 119.605C179.356 119.605 179.754 119.498 180.078 119.282C180.403 119.067 180.65 118.757 180.819 118.353C180.988 117.948 181.073 117.464 181.073 116.901C181.073 116.351 180.99 115.865 180.824 115.444C180.658 115.023 180.413 114.694 180.088 114.455C179.764 114.216 179.363 114.097 178.885 114.097C178.388 114.097 177.974 114.223 177.642 114.475C177.314 114.727 177.067 115.065 176.902 115.489C176.739 115.913 176.658 116.384 176.658 116.901C176.658 117.431 176.741 117.9 176.907 118.308C177.076 118.712 177.324 119.03 177.652 119.262C177.984 119.491 178.395 119.605 178.885 119.605ZM187.576 120.938C186.84 120.938 186.205 120.775 185.671 120.451C185.141 120.122 184.732 119.665 184.444 119.078C184.158 118.489 184.016 117.802 184.016 117.02C184.016 116.238 184.158 115.549 184.444 114.952C184.732 114.352 185.133 113.885 185.647 113.55C186.164 113.212 186.767 113.043 187.456 113.043C187.854 113.043 188.247 113.109 188.635 113.242C189.022 113.374 189.375 113.59 189.694 113.888C190.012 114.183 190.265 114.574 190.454 115.061C190.643 115.549 190.738 116.149 190.738 116.861V117.358H184.851V116.344H189.544C189.544 115.913 189.458 115.529 189.286 115.191C189.117 114.853 188.875 114.586 188.56 114.39C188.248 114.195 187.881 114.097 187.456 114.097C186.989 114.097 186.585 114.213 186.243 114.445C185.905 114.674 185.645 114.972 185.463 115.34C185.28 115.708 185.189 116.102 185.189 116.523V117.199C185.189 117.776 185.289 118.265 185.488 118.666C185.69 119.064 185.97 119.367 186.328 119.576C186.686 119.781 187.102 119.884 187.576 119.884C187.884 119.884 188.162 119.841 188.411 119.755C188.663 119.665 188.88 119.533 189.062 119.357C189.244 119.178 189.385 118.956 189.485 118.691L190.618 119.009C190.499 119.393 190.298 119.731 190.017 120.023C189.735 120.311 189.387 120.537 188.973 120.699C188.558 120.858 188.093 120.938 187.576 120.938Z" fill="#A8A8B5"/>
<path d="M61.5044 32.0162C61.4514 31.5456 61.2326 31.181 60.8481 30.9225C60.4637 30.6606 59.9798 30.5297 59.3964 30.5297C58.9788 30.5297 58.6176 30.596 58.3126 30.7286C58.0077 30.8578 57.7707 31.0368 57.6017 31.2655C57.436 31.4909 57.3531 31.7477 57.3531 32.0361C57.3531 32.2781 57.4095 32.4869 57.5222 32.6625C57.6382 32.8382 57.789 32.9857 57.9746 33.105C58.1635 33.221 58.3657 33.3188 58.5811 33.3983C58.7965 33.4745 59.0037 33.5375 59.2025 33.5872L60.1969 33.8458C60.5217 33.9253 60.8548 34.033 61.1962 34.1689C61.5375 34.3048 61.8541 34.4838 62.1457 34.7058C62.4374 34.9279 62.6727 35.203 62.8517 35.5311C63.034 35.8593 63.1251 36.252 63.1251 36.7094C63.1251 37.2861 62.976 37.7982 62.6777 38.2456C62.3827 38.6931 61.9535 39.046 61.39 39.3046C60.8299 39.5631 60.1521 39.6923 59.3567 39.6923C58.5944 39.6923 57.9348 39.5714 57.378 39.3294C56.8212 39.0875 56.3853 38.7444 56.0704 38.3003C55.7556 37.8529 55.5816 37.3226 55.5484 36.7094H57.0896C57.1195 37.0773 57.2388 37.3839 57.4476 37.6291C57.6597 37.8711 57.9298 38.0517 58.2579 38.171C58.5894 38.287 58.9523 38.345 59.3467 38.345C59.7809 38.345 60.167 38.2771 60.5051 38.1412C60.8465 38.002 61.115 37.8098 61.3105 37.5645C61.5061 37.3159 61.6038 37.0259 61.6038 36.6945C61.6038 36.3929 61.5177 36.1459 61.3453 35.9537C61.1763 35.7615 60.9459 35.6024 60.6543 35.4764C60.3659 35.3505 60.0394 35.2395 59.6748 35.1433L58.4717 34.8152C57.6564 34.5932 57.0101 34.2667 56.5328 33.8358C56.0588 33.4049 55.8219 32.8349 55.8219 32.1256C55.8219 31.5389 55.981 31.0269 56.2991 30.5894C56.6173 30.1519 57.0482 29.8121 57.5918 29.5702C58.1353 29.3249 58.7485 29.2023 59.4312 29.2023C60.1206 29.2023 60.7288 29.3233 61.2558 29.5652C61.7861 29.8072 62.2037 30.1403 62.5087 30.5645C62.8136 30.9854 62.9727 31.4693 62.9859 32.0162H61.5044ZM68.1328 39.6774C67.3804 39.6774 66.7324 39.5167 66.1889 39.1952C65.6486 38.8704 65.231 38.4147 64.936 37.828C64.6444 37.238 64.4985 36.547 64.4985 35.7548C64.4985 34.9727 64.6444 34.2833 64.936 33.6867C65.231 33.0901 65.642 32.6244 66.169 32.2897C66.6993 31.9549 67.3191 31.7875 68.0284 31.7875C68.4592 31.7875 68.8768 31.8588 69.2812 32.0013C69.6856 32.1438 70.0485 32.3675 70.37 32.6725C70.6915 32.9774 70.945 33.3735 71.1306 33.8607C71.3162 34.3446 71.409 34.9329 71.409 35.6256V36.1526H65.3387V35.0389H69.9524C69.9524 34.6478 69.8728 34.3015 69.7137 33.9999C69.5546 33.695 69.3309 33.4547 69.0426 33.279C68.7575 33.1033 68.4228 33.0155 68.0383 33.0155C67.6207 33.0155 67.2561 33.1182 66.9446 33.3237C66.6363 33.5259 66.3977 33.7911 66.2286 34.1192C66.0629 34.444 65.9801 34.797 65.9801 35.1781V36.0482C65.9801 36.5586 66.0696 36.9928 66.2485 37.3507C66.4308 37.7087 66.6844 37.9821 67.0092 38.171C67.334 38.3566 67.7135 38.4495 68.1477 38.4495C68.4294 38.4495 68.6863 38.4097 68.9183 38.3301C69.1503 38.2473 69.3508 38.1246 69.5198 37.9622C69.6889 37.7998 69.8181 37.5993 69.9076 37.3607L71.3146 37.6142C71.2019 38.0285 70.9997 38.3914 70.7081 38.703C70.4197 39.0112 70.0568 39.2515 69.6193 39.4239C69.1851 39.5929 68.6896 39.6774 68.1328 39.6774ZM74.5449 29.3415V39.5233H73.0584V29.3415H74.5449ZM79.8359 39.6774C79.0835 39.6774 78.4356 39.5167 77.892 39.1952C77.3518 38.8704 76.9341 38.4147 76.6392 37.828C76.3475 37.238 76.2017 36.547 76.2017 35.7548C76.2017 34.9727 76.3475 34.2833 76.6392 33.6867C76.9341 33.0901 77.3451 32.6244 77.8721 32.2897C78.4024 31.9549 79.0222 31.7875 79.7315 31.7875C80.1624 31.7875 80.58 31.8588 80.9843 32.0013C81.3887 32.1438 81.7516 32.3675 82.0731 32.6725C82.3946 32.9774 82.6482 33.3735 82.8338 33.8607C83.0194 34.3446 83.1122 34.9329 83.1122 35.6256V36.1526H77.0419V35.0389H81.6555C81.6555 34.6478 81.576 34.3015 81.4169 33.9999C81.2578 33.695 81.034 33.4547 80.7457 33.279C80.4607 33.1033 80.1259 33.0155 79.7414 33.0155C79.3238 33.0155 78.9592 33.1182 78.6477 33.3237C78.3394 33.5259 78.1008 33.7911 77.9318 34.1192C77.7661 34.444 77.6832 34.797 77.6832 35.1781V36.0482C77.6832 36.5586 77.7727 36.9928 77.9517 37.3507C78.134 37.7087 78.3875 37.9821 78.7123 38.171C79.0371 38.3566 79.4166 38.4495 79.8508 38.4495C80.1325 38.4495 80.3894 38.4097 80.6214 38.3301C80.8534 38.2473 81.0539 38.1246 81.223 37.9622C81.392 37.7998 81.5213 37.5993 81.6108 37.3607L83.0177 37.6142C82.905 38.0285 82.7028 38.3914 82.4112 38.703C82.1228 39.0112 81.7599 39.2515 81.3224 39.4239C80.8882 39.5929 80.3927 39.6774 79.8359 39.6774ZM87.9781 39.6774C87.239 39.6774 86.6026 39.5101 86.069 39.1753C85.5387 38.8372 85.1311 38.3716 84.846 37.7783C84.561 37.185 84.4185 36.5056 84.4185 35.7399C84.4185 34.9644 84.5643 34.2799 84.856 33.6867C85.1476 33.0901 85.5586 32.6244 86.0889 32.2897C86.6192 31.9549 87.244 31.7875 87.9632 31.7875C88.5432 31.7875 89.0603 31.8952 89.5143 32.1107C89.9684 32.3228 90.3347 32.6211 90.6131 33.0056C90.8948 33.39 91.0622 33.8391 91.1152 34.3529H89.6685C89.5889 33.9949 89.4066 33.6867 89.1216 33.4281C88.8399 33.1696 88.462 33.0404 87.9881 33.0404C87.5738 33.0404 87.2108 33.1497 86.8993 33.3685C86.591 33.5839 86.3507 33.8922 86.1784 34.2932C86.0061 34.6909 85.9199 35.1616 85.9199 35.7051C85.9199 36.262 86.0044 36.7425 86.1734 37.1469C86.3425 37.5513 86.5811 37.8645 86.8893 38.0865C87.2009 38.3086 87.5671 38.4196 87.9881 38.4196C88.2698 38.4196 88.525 38.3682 88.7537 38.2655C88.9857 38.1594 89.1796 38.0086 89.3354 37.8131C89.4945 37.6175 89.6055 37.3822 89.6685 37.1071H91.1152C91.0622 37.601 90.9014 38.0418 90.6329 38.4296C90.3645 38.8173 90.0049 39.1223 89.5541 39.3443C89.1067 39.5664 88.5813 39.6774 87.9781 39.6774ZM96.2695 31.887V33.0801H92.0983V31.887H96.2695ZM93.2169 30.0574H94.7034V37.2811C94.7034 37.5695 94.7465 37.7866 94.8327 37.9324C94.9189 38.0749 95.0299 38.1727 95.1658 38.2257C95.305 38.2754 95.4558 38.3003 95.6182 38.3003C95.7375 38.3003 95.8419 38.292 95.9314 38.2754C96.0209 38.2589 96.0905 38.2456 96.1402 38.2357L96.4087 39.4637C96.3225 39.4968 96.1999 39.5299 96.0408 39.5631C95.8817 39.5995 95.6828 39.6194 95.4442 39.6227C95.0531 39.6294 94.6885 39.5598 94.3505 39.4139C94.0124 39.2681 93.7389 39.0427 93.5301 38.7378C93.3213 38.4329 93.2169 38.0501 93.2169 37.5894V30.0574ZM103.105 29.3415V39.5233H101.619V29.3415H103.105ZM107.328 39.6923C106.844 39.6923 106.406 39.6029 106.015 39.4239C105.624 39.2416 105.314 38.9781 105.085 38.6334C104.86 38.2887 104.747 37.8661 104.747 37.3656C104.747 36.9348 104.83 36.5801 104.996 36.3017C105.162 36.0233 105.385 35.8029 105.667 35.6405C105.949 35.4781 106.264 35.3555 106.612 35.2726C106.96 35.1897 107.314 35.1268 107.676 35.0837C108.133 35.0307 108.504 34.9876 108.789 34.9544C109.074 34.918 109.281 34.86 109.411 34.7804C109.54 34.7009 109.605 34.5716 109.605 34.3926V34.3578C109.605 33.9236 109.482 33.5872 109.237 33.3486C108.995 33.11 108.633 32.9906 108.153 32.9906C107.652 32.9906 107.258 33.1017 106.97 33.3237C106.685 33.5425 106.487 33.7861 106.378 34.0546L104.981 33.7364C105.147 33.2724 105.389 32.8978 105.707 32.6128C106.028 32.3245 106.398 32.1156 106.815 31.9864C107.233 31.8538 107.672 31.7875 108.133 31.7875C108.438 31.7875 108.761 31.824 109.102 31.8969C109.447 31.9665 109.769 32.0958 110.067 32.2847C110.369 32.4736 110.615 32.7437 110.808 33.095C111 33.4431 111.096 33.8955 111.096 34.4523V39.5233H109.644V38.4793H109.585C109.489 38.6715 109.344 38.8604 109.152 39.046C108.96 39.2316 108.713 39.3858 108.411 39.5084C108.11 39.631 107.748 39.6923 107.328 39.6923ZM107.651 38.4992C108.062 38.4992 108.413 38.418 108.705 38.2556C109 38.0932 109.223 37.881 109.376 37.6192C109.532 37.354 109.61 37.0707 109.61 36.7691V35.7847C109.556 35.8377 109.454 35.8874 109.301 35.9338C109.152 35.9769 108.981 36.015 108.789 36.0482C108.597 36.078 108.41 36.1062 108.227 36.1327C108.045 36.1559 107.893 36.1758 107.77 36.1923C107.482 36.2288 107.218 36.2901 106.98 36.3763C106.744 36.4625 106.555 36.5868 106.413 36.7492C106.274 36.9083 106.204 37.1204 106.204 37.3855C106.204 37.7534 106.34 38.0318 106.612 38.2208C106.883 38.4064 107.23 38.4992 107.651 38.4992ZM114.562 34.9892V39.5233H113.076V31.887H114.503V33.1298H114.597C114.773 32.7255 115.048 32.4007 115.423 32.1554C115.8 31.9102 116.276 31.7875 116.849 31.7875C117.37 31.7875 117.825 31.8969 118.217 32.1156C118.608 32.3311 118.911 32.6526 119.126 33.0801C119.342 33.5077 119.45 34.0363 119.45 34.6661V39.5233H117.963V34.845C117.963 34.2915 117.819 33.859 117.53 33.5475C117.242 33.2326 116.846 33.0752 116.342 33.0752C115.998 33.0752 115.691 33.1497 115.423 33.2989C115.157 33.448 114.947 33.6668 114.791 33.9551C114.639 34.2402 114.562 34.5849 114.562 34.9892ZM124.645 42.546C124.038 42.546 123.516 42.4665 123.079 42.3074C122.645 42.1483 122.29 41.9379 122.015 41.676C121.74 41.4142 121.534 41.1275 121.398 40.8159L122.676 40.2889C122.766 40.4348 122.885 40.5889 123.034 40.7513C123.187 40.917 123.392 41.0579 123.651 41.1739C123.912 41.2899 124.249 41.3479 124.66 41.3479C125.223 41.3479 125.689 41.2103 126.057 40.9352C126.425 40.6635 126.609 40.2293 126.609 39.6327V38.1313H126.514C126.425 38.2937 126.295 38.4743 126.126 38.6732C125.961 38.872 125.732 39.0444 125.44 39.1902C125.149 39.3361 124.769 39.409 124.302 39.409C123.699 39.409 123.155 39.2681 122.671 38.9864C122.191 38.7013 121.809 38.2821 121.528 37.7286C121.249 37.1718 121.11 36.4873 121.11 35.6753C121.11 34.8633 121.248 34.1673 121.523 33.5872C121.801 33.0072 122.182 32.5631 122.666 32.2548C123.15 31.9433 123.699 31.7875 124.312 31.7875C124.786 31.7875 125.169 31.8671 125.46 32.0262C125.752 32.1819 125.979 32.3642 126.141 32.573C126.307 32.7818 126.435 32.9658 126.524 33.1249H126.633V31.887H128.09V39.6923C128.09 40.3486 127.938 40.8872 127.633 41.3081C127.328 41.729 126.915 42.0406 126.395 42.2428C125.878 42.445 125.294 42.546 124.645 42.546ZM124.63 38.176C125.057 38.176 125.419 38.0766 125.714 37.8777C126.012 37.6755 126.237 37.3872 126.39 37.0127C126.546 36.6348 126.624 36.1824 126.624 35.6554C126.624 35.1417 126.547 34.6893 126.395 34.2982C126.242 33.9071 126.019 33.6022 125.724 33.3834C125.429 33.1613 125.064 33.0503 124.63 33.0503C124.182 33.0503 123.81 33.1663 123.511 33.3983C123.213 33.627 122.988 33.9386 122.835 34.333C122.686 34.7274 122.611 35.1682 122.611 35.6554C122.611 36.1559 122.688 36.595 122.84 36.9729C122.993 37.3507 123.218 37.6457 123.516 37.8578C123.818 38.07 124.189 38.176 124.63 38.176ZM134.921 36.3564V31.887H136.413V39.5233H134.951V38.2009H134.871C134.696 38.6085 134.414 38.9483 134.026 39.22C133.642 39.4885 133.163 39.6227 132.589 39.6227C132.099 39.6227 131.665 39.515 131.287 39.2996C130.912 39.0808 130.617 38.7577 130.402 38.3301C130.19 37.9026 130.084 37.3739 130.084 36.7442V31.887H131.57V36.5652C131.57 37.0856 131.714 37.4999 132.003 37.8081C132.291 38.1164 132.666 38.2705 133.126 38.2705C133.405 38.2705 133.682 38.2009 133.957 38.0617C134.235 37.9225 134.465 37.712 134.648 37.4303C134.833 37.1486 134.924 36.7906 134.921 36.3564ZM140.632 39.6923C140.148 39.6923 139.711 39.6029 139.32 39.4239C138.929 39.2416 138.619 38.9781 138.39 38.6334C138.165 38.2887 138.052 37.8661 138.052 37.3656C138.052 36.9348 138.135 36.5801 138.301 36.3017C138.466 36.0233 138.69 35.8029 138.972 35.6405C139.253 35.4781 139.568 35.3555 139.916 35.2726C140.264 35.1897 140.619 35.1268 140.98 35.0837C141.438 35.0307 141.809 34.9876 142.094 34.9544C142.379 34.918 142.586 34.86 142.715 34.7804C142.845 34.7009 142.909 34.5716 142.909 34.3926V34.3578C142.909 33.9236 142.787 33.5872 142.541 33.3486C142.299 33.11 141.938 32.9906 141.458 32.9906C140.957 32.9906 140.563 33.1017 140.274 33.3237C139.989 33.5425 139.792 33.7861 139.683 34.0546L138.286 33.7364C138.451 33.2724 138.693 32.8978 139.011 32.6128C139.333 32.3245 139.703 32.1156 140.12 31.9864C140.538 31.8538 140.977 31.7875 141.438 31.7875C141.743 31.7875 142.066 31.824 142.407 31.8969C142.752 31.9665 143.073 32.0958 143.372 32.2847C143.673 32.4736 143.92 32.7437 144.112 33.095C144.305 33.4431 144.401 33.8955 144.401 34.4523V39.5233H142.949V38.4793H142.889C142.793 38.6715 142.649 38.8604 142.457 39.046C142.265 39.2316 142.018 39.3858 141.716 39.5084C141.414 39.631 141.053 39.6923 140.632 39.6923ZM140.955 38.4992C141.366 38.4992 141.718 38.418 142.009 38.2556C142.304 38.0932 142.528 37.881 142.681 37.6192C142.836 37.354 142.914 37.0707 142.914 36.7691V35.7847C142.861 35.8377 142.758 35.8874 142.606 35.9338C142.457 35.9769 142.286 36.015 142.094 36.0482C141.902 36.078 141.714 36.1062 141.532 36.1327C141.35 36.1559 141.197 36.1758 141.075 36.1923C140.786 36.2288 140.523 36.2901 140.284 36.3763C140.049 36.4625 139.86 36.5868 139.717 36.7492C139.578 36.9083 139.509 37.1204 139.509 37.3855C139.509 37.7534 139.645 38.0318 139.916 38.2208C140.188 38.4064 140.534 38.4992 140.955 38.4992ZM149.582 42.546C148.976 42.546 148.454 42.4665 148.016 42.3074C147.582 42.1483 147.227 41.9379 146.952 41.676C146.677 41.4142 146.472 41.1275 146.336 40.8159L147.614 40.2889C147.703 40.4348 147.822 40.5889 147.972 40.7513C148.124 40.917 148.33 41.0579 148.588 41.1739C148.85 41.2899 149.186 41.3479 149.597 41.3479C150.161 41.3479 150.626 41.2103 150.994 40.9352C151.362 40.6635 151.546 40.2293 151.546 39.6327V38.1313H151.452C151.362 38.2937 151.233 38.4743 151.064 38.6732C150.898 38.872 150.669 39.0444 150.378 39.1902C150.086 39.3361 149.707 39.409 149.239 39.409C148.636 39.409 148.093 39.2681 147.609 38.9864C147.128 38.7013 146.747 38.2821 146.465 37.7286C146.187 37.1718 146.048 36.4873 146.048 35.6753C146.048 34.8633 146.185 34.1673 146.46 33.5872C146.739 33.0072 147.12 32.5631 147.604 32.2548C148.088 31.9433 148.636 31.7875 149.249 31.7875C149.723 31.7875 150.106 31.8671 150.398 32.0262C150.689 32.1819 150.916 32.3642 151.079 32.573C151.245 32.7818 151.372 32.9658 151.462 33.1249H151.571V31.887H153.028V39.6923C153.028 40.3486 152.875 40.8872 152.57 41.3081C152.265 41.729 151.853 42.0406 151.332 42.2428C150.815 42.445 150.232 42.546 149.582 42.546ZM149.567 38.176C149.995 38.176 150.356 38.0766 150.651 37.8777C150.95 37.6755 151.175 37.3872 151.327 37.0127C151.483 36.6348 151.561 36.1824 151.561 35.6554C151.561 35.1417 151.485 34.6893 151.332 34.2982C151.18 33.9071 150.956 33.6022 150.661 33.3834C150.366 33.1613 150.002 33.0503 149.567 33.0503C149.12 33.0503 148.747 33.1663 148.449 33.3983C148.151 33.627 147.925 33.9386 147.773 34.333C147.624 34.7274 147.549 35.1682 147.549 35.6554C147.549 36.1559 147.625 36.595 147.778 36.9729C147.93 37.3507 148.155 37.6457 148.454 37.8578C148.755 38.07 149.127 38.176 149.567 38.176ZM158.312 39.6774C157.56 39.6774 156.912 39.5167 156.369 39.1952C155.828 38.8704 155.411 38.4147 155.116 37.828C154.824 37.238 154.678 36.547 154.678 35.7548C154.678 34.9727 154.824 34.2833 155.116 33.6867C155.411 33.0901 155.822 32.6244 156.349 32.2897C156.879 31.9549 157.499 31.7875 158.208 31.7875C158.639 31.7875 159.057 31.8588 159.461 32.0013C159.865 32.1438 160.228 32.3675 160.55 32.6725C160.871 32.9774 161.125 33.3735 161.31 33.8607C161.496 34.3446 161.589 34.9329 161.589 35.6256V36.1526H155.518V35.0389H160.132C160.132 34.6478 160.053 34.3015 159.893 33.9999C159.734 33.695 159.511 33.4547 159.222 33.279C158.937 33.1033 158.602 33.0155 158.218 33.0155C157.8 33.0155 157.436 33.1182 157.124 33.3237C156.816 33.5259 156.577 33.7911 156.408 34.1192C156.243 34.444 156.16 34.797 156.16 35.1781V36.0482C156.16 36.5586 156.249 36.9928 156.428 37.3507C156.611 37.7087 156.864 37.9821 157.189 38.171C157.514 38.3566 157.893 38.4495 158.327 38.4495C158.609 38.4495 158.866 38.4097 159.098 38.3301C159.33 38.2473 159.53 38.1246 159.7 37.9622C159.869 37.7998 159.998 37.5993 160.087 37.3607L161.494 37.6142C161.382 38.0285 161.179 38.3914 160.888 38.703C160.599 39.0112 160.236 39.2515 159.799 39.4239C159.365 39.5929 158.869 39.6774 158.312 39.6774ZM168.96 33.7513L167.613 33.9899C167.557 33.8176 167.467 33.6535 167.345 33.4977C167.225 33.342 167.063 33.2144 166.857 33.1149C166.652 33.0155 166.395 32.9658 166.087 32.9658C165.666 32.9658 165.315 33.0602 165.033 33.2492C164.751 33.4348 164.61 33.6751 164.61 33.97C164.61 34.2253 164.705 34.4307 164.894 34.5865C165.083 34.7423 165.387 34.8699 165.808 34.9693L167.021 35.2477C167.724 35.4102 168.248 35.6604 168.592 35.9985C168.937 36.3365 169.11 36.7757 169.11 37.3159C169.11 37.7733 168.977 38.181 168.712 38.5389C168.45 38.8936 168.084 39.172 167.613 39.3742C167.146 39.5763 166.604 39.6774 165.987 39.6774C165.132 39.6774 164.435 39.4951 163.894 39.1306C163.354 38.7627 163.023 38.2406 162.9 37.5645L164.337 37.3458C164.426 37.7203 164.61 38.0037 164.889 38.1959C165.167 38.3848 165.53 38.4793 165.977 38.4793C166.465 38.4793 166.854 38.3782 167.146 38.176C167.437 37.9705 167.583 37.7203 167.583 37.4253C167.583 37.1867 167.494 36.9861 167.315 36.8237C167.139 36.6613 166.869 36.5387 166.504 36.4558L165.212 36.1725C164.499 36.0101 163.972 35.7515 163.631 35.3969C163.293 35.0423 163.124 34.5932 163.124 34.0496C163.124 33.5988 163.25 33.2044 163.502 32.8664C163.753 32.5283 164.101 32.2648 164.546 32.0759C164.99 31.8836 165.498 31.7875 166.072 31.7875C166.897 31.7875 167.547 31.9665 168.021 32.3245C168.495 32.6791 168.808 33.1547 168.96 33.7513Z" fill="#6C6C73"/>
<path d="M31.2359 41.0301C35.2491 41.0301 38.5025 37.7827 38.5025 33.7767C38.5025 29.7708 35.2491 26.5233 31.2359 26.5233C27.2226 26.5233 23.9692 29.7708 23.9692 33.7767C23.9692 37.7827 27.2226 41.0301 31.2359 41.0301Z" stroke="#A8A8B5" stroke-width="2" stroke-linecap="round" stroke-linejoin="round"/>
<path d="M40.2558 42.7796L36.3831 38.9139" stroke="#A8A8B5" stroke-width="2" stroke-linecap="round" stroke-linejoin="round"/>
</svg>
