<svg width="90" height="30" viewBox="0 0 90 30" fill="none" xmlns="http://www.w3.org/2000/svg">
<path d="M11.0845 0H11.8849C14.6635 0.0616822 17.3967 1.2028 19.3599 3.2229C18.635 3.9785 17.8951 4.70327 17.1853 5.45888C16.0829 4.44112 14.7541 3.65467 13.3044 3.3771C11.16 2.91448 8.8496 3.33084 7.05258 4.5799C5.08946 5.89065 3.76058 8.11121 3.47366 10.486C3.15654 12.8299 3.80588 15.2972 5.30087 17.1168C6.73546 18.8902 8.9251 20.0005 11.1902 20.0776C13.3044 20.2009 15.5091 19.5378 17.0494 18.0266C18.2575 16.9626 18.8162 15.3435 18.9974 13.7706C16.4907 13.7706 13.9839 13.786 11.4772 13.7706V10.5939H22.0327C22.5764 14.0019 21.7911 17.8416 19.2541 20.278C17.5628 22.0051 15.2222 23.0229 12.8362 23.2234C10.5258 23.4547 8.13985 23.0075 6.08612 21.8663C3.62467 20.5248 1.66154 18.2579 0.695083 15.5902C-0.210974 13.1383 -0.226075 10.3626 0.619578 7.89532C1.38973 5.64392 2.86962 3.65467 4.77234 2.26682C6.59955 0.894392 8.81939 0.138785 11.0845 0Z" fill="white"/>
<path d="M71.6396 0.80188H74.8712V22.8224C73.7991 22.8224 72.7118 22.8378 71.6396 22.807C71.6547 15.4822 71.6396 8.14205 71.6396 0.80188V0.80188Z" fill="white"/>
<path d="M29.2204 8.43513C31.2138 8.04962 33.3732 8.48139 35.0192 9.69961C36.5142 10.779 37.5562 12.4753 37.8733 14.3257C38.281 16.4692 37.7676 18.8131 36.4085 20.5093C34.9437 22.406 32.5426 23.4238 30.202 23.2696C28.0577 23.1462 25.9737 22.0514 24.7052 20.2626C23.2706 18.2888 22.9233 15.5748 23.7086 13.2617C24.4938 10.779 26.7137 8.88232 29.2204 8.43513V8.43513ZM29.6735 11.365C28.858 11.5809 28.103 12.0589 27.5593 12.7374C26.0945 14.5262 26.1851 17.4407 27.8009 19.1061C28.7221 20.0621 30.1114 20.5093 31.395 20.2472C32.5879 20.0313 33.6299 19.214 34.2037 18.1346C35.2004 16.2996 34.9135 13.7706 33.3883 12.3365C32.4067 11.4113 30.9721 11.0258 29.6735 11.365Z" fill="white"/>
<path d="M45.2264 8.43505C47.5067 7.98785 49.9983 8.63551 51.7047 10.2701C54.4833 12.8145 54.7853 17.5795 52.4145 20.5094C50.9799 22.3598 48.6543 23.3776 46.359 23.2696C44.1694 23.208 42.0099 22.0977 40.7112 20.2626C39.2464 18.2425 38.9293 15.4668 39.7599 13.1075C40.5904 10.7019 42.765 8.86682 45.2264 8.43505V8.43505ZM45.6795 11.365C44.864 11.5808 44.109 12.0589 43.5653 12.722C42.1156 14.4799 42.176 17.3481 43.7314 19.029C44.6526 20.0313 46.0872 20.5248 47.4161 20.2472C48.5939 20.0159 49.651 19.214 50.2248 18.1346C51.2064 16.2841 50.9195 13.7551 49.3792 12.321C48.3976 11.3958 46.963 11.0257 45.6795 11.365Z" fill="white"/>
<path d="M58.8036 9.32955C60.5403 8.21927 62.8507 7.91086 64.7232 8.86693C65.3122 9.12908 65.7954 9.57628 66.2635 10.0235C66.2786 9.60712 66.2635 9.17534 66.2786 8.74357C67.2904 8.75899 68.3022 8.74357 69.329 8.75899V22.3599C69.3139 24.4108 68.8005 26.5851 67.3508 28.0809C65.7652 29.7309 63.3339 30.2398 61.1443 29.9005C58.8036 29.5459 56.765 27.8033 55.859 25.5982C56.765 25.151 57.7164 24.7963 58.6526 24.38C59.1812 25.6445 60.2533 26.7239 61.5973 26.9706C62.9413 27.2174 64.4967 26.8781 65.3726 25.737C66.3088 24.565 66.3088 22.9613 66.2635 21.5272C65.5689 22.2211 64.7685 22.8379 63.8021 23.0692C61.703 23.6706 59.3926 22.9305 57.7768 21.4809C56.1459 20.0314 55.1794 17.7954 55.27 15.5749C55.3153 13.0613 56.7046 10.6403 58.8036 9.32955V9.32955ZM61.9295 11.3034C61.0084 11.4576 60.1476 11.9819 59.5587 12.7066C58.1392 14.4337 58.1392 17.194 59.5738 18.8903C60.3892 19.8926 61.703 20.4477 62.9715 20.309C64.1645 20.1856 65.2669 19.4146 65.8558 18.3506C66.8525 16.5464 66.6864 14.0945 65.3424 12.5216C64.5118 11.5501 63.1829 11.0721 61.9295 11.3034V11.3034Z" fill="white"/>
<path d="M78.7496 10.116C80.5617 8.38888 83.3554 7.8029 85.6809 8.71271C87.8857 9.56084 89.29 11.7043 89.9998 13.9094C86.7229 15.2973 83.4611 16.6697 80.1842 18.0576C80.6372 18.9365 81.3318 19.7384 82.2681 20.0622C83.5819 20.5403 85.1524 20.3706 86.2548 19.4762C86.6927 19.137 87.04 18.6898 87.3722 18.258C88.2028 18.8286 89.0333 19.3837 89.8639 19.9543C88.686 21.7585 86.7078 23.023 84.5785 23.2234C82.2228 23.5164 79.716 22.5912 78.1908 20.7099C75.6841 17.7491 75.9257 12.7837 78.7496 10.116V10.116ZM80.3654 12.9688C79.8519 13.7244 79.6405 14.6496 79.6556 15.5594C81.8453 14.6342 84.0349 13.709 86.2246 12.7683C85.8621 11.9048 84.9863 11.3805 84.0953 11.2417C82.6607 10.9795 81.1657 11.766 80.3654 12.9688V12.9688Z" fill="white"/>
</svg>
