<svg width="102" height="22" viewBox="0 0 102 22" fill="none" xmlns="http://www.w3.org/2000/svg">
<path d="M17.012 21.9718L10.3278 21.8524C8.16354 21.8109 5.99398 21.894 3.87227 21.4631C0.644502 20.8194 0.415847 17.6634 0.176556 15.0161C-0.153133 11.2942 -0.0255115 7.5049 0.596644 3.8142C0.947603 1.74305 2.33017 0.507626 4.46783 0.372664C11.6838 -0.115276 18.9476 -0.058177 26.1476 0.170221C26.908 0.190984 27.6737 0.305183 28.4235 0.434954C32.1245 1.06824 32.2149 4.64474 32.4542 7.65543C32.6935 10.6973 32.5925 13.7547 32.1351 16.7758C31.7682 19.2778 31.0663 21.3749 28.1044 21.5773C24.3928 21.842 20.7662 22.0549 17.0439 21.9874C17.0439 21.9718 17.0226 21.9718 17.012 21.9718V21.9718ZM13.0823 15.639C15.8793 14.0713 18.6232 12.5296 21.4043 10.9724C18.6019 9.40475 15.8634 7.86307 13.0823 6.30581V15.639Z" fill="white"/>
<path d="M86.0679 19.1273C85.9403 19.636 85.8286 20.0357 85.7169 20.4613H83.1007V0.761841H86.153V8.02911C86.3125 7.83186 86.3922 7.7488 86.4614 7.66056C86.9825 6.95978 87.6578 6.50298 88.5299 6.32649C89.9178 6.06176 91.1036 6.65871 91.5237 7.96163C91.7949 8.77141 91.9704 9.63829 91.9916 10.4844C92.0342 12.6594 92.0023 14.8292 91.9225 17.0042C91.8906 17.6686 91.6832 18.3486 91.4227 18.9715C90.5665 21.0271 87.7695 21.3386 86.3816 19.5581C86.2965 19.4491 86.2168 19.3297 86.0679 19.1273V19.1273ZM86.2168 13.708V17.3105C86.2168 17.897 86.5358 18.2552 87.1367 18.3902C87.727 18.5251 88.2055 18.3019 88.4448 17.7673C88.5459 17.544 88.6469 17.3105 88.6522 17.0769C88.7107 14.8759 88.7639 12.675 88.7798 10.4688C88.7798 10.0588 88.6788 9.6331 88.5512 9.2334C88.3119 8.51186 87.6525 8.29904 87.0038 8.7195C86.5145 9.04134 86.2168 9.49814 86.2168 10.1055V13.708ZM77.9214 6.6068H81.1172V20.4717H78.6233C78.5329 19.9474 78.4425 19.4076 78.3361 18.7743C78.166 19.0183 78.0649 19.174 77.9586 19.3297C77.1291 20.4977 75.9539 20.8974 74.566 20.6845C73.3802 20.4977 72.6676 19.6048 72.5081 18.141C72.4602 17.705 72.439 17.2637 72.439 16.8277C72.4283 13.5834 72.439 10.3287 72.439 7.08437V6.59642H75.672V7.16223C75.672 10.2975 75.6614 13.4277 75.6827 16.563C75.6827 17.0094 75.7305 17.4714 75.8103 17.9178C75.9007 18.3746 76.241 18.5407 76.6983 18.5096C77.4375 18.4525 77.948 17.9178 77.948 17.2014V7.21933C77.9214 7.01688 77.9214 6.83001 77.9214 6.6068V6.6068ZM55.9173 6.59642H59.1291V7.18299C59.1291 10.3027 59.1185 13.4173 59.1397 16.5266C59.1397 16.973 59.1823 17.435 59.278 17.8711C59.4003 18.385 59.7087 18.5511 60.2352 18.4836C60.9637 18.385 61.405 17.8918 61.4103 17.1703V7.24009V6.61718H64.6062V20.4717H62.1229C62.0325 19.9578 61.9421 19.4283 61.8251 18.7587C61.6656 18.9923 61.5752 19.1273 61.4848 19.2674C60.6552 20.4561 59.4907 20.8922 58.0709 20.6794C56.933 20.5132 56.2364 19.6931 56.0237 18.3486C55.9652 17.9282 55.9226 17.5129 55.9226 17.0924C55.912 13.7235 55.912 10.3391 55.912 6.97017L55.9173 6.59642ZM54.2689 13.9987C54.2582 14.4658 54.2263 14.933 54.1997 15.4002C54.0774 16.8017 54.0189 18.7899 52.8597 19.8125C52.1206 20.4561 51.1847 20.6897 50.2169 20.7209C49.7861 20.7313 49.3501 20.7313 48.9194 20.6742C46.8828 20.3731 45.9362 19.4958 45.5959 17.3105C45.2077 14.7877 45.1758 12.2234 45.6385 9.70058C46.117 7.08956 47.7655 6.16558 50.3285 6.33688C52.7214 6.50298 53.7903 8.0343 54.0721 10.2145C54.2263 11.4655 54.3008 12.7321 54.2689 13.9987V13.9987ZM51.0145 13.5211C51.0145 12.6334 51.0358 11.7406 51.0039 10.853C50.9826 10.3391 50.9135 9.81997 50.8018 9.31126C50.6742 8.72469 50.2913 8.44438 49.8127 8.45476C49.3448 8.46515 49.0151 8.74546 48.8449 9.2905C48.7864 9.49295 48.7226 9.70058 48.7226 9.90303C48.7226 11.2942 48.712 12.6905 48.7014 14.0817C48.6907 15.3794 48.5206 16.7395 48.9407 17.9801C49.0683 18.359 49.398 18.5667 49.8287 18.5667C50.2488 18.5667 50.5253 18.3642 50.6795 18.0008C50.8018 17.7205 50.9082 17.4143 50.9082 17.1132C50.9454 15.9193 51.0145 14.7202 51.0145 13.5211ZM40.9058 10.9101C41.1877 9.56562 41.4535 8.25232 41.746 6.93383C42.1129 5.25717 42.5224 3.5805 42.884 1.89865C42.9744 1.48857 43.1445 1.38994 43.5433 1.40032C44.3995 1.43147 45.2715 1.4107 46.1862 1.4107C45.8884 2.48003 45.5959 3.49745 45.3088 4.49929C44.3995 7.64498 43.4902 10.8011 42.5915 13.9571C42.5224 14.2011 42.4905 14.4658 42.4905 14.7254C42.4798 16.4488 42.4905 18.167 42.4905 19.8903V20.451H39.369C39.3584 20.2952 39.3371 20.1395 39.3371 19.9838C39.3371 19.0079 39.2574 18.0268 39.3478 17.0613C39.5764 14.741 38.8213 12.6075 38.2098 10.4481C37.4015 7.59307 36.5826 4.72769 35.7744 1.87269C35.7318 1.73773 35.7159 1.59239 35.6733 1.42628H38.8586C39.5286 4.57716 40.2039 7.72804 40.9058 10.9101ZM101.978 14.5281H96.5966C96.6551 15.5819 96.6764 16.5837 96.7881 17.5752C96.8678 18.2656 97.256 18.5615 97.8675 18.5667C98.5056 18.577 98.8779 18.2656 99.0268 17.5804C99.0746 17.3572 99.1065 17.134 99.1278 16.9056C99.1491 16.7031 99.1597 16.4851 99.1757 16.1944C100.085 16.2411 100.973 16.293 101.85 16.3294C102.361 17.8088 101.441 19.7087 99.8935 20.2952C98.6758 20.7624 97.4262 20.7624 96.1819 20.4042C95.2619 20.1395 94.576 19.5685 94.2675 18.6912C93.9804 17.8711 93.7092 17.0146 93.6507 16.1581C93.4912 14.0454 93.4327 11.9119 93.7624 9.79402C93.8209 9.44104 93.9219 9.10363 94.0336 8.76103C94.4803 7.3491 95.4534 6.48222 96.9582 6.33688C97.7771 6.25901 98.6226 6.29016 99.4309 6.42512C100.739 6.64833 101.436 7.56712 101.739 8.77141C101.877 9.33722 101.978 9.9186 101.999 10.4948C102.005 11.8185 101.978 13.1318 101.978 14.5281ZM98.9204 12.7061C98.9204 11.6627 98.9311 10.6817 98.9098 9.69539C98.9098 9.4618 98.8194 9.21783 98.729 8.99462C98.5482 8.55858 98.1706 8.43919 97.7186 8.43919C97.2667 8.43919 96.9795 8.6624 96.8678 9.0621C96.5275 10.2612 96.6392 11.4863 96.6498 12.7165C97.4634 12.7061 98.2025 12.7061 98.9204 12.7061V12.7061Z" fill="white"/>
<path d="M67.0731 3.95441H63.9092V1.45239H73.3531V3.93884H70.2105V20.4511H67.0784L67.0731 3.95441Z" fill="white"/>
</svg>
