<svg width="88" height="30" viewBox="0 0 88 30" fill="none" xmlns="http://www.w3.org/2000/svg">
<path d="M84.1404 5.52632H80.2807V0H71.8057L67.9082 5.52632H60.9825L58.6667 7.89474V5.52632H53.2632V0H36.2807V5.52632H12.3895L8.49123 0H0V18.9474L10.807 30H21.614V26.8421L24.7018 30H45.5439V26.8421L48.6316 30H58.6667V26.8421L61.7544 30H81.0526L88 22.8947V9.47368L84.1404 5.52632ZM13.1228 13.4211H7.7193V15H13.1228V21.3158H4.63158L1.54386 18.1579V1.57895H7.7193V7.10526H13.1228V13.4211ZM36.2807 21.3158H17.7544L14.6667 18.1579V7.10526H20.8421V15H22.386V7.10526H28.5614V15H30.1053V7.10526H36.2807V21.3158ZM44 21.3158H37.8246V7.10526H44V21.3158ZM44 5.52632H37.8246V1.57895H44V5.52632ZM57.1228 13.4211H51.7193V15H57.1228V21.3158H48.6316L45.5439 18.1579V1.57895H51.7193V7.10526H57.1228V13.4211ZM71.0175 13.4211H64.8421V15H71.0175V21.3158H61.7544L58.6667 18.1579V10.2632L61.7544 7.10526H71.0175V13.4211ZM86.4561 21.3158H80.2807V13.4211H78.7368V21.3158H72.5614V1.57895H78.7368V7.10526H83.3684L86.4561 10.2632V21.3158Z" fill="white"/>
</svg>
