<svg width="108" height="28" viewBox="0 0 108 28" fill="none" xmlns="http://www.w3.org/2000/svg">
<path d="M0 23.4542H11.8631V19.6416H4.2939V5.09779H0V23.4542ZM17.8693 23.4542V10.8107H13.5758V23.4542H17.8693ZM15.7229 9.08473C17.2199 9.08473 18.1518 8.11379 18.1518 6.89976C18.124 5.65928 17.2199 4.71588 15.7514 4.71588C14.2826 4.71588 13.3221 5.65964 13.3221 6.89976C13.3221 8.11379 14.2541 9.08473 15.6948 9.08473H15.7229V9.08473ZM19.8626 23.4542H24.1561V16.3932C24.1561 16.0153 24.1839 15.6375 24.2976 15.3683C24.6075 14.6133 25.3139 13.8311 26.5002 13.8311C28.0542 13.8311 28.6759 14.9908 28.6759 16.6895V23.4538H32.9686V16.2044C32.9686 12.3207 30.8504 10.5136 28.0253 10.5136C25.7094 10.5136 24.6923 11.7809 24.1272 12.6442H24.1561V10.8107H19.8626C19.9193 11.9972 19.8626 23.4542 19.8626 23.4542V23.4542ZM39.0259 5.09779H34.7324V23.4542H39.0259V19.3548L40.0989 18.0325L43.4605 23.4542H48.7422L43.0935 15.6055L48.0361 10.2661H42.8677C42.8677 10.2661 39.3369 15.0429 39.0259 15.6099V5.09779Z" fill="white"/>
<path d="M60.224 18.1802C60.2806 17.8555 60.3654 17.2327 60.3654 16.5284C60.3654 13.2601 58.6704 9.94188 54.2076 9.94188C49.4339 9.94188 47.2305 13.6372 47.2305 16.9889C47.2305 21.1341 49.9141 23.7226 54.6027 23.7226C56.4673 23.7226 58.1898 23.4538 59.6027 22.8872L59.0377 20.1117C57.8791 20.4878 56.6928 20.6762 55.2244 20.6762C53.219 20.6762 51.4681 19.8701 51.3266 18.153L60.224 18.1794V18.1802V18.1802ZM51.2985 15.3371C51.4114 14.2582 52.1464 12.6663 53.9822 12.6663C55.9308 12.6663 56.3833 14.3658 56.3833 15.3371H51.2989H51.2985ZM70.963 5.09784V11.4523H70.9064C70.2847 10.5629 68.9855 9.96942 67.2634 9.96942C63.9581 9.96942 61.049 12.5583 61.0767 16.9812C61.0767 21.0808 63.7041 23.7509 66.9801 23.7509C68.76 23.7509 70.4543 22.9952 71.3022 21.5388H71.3866L71.5565 23.4542H75.3695C75.3132 22.5641 75.2562 21.0269 75.2562 19.5165V5.09747H70.9626L70.963 5.09784ZM70.963 17.6018C70.963 17.9249 70.9349 18.2492 70.8779 18.518C70.6246 19.6784 69.6075 20.4867 68.3645 20.4867C66.5855 20.4867 65.4269 19.0846 65.4269 16.8732C65.4269 14.7969 66.4163 13.1246 68.3931 13.1246C69.7204 13.1246 70.6524 14.0144 70.9067 15.1197C70.963 15.3632 70.963 15.6331 70.963 15.8755V17.6014V17.6018Z" fill="white"/>
<path fill-rule="evenodd" clip-rule="evenodd" d="M81.6747 0C80.5147 0 79.5737 0.898594 79.5737 2.00577V25.995C79.5737 27.1021 80.5147 28 81.6747 28H105.899C107.06 28 108 27.1021 108 25.9946V2.00577C108 0.898594 107.06 0 105.899 0H81.6747ZM88.1908 10.7952V23.4387H83.8973V10.7952H88.1908ZM88.4737 6.88503C88.4737 8.09834 87.5418 9.06927 86.0448 9.06927H86.0444H86.0167C84.5756 9.06927 83.644 8.09834 83.644 6.88503C83.644 5.64419 84.6037 4.70043 86.0733 4.70043C87.5417 4.70043 88.4456 5.64419 88.4737 6.88503ZM94.8603 23.4387H90.5672C90.5675 23.3641 90.6233 11.9778 90.5676 10.7956H94.8607V12.5855C95.4313 11.7241 96.4527 10.4989 98.7303 10.4989C101.555 10.4989 103.673 12.306 103.673 16.1894V23.4387H99.3797V16.6756C99.3797 14.9757 98.758 13.8164 97.2048 13.8164C96.0185 13.8164 95.312 14.5982 95.0018 15.3536C94.8885 15.6231 94.8603 16.0013 94.8603 16.3788V23.4387ZM90.5672 23.4391V23.4387Z" fill="white"/>
</svg>
