<svg width="112" height="34" viewBox="0 0 112 34" fill="none" xmlns="http://www.w3.org/2000/svg">
<path d="M16.7958 0C7.51994 0 0 7.61111 0 16.9997C0 26.3893 7.51994 34 16.7958 34C26.0721 34 33.5916 26.3893 33.5916 16.9997C33.5916 7.61171 26.0725 0.000811382 16.7956 0.000811382L16.7958 0V0ZM24.4983 24.5184C24.1966 25.0192 23.552 25.1762 23.0588 24.871C19.1147 22.4312 14.1504 21.88 8.30392 23.2318C7.74055 23.3626 7.17897 23.0051 7.05062 22.435C6.92165 21.8648 7.27323 21.2964 7.83802 21.1665C14.236 19.686 19.724 20.3232 24.1511 23.0613C24.6445 23.3678 24.8009 24.0195 24.498 24.5188L24.4983 24.5184V24.5184ZM26.554 19.8902C26.1742 20.514 25.3683 20.7097 24.7528 20.3267C20.2391 17.5184 13.3563 16.7049 8.01633 18.3456C7.32377 18.5573 6.59232 18.1623 6.38213 17.4625C6.17354 16.7616 6.56405 16.0227 7.25539 15.8095C13.3551 13.9362 20.938 14.8436 26.1226 18.0683C26.7383 18.452 26.9329 19.268 26.5538 19.8904L26.554 19.8902ZM26.7305 15.0702C21.3165 11.8159 12.3862 11.5166 7.21786 13.1043C6.38794 13.3591 5.51027 12.8849 5.25877 12.0448C5.00726 11.2044 5.47538 10.3167 6.30591 10.0613C12.2388 8.23838 22.1015 8.59058 28.3338 12.3353C29.0803 12.7838 29.3252 13.7596 28.8828 14.5141C28.4415 15.2697 27.4748 15.5188 26.7307 15.0702H26.7305V15.0702ZM45.6958 15.6938C42.7959 14.9938 42.2796 14.5026 42.2796 13.4703C42.2796 12.4951 43.1868 11.8388 44.5358 11.8388C45.8434 11.8388 47.1401 12.3372 48.4995 13.3631C48.5406 13.3942 48.5922 13.4066 48.6429 13.3985C48.6937 13.3907 48.7386 13.3625 48.7683 13.3201L50.1842 11.2998C50.2424 11.2166 50.2266 11.1019 50.1481 11.0384C48.5302 9.72435 46.7083 9.0855 44.5787 9.0855C41.4475 9.0855 39.2604 10.9874 39.2604 13.7086C39.2604 16.6268 41.1471 17.6601 44.4074 18.4576C47.1824 19.1046 47.6507 19.6466 47.6507 20.6155C47.6507 21.6892 46.7037 22.3567 45.1796 22.3567C43.4868 22.3567 42.1062 21.7796 40.5616 20.4257C40.5233 20.3922 40.4707 20.377 40.4222 20.3799C40.3711 20.3841 40.3243 20.4081 40.2919 20.4477L38.7042 22.3601C38.6376 22.4395 38.646 22.5581 38.7231 22.6267C40.5201 24.2505 42.7303 25.1082 45.1154 25.1082C48.4895 25.1082 50.6698 23.2422 50.6698 20.3541C50.6758 17.9161 49.2338 16.5661 45.7019 15.6964L45.6958 15.6938V15.6938ZM58.3033 12.799C56.8408 12.799 55.6412 13.382 54.652 14.5767V13.232C54.652 13.1258 54.567 13.0393 54.4623 13.0393H51.8656C51.7607 13.0393 51.6758 13.1258 51.6758 13.232V28.1733C51.6758 28.2794 51.7607 28.3659 51.8656 28.3659H54.4623C54.567 28.3659 54.652 28.2794 54.652 28.1733V23.4569C55.6414 24.5808 56.8412 25.1299 58.3033 25.1299C61.0207 25.1299 63.7716 23.0126 63.7716 18.9651C63.7757 14.9167 61.0239 12.7988 58.3063 12.7988L58.3033 12.799ZM60.7521 18.9651C60.7521 21.0262 59.4978 22.4645 57.7018 22.4645C55.9262 22.4645 54.5868 20.9608 54.5868 18.9651C54.5868 16.9697 55.9262 15.4658 57.7018 15.4658C59.4687 15.4656 60.7524 16.937 60.7524 18.9649L60.7521 18.9651V18.9651ZM70.8225 12.799C67.3228 12.799 64.5811 15.5265 64.5811 19.0092C64.5811 22.4539 67.304 25.1528 70.7795 25.1528C74.2916 25.1528 77.0417 22.4344 77.0417 18.9651C77.0417 15.5078 74.31 12.7994 70.8223 12.7994L70.8225 12.799V12.799ZM70.8225 22.485C68.961 22.485 67.5577 20.9712 67.5577 18.9641C67.5577 16.9485 68.9125 15.4859 70.7795 15.4859C72.653 15.4859 74.0658 16.9997 74.0658 19.0082C74.0658 21.0234 72.7019 22.485 70.8226 22.485H70.8225V22.485ZM84.5149 13.0394H81.6575V10.0824C81.6575 9.97648 81.5729 9.89 81.468 9.89H78.8717C78.7666 9.89 78.6813 9.97648 78.6813 10.0824V13.0394H77.4328C77.3283 13.0394 77.2437 13.1258 77.2437 13.232V15.4908C77.2437 15.5968 77.3283 15.6834 77.4328 15.6834H78.6813V21.528C78.6813 23.8899 79.8428 25.0875 82.1334 25.0875C83.0649 25.0875 83.8376 24.8928 84.5659 24.4748C84.625 24.4413 84.6617 24.3768 84.6617 24.3081V22.1571C84.6617 22.0908 84.6276 22.028 84.5715 21.9933C84.5149 21.9574 84.4445 21.9556 84.3866 21.9846C83.8863 22.2394 83.4028 22.3569 82.8623 22.3569C82.0291 22.3569 81.6575 21.974 81.6575 21.116V15.6845H84.5149C84.6198 15.6845 84.7043 15.598 84.7043 15.4918V13.2332C84.7083 13.1271 84.624 13.0406 84.5177 13.0406L84.5149 13.0394V13.0394ZM94.4709 13.0509V12.6877C94.4709 11.6193 94.8757 11.1429 95.7834 11.1429C96.3247 11.1429 96.7596 11.2517 97.2465 11.4161C97.3065 11.4352 97.3691 11.4257 97.4178 11.3894C97.468 11.353 97.4962 11.2948 97.4962 11.233V9.0183C97.4962 8.93364 97.4425 8.85874 97.3618 8.83377C96.8474 8.67887 96.1892 8.51992 95.2036 8.51992C92.8052 8.51992 91.5375 9.88694 91.5375 12.4717V13.028H90.29C90.1853 13.028 90.0994 13.1144 90.0994 13.2204V15.4908C90.0994 15.5967 90.1853 15.6834 90.29 15.6834H91.5375V24.6985C91.5375 24.8046 91.6221 24.8911 91.7268 24.8911H94.3235C94.4284 24.8911 94.5139 24.8046 94.5139 24.6985V15.684H96.9383L100.652 24.6969C100.231 25.6439 99.8159 25.8323 99.25 25.8323C98.7925 25.8323 98.3107 25.694 97.8181 25.4212C97.7718 25.3954 97.7168 25.3911 97.6669 25.4068C97.6174 25.4244 97.5757 25.4618 97.5546 25.5105L96.6745 27.4648C96.6326 27.5572 96.6685 27.6656 96.7564 27.7135C97.6751 28.2171 98.5045 28.4321 99.5296 28.4321C101.447 28.4321 102.507 27.5281 103.441 25.0962L107.946 13.314C107.968 13.2547 107.962 13.1877 107.926 13.1352C107.89 13.083 107.832 13.0515 107.77 13.0515H105.066C104.985 13.0515 104.913 13.1037 104.886 13.1806L102.117 21.1866L99.0841 13.1754C99.0564 13.1009 98.9854 13.0515 98.9068 13.0515H94.4703L94.4709 13.0509V13.0509ZM88.6987 13.0394H86.102C85.9971 13.0394 85.9117 13.1258 85.9117 13.232V24.6985C85.9117 24.8047 85.9971 24.8911 86.102 24.8911H88.6987C88.8034 24.8911 88.889 24.8047 88.889 24.6985V13.2328C88.8891 13.2075 88.8842 13.1824 88.8746 13.159C88.8651 13.1355 88.851 13.1143 88.8333 13.0964C88.8156 13.0785 88.7946 13.0643 88.7714 13.0546C88.7483 13.045 88.7235 13.0401 88.6985 13.0402L88.6987 13.0394ZM87.4151 7.81838C86.3864 7.81838 85.5516 8.66122 85.5516 9.70242C85.5516 10.7442 86.3866 11.5881 87.4151 11.5881C88.4434 11.5881 89.2773 10.7442 89.2773 9.70242C89.2773 8.66143 88.443 7.81838 87.4161 7.81838H87.4151V7.81838ZM110.163 16.726C109.135 16.726 108.336 15.8907 108.336 14.8763C108.336 13.8619 109.146 13.017 110.173 13.017C111.2 13.017 112 13.8522 112 14.8657C112 15.8801 111.19 16.726 110.163 16.726H110.163V16.726ZM110.173 13.2009C109.237 13.2009 108.529 13.9541 108.529 14.8763C108.529 15.7981 109.232 16.5411 110.164 16.5411C111.099 16.5411 111.808 15.7886 111.808 14.8657C111.808 13.9439 111.104 13.2009 110.174 13.2009H110.173V13.2009ZM110.578 15.0559L111.095 15.7884H110.659L110.194 15.1165H109.794V15.7884H109.429V13.8469H110.284C110.73 13.8469 111.023 14.0777 111.023 14.4662C111.025 14.7846 110.843 14.979 110.58 15.056H110.578V15.0559ZM110.269 14.18H109.794V14.7941H110.269C110.507 14.7941 110.649 14.6766 110.649 14.4868C110.649 14.287 110.506 14.18 110.27 14.18H110.269V14.18Z" fill="white"/>
</svg>
