<svg width="100" height="32" viewBox="0 0 100 32" fill="none" xmlns="http://www.w3.org/2000/svg">
<path fill-rule="evenodd" clip-rule="evenodd" d="M32.3055 16C32.3055 24.8366 25.0737 32 16.1527 32C7.23183 32 0 24.8366 0 16C0 7.16344 7.23183 0 16.1527 0C25.0737 0 32.3055 7.16344 32.3055 16ZM24.48 13.7489C25.7849 13.7052 26.877 14.7114 26.9252 16C26.9412 16.8988 26.4313 17.726 25.6203 18.1277C25.6363 18.3624 25.6363 18.597 25.6203 18.8317C25.6203 22.4191 21.4044 25.3303 16.2049 25.3303C11.0053 25.3303 6.78945 22.4151 6.78945 18.8317C6.77339 18.597 6.77339 18.3624 6.78945 18.1277C6.55256 18.0243 6.33976 17.8772 6.15506 17.7062C5.20348 16.8232 5.15932 15.3437 6.05067 14.4051C6.94202 13.4626 8.43564 13.4188 9.3832 14.3017C11.2462 13.0529 13.4344 12.3688 15.6829 12.3331L16.8754 6.78098V6.77302C16.9356 6.50258 17.2046 6.33554 17.4736 6.3952L21.4325 7.17869C21.6855 6.74121 22.1432 6.4469 22.6531 6.3952C23.5404 6.29975 24.3354 6.93609 24.4318 7.81503C24.5282 8.69398 23.8857 9.48145 22.9984 9.5769C22.1111 9.67235 21.3161 9.03601 21.2197 8.15707L17.7627 7.4372L16.7148 12.4285C18.9351 12.4762 21.0952 13.1563 22.9342 14.3972C23.3517 14.0034 23.9018 13.7688 24.48 13.7489ZM12.3905 16C11.4992 16 10.7724 16.7198 10.7724 17.6028C10.7724 18.4857 11.4951 19.1976 12.3905 19.2055C13.2819 19.2055 14.0086 18.4857 14.0086 17.6028C14.0086 16.7198 13.2819 16 12.3905 16ZM16.1647 23.2344C17.6021 23.294 19.0074 22.8565 20.1557 22.0015V22.0651C20.3324 21.8941 20.3364 21.6077 20.1637 21.4327C19.9911 21.2577 19.702 21.2538 19.5253 21.4248C18.5416 22.1208 17.3532 22.4628 16.1486 22.3992C14.9441 22.4549 13.7597 22.0969 12.788 21.393C12.6234 21.2617 12.3945 21.2617 12.2339 21.393C12.0492 21.5441 12.0211 21.8185 12.1737 22.0015C13.322 22.8565 14.7273 23.294 16.1647 23.2344ZM18.2485 17.6584C18.2485 18.5414 18.9753 19.2612 19.8666 19.2612L19.8546 19.3209H19.9349C20.8262 19.2851 21.5208 18.5414 21.4847 17.6584C21.4847 16.7755 20.758 16.0556 19.8666 16.0556C18.9753 16.0556 18.2485 16.7755 18.2485 17.6584Z" fill="white"/>
<path d="M90.1187 11.1201C91.3339 11.1201 92.319 10.1443 92.319 8.94064C92.319 7.73695 91.3339 6.76117 90.1187 6.76117C88.9036 6.76117 87.9185 7.73695 87.9185 8.94064C87.9185 10.1443 88.9036 11.1201 90.1187 11.1201Z" fill="white"/>
<path d="M58.9379 18.2153C59.7891 18.275 60.5279 17.6386 60.5922 16.7915C60.5962 16.7438 60.5962 16.6881 60.5962 16.6364C60.5841 16.3421 60.548 16.0438 60.4878 15.7535C59.9658 12.9933 57.5848 10.961 54.7542 10.8497C51.5301 10.8497 48.8359 13.7848 48.8359 17.3881C48.8359 20.9914 51.4859 23.9305 54.7502 23.9305C56.4807 23.9981 58.159 23.306 59.3234 22.0373C59.8012 21.5203 59.761 20.7209 59.2391 20.2476C59.1989 20.2118 59.1628 20.18 59.1226 20.1522C58.6007 19.83 57.9221 19.8976 57.4804 20.3192C56.7537 21.0351 55.778 21.4447 54.7502 21.4766C52.9755 21.3374 51.5542 19.9613 51.3775 18.1994H58.8897L58.9379 18.2153ZM54.7381 13.3115C56.3 13.4149 57.6129 14.5206 57.9623 16.0358H51.522C51.8673 14.5166 53.1722 13.4109 54.7381 13.3115Z" fill="white"/>
<path d="M48.9639 12.1183C48.9639 11.5058 48.5062 10.9848 47.8919 10.9092C46.2337 10.6348 44.5473 11.2433 43.4592 12.516V12.3569C43.4592 11.6768 42.9052 11.128 42.2186 11.128C41.532 11.128 40.9779 11.6768 40.9779 12.3569V22.4191C40.9618 23.0793 41.4718 23.64 42.1383 23.6957C42.8168 23.7434 43.4111 23.2344 43.4552 22.5622C43.4592 22.5145 43.4592 22.4668 43.4552 22.4191V17.2567C43.3468 15.1966 44.9408 13.4427 47.0206 13.3313C47.2053 13.3194 47.394 13.3234 47.5787 13.3432H47.8277C48.4701 13.2876 48.9639 12.7586 48.9639 12.1183Z" fill="white"/>
<path d="M91.3554 13.4388C91.3554 12.7587 90.8013 12.2098 90.1147 12.2098C89.4281 12.2098 88.874 12.7587 88.874 13.4388V22.4152C88.874 23.0952 89.4281 23.6441 90.1147 23.6441C90.8013 23.6441 91.3554 23.0952 91.3554 22.4152V13.4388Z" fill="white"/>
<path d="M73.0468 6.61796C73.0468 5.94185 72.4927 5.39301 71.8101 5.39301C71.1276 5.39301 70.5735 5.94185 70.5735 6.61796V12.1064C69.7383 11.2712 68.59 10.8178 67.4056 10.8496C64.1814 10.8496 61.4873 13.7848 61.4873 17.388C61.4873 20.9913 64.1413 23.9304 67.4056 23.9304C68.6101 23.9662 69.7745 23.5088 70.6297 22.6617C70.8224 23.31 71.509 23.6799 72.1635 23.489C72.6573 23.3458 73.0106 22.9162 73.0428 22.4032L73.0468 6.61796ZM67.3975 21.5083C65.4984 21.5083 63.9526 19.6789 63.9526 17.4159C63.9526 15.1529 65.4863 13.3234 67.3975 13.3234C69.3087 13.3234 70.8425 15.1529 70.8425 17.4159C70.8425 19.6789 69.3087 21.4885 67.4056 21.4885L67.3975 21.5083Z" fill="white"/>
<path d="M85.9833 6.61796C85.9833 5.94185 85.4292 5.39301 84.7466 5.39301C84.0641 5.39301 83.51 5.94185 83.51 6.61796V12.1064C82.6749 11.2712 81.5265 10.8178 80.3421 10.8496C77.118 10.8496 74.4238 13.7848 74.4238 17.388C74.4238 20.9913 77.0778 23.9304 80.3421 23.9304C81.5466 23.9662 82.711 23.5088 83.5662 22.6617C83.7589 23.31 84.4455 23.6799 85.1 23.489C85.5938 23.3458 85.9472 22.9162 85.9793 22.4032L85.9833 6.61796ZM80.3381 21.5083C78.4389 21.5083 76.8931 19.6789 76.8931 17.4159C76.8931 15.1529 78.4269 13.3234 80.3381 13.3234C82.2493 13.3234 83.783 15.1529 83.783 17.4159C83.783 19.6789 82.2493 21.4885 80.3461 21.4885L80.3381 21.5083Z" fill="white"/>
<path d="M97.7838 22.4111V13.3115H98.8558C99.4501 13.3473 99.956 12.8978 99.9921 12.3132C99.9921 12.2933 99.9961 12.2695 99.9961 12.2456C100.048 11.661 99.6107 11.1439 99.0245 11.0922C98.9924 11.0882 98.9562 11.0882 98.9241 11.0882H97.7878V9.39796C97.7959 8.74174 97.29 8.18892 96.6275 8.12926C95.9489 8.08153 95.3587 8.59061 95.3105 9.26274C95.3065 9.29058 95.3065 9.3224 95.3065 9.35024V11.1161H94.2304C93.6362 11.0803 93.1303 11.5297 93.0942 12.1143C93.0942 12.1342 93.0902 12.1581 93.0902 12.182C93.038 12.7666 93.4756 13.2836 94.0618 13.3353C94.0939 13.3393 94.1301 13.3393 94.1622 13.3393H95.2342V22.4151C95.2342 23.0912 95.7883 23.6401 96.4709 23.6401C97.1534 23.6838 97.7356 23.1668 97.7798 22.4907C97.7838 22.4668 97.7838 22.439 97.7838 22.4111Z" fill="white"/>
</svg>
