<svg width="44" height="44" viewBox="0 0 44 44" fill="none" xmlns="http://www.w3.org/2000/svg">
<path d="M14.7521 14.8476H29.2483M14.7521 14.8476H7.50395C6.54278 14.8476 5.62099 15.2294 4.94135 15.9091C4.2617 16.5887 3.87988 17.5105 3.87988 18.4717V36.592C3.87988 37.5532 4.2617 38.4749 4.94135 39.1546C5.62099 39.8342 6.54278 40.2161 7.50395 40.2161H36.4964C37.4576 40.2161 38.3794 39.8342 39.059 39.1546C39.7387 38.4749 40.1205 37.5532 40.1205 36.592V18.4717C40.1205 17.5105 39.7387 16.5887 39.059 15.9091C38.3794 15.2294 37.4576 14.8476 36.4964 14.8476H29.2483H14.7521ZM14.7521 14.8476V8.68671C14.7521 8.39836 14.8666 8.12182 15.0705 7.91793C15.2744 7.71403 15.5509 7.59949 15.8393 7.59949H28.1611C28.4495 7.59949 28.726 7.71403 28.9299 7.91793C29.1338 8.12182 29.2483 8.39836 29.2483 8.68671V14.8476H14.7521Z" stroke="#121213" stroke-width="2.5"/>
</svg>
