<svg width="44" height="54" viewBox="0 0 44 54" fill="none" xmlns="http://www.w3.org/2000/svg">
<path d="M38.7731 42.1998C38.7731 42.8585 38.5053 43.4903 38.0287 43.9561C37.552 44.4219 36.9056 44.6836 36.2315 44.6836H8.27446C7.6004 44.6836 6.95395 44.4219 6.47731 43.9561C6.00068 43.4903 5.73291 42.8585 5.73291 42.1998V9.91055C5.73291 9.25181 6.00068 8.62004 6.47731 8.15424C6.95395 7.68844 7.6004 7.42676 8.27446 7.42676H26.2839C26.9575 7.4269 27.6035 7.68835 28.0799 8.15368L38.0293 17.8769C38.5054 18.3425 38.7729 18.9738 38.7731 19.6321V42.1998Z" stroke="#121213" stroke-width="2.5" stroke-linecap="round" stroke-linejoin="round"/>
<path d="M38.7732 19.8457H28.607C27.9329 19.8457 27.2865 19.584 26.8098 19.1182C26.3332 18.6524 26.0654 18.0207 26.0654 17.3619V7.42676" stroke="#121213" stroke-width="2.5" stroke-linecap="round" stroke-linejoin="round"/>
<path d="M18.3033 22.0942L14.6909 26.8002C14.5817 26.9424 14.4424 27.06 14.2826 27.1451C14.1227 27.2301 13.9461 27.2806 13.7645 27.2932C13.583 27.3058 13.4008 27.2801 13.2303 27.2179C13.0598 27.1556 12.905 27.0584 12.7763 26.9326L10.8159 25.0185" stroke="#121213" stroke-width="2.5" stroke-linecap="round" stroke-linejoin="round"/>
<path d="M18.3033 33.2713L14.6909 37.9772C14.5817 38.1194 14.4424 38.2371 14.2826 38.3221C14.1227 38.4072 13.9461 38.4577 13.7645 38.4703C13.583 38.4828 13.4008 38.4571 13.2303 38.3949C13.0598 38.3327 12.905 38.2354 12.7763 38.1097L10.8159 36.1939" stroke="#121213" stroke-width="2.5" stroke-linecap="round" stroke-linejoin="round"/>
<path d="M23.5239 27.2971H31.1486" stroke="#121213" stroke-width="2.5" stroke-linecap="round" stroke-linejoin="round"/>
<path d="M23.5239 37.2322H31.1486" stroke="#121213" stroke-width="2.5" stroke-linecap="round" stroke-linejoin="round"/>
</svg>
