<svg width="44" height="50" viewBox="0 0 44 50" fill="none" xmlns="http://www.w3.org/2000/svg">
<path d="M40.7093 18.4345C40.7159 21.3239 39.5768 24.1035 37.5312 26.1898C32.8408 30.9425 28.2908 35.898 23.4275 40.4761C22.3112 41.5089 20.5415 41.4714 19.4751 40.3916L5.45791 26.1917C1.22106 21.899 1.22106 14.9699 5.45791 10.6791C6.45927 9.65195 7.66364 8.83421 8.99802 8.27548C10.3324 7.71674 11.769 7.42864 13.2207 7.42864C14.6724 7.42864 16.1089 7.71674 17.4433 8.27548C18.7777 8.83421 19.9821 9.65195 20.9834 10.6791L21.4945 11.1936L22.0037 10.6791C23.0071 9.65439 24.2118 8.83814 25.5457 8.27929C26.8796 7.72043 28.3152 7.43046 29.7665 7.42676C32.6871 7.42676 35.479 8.59851 37.5292 10.6791C39.5756 12.7651 40.7154 15.5447 40.7093 18.4345V18.4345Z" stroke="#121213" stroke-width="2.5" stroke-linejoin="round"/>
</svg>
