<svg width="328" height="328" viewBox="0 0 328 328" fill="none" xmlns="http://www.w3.org/2000/svg">
<mask id="mask0_1331_35820" style="mask-type:alpha" maskUnits="userSpaceOnUse" x="0" y="0" width="328" height="328">
<rect width="328" height="328" fill="#C4C4C4"/>
</mask>
<g mask="url(#mask0_1331_35820)">
<rect x="1.84898" y="-0.000244141" width="328" height="328" fill="#F2F2F7"/>
<g opacity="0.8">
<g filter="url(#filter0_f_1331_35820)">
<circle cx="108.815" cy="338.903" r="128.002" transform="rotate(-180 108.815 338.903)" fill="url(#paint0_linear_1331_35820)"/>
</g>
<g filter="url(#filter1_f_1331_35820)">
<path d="M264.215 349.176C257.375 379.728 300.502 396.087 290.579 426.242C273.167 479.156 151.565 368.731 167.709 315.63C174.475 293.377 184.786 279.729 210.49 265.31C257.14 239.139 337.682 228.539 365.031 265.31C393.136 303.096 273.595 307.275 264.215 349.176Z" fill="#4ACFFF"/>
</g>
<g filter="url(#filter2_f_1331_35820)">
<circle cx="23.9852" cy="298.508" r="50.7464" transform="rotate(-180 23.9852 298.508)" fill="#3354FF"/>
</g>
</g>
</g>
<path d="M97.8606 50.5146C99.6415 49.9319 100.616 48.0064 100.037 46.2139C99.4583 44.4213 97.5453 43.4404 95.7644 44.023C93.9835 44.6057 93.009 46.5312 93.5879 48.3238C94.1667 50.1164 96.0797 51.0972 97.8606 50.5146Z" fill="#EAEEF9"/>
<path d="M79.5735 104.156C81.3544 103.573 82.3289 101.647 81.75 99.8549C81.1712 98.0623 79.2582 97.0814 77.4773 97.6641C75.6964 98.2467 74.7219 100.172 75.3008 101.965C75.8796 103.757 77.7926 104.738 79.5735 104.156Z" fill="#EAEEF9"/>
<path d="M169.04 66.029V100.204C169.04 103.176 167.311 106.147 164.841 107.633L138.656 122.74C137.174 123.73 135.198 124.225 133.469 124.225V81.6306L167.805 61.8191C168.793 63.0573 169.04 64.5432 169.04 66.029Z" fill="#E6E6EB"/>
<path opacity="0.6" d="M133.469 81.6306V124.225C131.74 124.225 130.011 123.73 128.281 122.74L102.097 107.633C99.3799 106.147 97.8978 103.423 97.8978 100.204V66.029C97.8978 64.5432 98.3919 63.0573 99.1329 61.8191L133.469 81.6306Z" fill="#F2F2F7"/>
<path d="M99.8296 61.3987C100.509 60.3582 101.371 59.3984 102.568 58.7983L102.581 58.7918L102.593 58.7846L129.272 43.4307L129.272 43.4308L129.28 43.4258C131.58 42.0422 134.604 42.0233 137.191 43.1945L164.836 59.2787L164.953 59.3466H165.087H165.088H165.088H165.088H165.088H165.088H165.088H165.088H165.088H165.088H165.088H165.088H165.088H165.088H165.088H165.089H165.089H165.089H165.089H165.089H165.089H165.089H165.089H165.089H165.089H165.089H165.09H165.09H165.09H165.09H165.09H165.09H165.09H165.09H165.09H165.09H165.09H165.09H165.09H165.09H165.09H165.091H165.091H165.091H165.091H165.091H165.091H165.091H165.091H165.091H165.091H165.091H165.091H165.092H165.092H165.092H165.092H165.092H165.092H165.092H165.092H165.092H165.093H165.093H165.093H165.093H165.093H165.093H165.093H165.093H165.093H165.094H165.094H165.094H165.094H165.094H165.094H165.094H165.094H165.095H165.095H165.095H165.095H165.095H165.095H165.095H165.096H165.096H165.096H165.096H165.096H165.096H165.096H165.097H165.097H165.097H165.097H165.097H165.097H165.098H165.098H165.098H165.098H165.098H165.099H165.099H165.099H165.099H165.099H165.099H165.1H165.1H165.1H165.1H165.1H165.101H165.101H165.101H165.101H165.102H165.102H165.102H165.102H165.102H165.103H165.103H165.103H165.103H165.104H165.104H165.104H165.104H165.104H165.105H165.105H165.105H165.105H165.106H165.106H165.106H165.107H165.107H165.107H165.107H165.108H165.108H165.108H165.108H165.109H165.109H165.109H165.11H165.11H165.11H165.11H165.111H165.111H165.111H165.112H165.112H165.112H165.113H165.113H165.113H165.114H165.114H165.114H165.115H165.115H165.115H165.116H165.116H165.116H165.117H165.117H165.117H165.118H165.118H165.118H165.119H165.119H165.119H165.12H165.12H165.121H165.121H165.121H165.122H165.122H165.122H165.123H165.123H165.124H165.124H165.124H165.125H165.125H165.126H165.126H165.127H165.127H165.127H165.128H165.128H165.129H165.129H165.13H165.13H165.131H165.131H165.131H165.132H165.132H165.133H165.133H165.134H165.134H165.135H165.135H165.136H165.136H165.137H165.137H165.138H165.138H165.139H165.139H165.14H165.14H165.141H165.141H165.142H165.142H165.143H165.143H165.144H165.144H165.145H165.146H165.146H165.147H165.147H165.148H165.148H165.149H165.149H165.15H165.151H165.151H165.152H165.152H165.153H165.154H165.154H165.155H165.155H165.156H165.157H165.157H165.158H165.159H165.159H165.16H165.16H165.161H165.162H165.162H165.163H165.164H165.164H165.165H165.165C165.958 59.9614 166.703 60.719 167.162 61.612L133.47 81.0517L99.8296 61.3987Z" fill="white" stroke="#E6E6EB"/>
<path d="M240.182 66.0292V100.204C240.182 103.176 238.453 106.148 235.983 107.633L209.799 122.74C208.317 123.73 206.34 124.226 204.611 124.226V81.6308L238.947 61.8192C239.935 63.0574 240.182 64.5433 240.182 66.0292Z" fill="#E6E6EB"/>
<path opacity="0.6" d="M204.611 81.6308V124.226C202.882 124.226 201.153 123.73 199.424 122.74L173.486 107.633C170.769 106.148 169.287 103.423 169.287 100.204V66.0292C169.287 64.5433 169.781 63.0574 170.522 61.8192L204.611 81.6308Z" fill="#F2F2F7"/>
<path d="M170.973 61.3981C171.652 60.3582 172.514 59.399 173.71 58.7991L173.724 58.7923L173.737 58.7847L200.662 43.1831L200.662 43.1832L200.669 43.179C202.97 41.7954 205.993 41.7765 208.581 42.9477L236.225 59.0319L236.477 58.5997V58.7845L236.323 58.8993C236.593 59.2597 236.899 59.6254 237.203 59.9899C237.327 60.1382 237.451 60.2864 237.573 60.4339C237.894 60.8248 238.207 61.2237 238.492 61.6469L204.859 81.053L170.973 61.3981Z" fill="white" stroke="#E6E6EB"/>
<path d="M169.287 195.299V229.474C169.287 232.446 167.558 235.418 165.088 236.903L138.903 252.01C137.421 253 135.445 253.496 133.716 253.496V210.901L168.052 191.089C168.793 192.327 169.287 193.813 169.287 195.299Z" fill="#E6E6EB"/>
<path opacity="0.6" d="M133.716 210.901V253.496C131.987 253.496 130.258 253 128.528 252.01L102.344 236.903C99.6269 235.418 98.1447 232.693 98.1447 229.474V195.299C98.1447 193.813 98.6388 192.327 99.3799 191.089L133.716 210.901Z" fill="#F2F2F7"/>
<path d="M166.23 187.812C166.143 187.725 166.057 187.638 165.972 187.553L165.936 187.517L165.789 187.37H165.582H165.58H165.579H165.577H165.576H165.574H165.573H165.572H165.57H165.569H165.567H165.566H165.565H165.563H165.562H165.561H165.559H165.558H165.556H165.555H165.554H165.552H165.551H165.55H165.548H165.547H165.546H165.545H165.543H165.542H165.541H165.539H165.538H165.537H165.536H165.534H165.533H165.532H165.531H165.529H165.528H165.527H165.526H165.524H165.523H165.522H165.521H165.52H165.518H165.517H165.516H165.515H165.514H165.513H165.511H165.51H165.509H165.508H165.507H165.506H165.505H165.503H165.502H165.501H165.5H165.499H165.498H165.497H165.496H165.495H165.494H165.492H165.491H165.49H165.489H165.488H165.487H165.486H165.485H165.484H165.483H165.482H165.481H165.48H165.479H165.478H165.477H165.476H165.475H165.474H165.473H165.472H165.471H165.47H165.469L137.92 171.341L137.898 171.328L137.876 171.318C135.035 170.023 131.648 170.008 129.015 171.59L166.23 187.812ZM166.23 187.812L167.188 188.37H166.77M133.717 210.323L99.8306 190.668C100.51 189.628 101.371 188.669 102.568 188.069L102.582 188.062L102.595 188.055L129.52 172.453L129.52 172.453L129.527 172.449C131.827 171.065 134.851 171.046 137.439 172.218L165.083 188.302L165.335 187.87V188.116L165.228 188.223C165.263 188.259 165.299 188.294 165.335 188.33V188.37H165.335H165.335H165.335H165.335H165.335H165.335H165.335H165.335H165.335H165.335H165.335H165.335H165.335H165.336H165.336H165.336H165.336H165.336H165.336H165.336H165.336H165.336H165.336H165.336H165.337H165.337H165.337H165.337H165.337H165.337H165.337H165.337H165.337H165.337H165.337H165.337H165.337H165.337H165.338H165.338H165.338H165.338H165.338H165.338H165.338H165.338H165.338H165.338H165.338H165.338H165.339H165.339H165.339H165.339H165.339H165.339H165.339H165.339H165.339H165.339H165.34H165.34H165.34H165.34H165.34H165.34H165.34H165.34H165.34H165.341H165.341H165.341H165.341H165.341H165.341H165.341H165.341H165.342H165.342H165.342H165.342H165.342H165.342H165.342H165.343H165.343H165.343H165.343H165.343H165.343H165.343H165.344H165.344H165.344H165.344H165.344H165.344H165.345H165.345H165.345H165.345H165.345H165.345H165.346H165.346H165.346H165.346H165.346H165.347H165.347H165.347H165.347H165.347H165.348H165.348H165.348H165.348H165.348H165.349H165.349H165.349H165.349H165.35H165.35H165.35H165.35H165.35H165.351H165.351H165.351H165.351H165.352H165.352H165.352H165.352H165.353H165.353H165.353H165.353H165.354H165.354H165.354H165.354H165.355H165.355H165.355H165.356H165.356H165.356H165.356H165.357H165.357H165.357H165.358H165.358H165.358H165.358H165.359H165.359H165.359H165.36H165.36H165.36H165.361H165.361H165.361H165.362H165.362H165.362H165.363H165.363H165.363H165.364H165.364H165.364H165.365H165.365H165.365H165.366H165.366H165.367H165.367H165.367H165.368H165.368H165.368H165.369H165.369H165.37H165.37H165.37H165.371H165.371H165.372H165.372H165.372H165.373H165.373H165.374H165.374C166.202 189.201 166.949 189.982 167.409 190.883L133.717 210.323Z" fill="white" stroke="#E6E6EB"/>
<path d="M240.429 195.299V229.474C240.429 232.446 238.7 235.418 236.23 236.903L210.046 252.01C208.563 253 206.587 253.496 204.858 253.496V210.901L239.194 191.089C239.935 192.327 240.429 193.813 240.429 195.299Z" fill="#E6E6EB"/>
<path opacity="0.6" d="M204.858 210.901V253.496C203.129 253.496 201.4 253 199.671 252.01L173.486 236.903C170.769 235.418 169.287 232.693 169.287 229.474V195.299C169.287 193.813 169.781 192.327 170.522 191.089L204.858 210.901Z" fill="#F2F2F7"/>
<path d="M204.859 210.323L170.973 190.668C171.652 189.628 172.514 188.669 173.71 188.069L173.724 188.062L173.737 188.055L200.662 172.453L200.662 172.453L200.669 172.449C202.97 171.065 205.993 171.046 208.581 172.218L236.225 188.302L236.477 187.87L236.477 187.973L236.477 188.116L236.37 188.223C236.406 188.259 236.441 188.294 236.477 188.33V188.37H236.477H236.477H236.477H236.477H236.477H236.477H236.477H236.477H236.477H236.477H236.477H236.478H236.478H236.478H236.478H236.478H236.478H236.478H236.478H236.478H236.478H236.478H236.478H236.479H236.479H236.479H236.479H236.479H236.479H236.479H236.479H236.479H236.479H236.479H236.479H236.479H236.479H236.48H236.48H236.48H236.48H236.48H236.48H236.48H236.48H236.48H236.48H236.48H236.48H236.481H236.481H236.481H236.481H236.481H236.481H236.481H236.481H236.481H236.481H236.481H236.482H236.482H236.482H236.482H236.482H236.482H236.482H236.482H236.482H236.483H236.483H236.483H236.483H236.483H236.483H236.483H236.483H236.484H236.484H236.484H236.484H236.484H236.484H236.484H236.485H236.485H236.485H236.485H236.485H236.485H236.485H236.486H236.486H236.486H236.486H236.486H236.486H236.487H236.487H236.487H236.487H236.487H236.487H236.488H236.488H236.488H236.488H236.488H236.489H236.489H236.489H236.489H236.489H236.49H236.49H236.49H236.49H236.49H236.491H236.491H236.491H236.491H236.491H236.492H236.492H236.492H236.492H236.493H236.493H236.493H236.493H236.494H236.494H236.494H236.494H236.495H236.495H236.495H236.495H236.496H236.496H236.496H236.496H236.497H236.497H236.497H236.497H236.498H236.498H236.498H236.499H236.499H236.499H236.499H236.5H236.5H236.5H236.501H236.501H236.501H236.502H236.502H236.502H236.503H236.503H236.503H236.503H236.504H236.504H236.504H236.505H236.505H236.506H236.506H236.506H236.507H236.507H236.507H236.508H236.508H236.508H236.509H236.509H236.509H236.51H236.51H236.511H236.511H236.511H236.512H236.512H236.513H236.513H236.513H236.514H236.514H236.515H236.515H236.515H236.516H236.516C237.344 189.201 238.091 189.982 238.551 190.883L204.859 210.323Z" fill="white" stroke="#E6E6EB"/>
<path d="M133.469 130.664V164.839C133.469 167.811 131.74 170.783 129.27 172.269L103.085 187.375C101.603 188.366 99.627 188.861 97.8978 188.861V146.266L132.234 126.454C133.222 127.693 133.469 129.179 133.469 130.664Z" fill="#E6E6EB"/>
<path opacity="0.6" d="M97.8977 146.266V188.861C96.1686 188.861 94.4394 188.366 92.7103 187.375L66.526 172.269C63.8088 170.783 62.3267 168.059 62.3267 164.839V130.664C62.3267 129.179 62.8207 127.693 63.5618 126.454L97.8977 146.266Z" fill="#F2F2F7"/>
<path d="M98.1453 145.688L64.2594 126.033C64.9388 124.993 65.8003 124.034 66.997 123.434L67.0106 123.428L67.0237 123.42L93.949 107.818L93.949 107.818L93.956 107.814C96.2555 106.431 99.2778 106.412 101.865 107.582L129.26 123.912L129.516 123.483V123.811L129.463 123.882C129.481 123.896 129.499 123.909 129.516 123.923V123.983H129.516H129.517H129.517H129.517H129.517H129.517H129.517H129.517H129.517H129.517H129.517H129.517H129.517H129.517H129.517H129.517H129.518H129.518H129.518H129.518H129.518H129.518H129.518H129.518H129.518H129.518H129.518H129.519H129.519H129.519H129.519H129.519H129.519H129.519H129.519H129.519H129.519H129.519H129.519H129.519H129.52H129.52H129.52H129.52H129.52H129.52H129.52H129.52H129.52H129.52H129.52H129.52H129.521H129.521H129.521H129.521H129.521H129.521H129.521H129.521H129.521H129.521H129.522H129.522H129.522H129.522H129.522H129.522H129.522H129.522H129.522H129.523H129.523H129.523H129.523H129.523H129.523H129.523H129.524H129.524H129.524H129.524H129.524H129.524H129.524H129.525H129.525H129.525H129.525H129.525H129.525H129.525H129.526H129.526H129.526H129.526H129.526H129.526H129.527H129.527H129.527H129.527H129.527H129.527H129.528H129.528H129.528H129.528H129.528H129.529H129.529H129.529H129.529H129.529H129.53H129.53H129.53H129.53H129.53H129.531H129.531H129.531H129.531H129.532H129.532H129.532H129.532H129.532H129.533H129.533H129.533H129.533H129.534H129.534H129.534H129.534H129.535H129.535H129.535H129.535H129.536H129.536H129.536H129.537H129.537H129.537H129.537H129.538H129.538H129.538H129.539H129.539H129.539H129.539H129.54H129.54H129.54H129.541H129.541H129.541H129.542H129.542H129.542H129.542H129.543H129.543H129.543H129.544H129.544H129.544H129.545H129.545H129.546H129.546H129.546H129.547H129.547H129.547H129.548H129.548H129.548H129.549H129.549H129.55H129.55H129.55H129.551H129.551H129.551H129.552H129.552H129.553H129.553H129.553H129.554H129.554H129.555H129.555H129.556H129.556H129.556H129.557H129.557H129.558H129.558H129.559H129.559H129.559H129.56H129.56H129.561H129.561H129.562H129.562H129.563H129.563H129.564H129.564H129.565H129.565H129.566H129.566H129.567H129.567H129.568H129.568H129.569H129.569H129.57H129.57H129.571H129.571H129.572H129.572H129.573H129.573H129.574H129.574H129.575H129.576H129.576H129.577H129.577H129.578H129.578H129.579H129.58H129.58H129.581H129.581H129.582H129.583H129.583H129.584H129.584H129.585H129.586H129.586H129.587H129.587H129.588H129.589H129.589H129.59H129.591H129.591H129.592H129.593H129.593H129.594H129.594C130.379 124.591 131.15 125.358 131.778 126.283L98.1453 145.688Z" fill="white" stroke="#E6E6EB"/>
<path d="M276 130.664V164.839C276 167.811 274.271 170.783 271.801 172.269L245.616 187.375C244.134 188.366 242.158 188.861 240.429 188.861V146.266L274.765 126.454C275.506 127.693 276 129.179 276 130.664Z" fill="#E6E6EB"/>
<path opacity="0.6" d="M240.429 146.266V188.861C238.7 188.861 236.971 188.366 235.241 187.375L209.057 172.269C206.34 170.783 204.858 168.059 204.858 164.839V130.664C204.858 129.179 205.352 127.693 206.093 126.454L240.429 146.266Z" fill="#F2F2F7"/>
<path d="M240.43 145.688L206.544 126.033C207.223 124.993 208.085 124.034 209.281 123.434L209.295 123.428L209.308 123.42L236.233 107.818L236.233 107.818L236.24 107.814C238.54 106.431 241.562 106.412 244.149 107.582L271.545 123.912L271.801 123.483V123.69V123.893L271.79 123.911C271.794 123.913 271.797 123.915 271.801 123.918V123.983H271.801H271.801H271.801H271.801H271.801H271.801H271.801H271.801H271.801H271.801H271.801H271.802H271.802H271.802H271.802H271.802H271.802H271.802H271.802H271.802H271.802H271.802H271.802H271.803H271.803H271.803H271.803H271.803H271.803H271.803H271.803H271.803H271.803H271.803H271.803H271.803H271.803H271.803H271.804H271.804H271.804H271.804H271.804H271.804H271.804H271.804H271.804H271.804H271.804H271.804H271.805H271.805H271.805H271.805H271.805H271.805H271.805H271.805H271.805H271.805H271.806H271.806H271.806H271.806H271.806H271.806H271.806H271.806H271.806H271.807H271.807H271.807H271.807H271.807H271.807H271.807H271.807H271.808H271.808H271.808H271.808H271.808H271.808H271.808H271.809H271.809H271.809H271.809H271.809H271.809H271.809H271.81H271.81H271.81H271.81H271.81H271.81H271.811H271.811H271.811H271.811H271.811H271.811H271.812H271.812H271.812H271.812H271.812H271.813H271.813H271.813H271.813H271.813H271.814H271.814H271.814H271.814H271.814H271.815H271.815H271.815H271.815H271.815H271.816H271.816H271.816H271.816H271.817H271.817H271.817H271.817H271.817H271.818H271.818H271.818H271.818H271.819H271.819H271.819H271.82H271.82H271.82H271.82H271.821H271.821H271.821H271.821H271.822H271.822H271.822H271.823H271.823H271.823H271.823H271.824H271.824H271.824H271.825H271.825H271.825H271.826H271.826H271.826H271.826H271.827H271.827H271.827H271.828H271.828H271.828H271.829H271.829H271.829H271.83H271.83H271.831H271.831H271.831H271.832H271.832H271.832H271.833H271.833H271.833H271.834H271.834H271.835H271.835H271.835H271.836H271.836H271.837H271.837H271.837H271.838H271.838H271.839H271.839H271.839H271.84H271.84H271.841H271.841H271.842H271.842H271.842H271.843H271.843H271.844H271.844H271.845H271.845H271.846H271.846H271.847H271.847H271.847H271.848H271.848H271.849H271.849H271.85H271.85H271.851H271.851H271.852H271.852H271.853H271.853H271.854H271.854H271.855H271.856H271.856H271.857H271.857H271.858H271.858H271.859H271.859H271.86H271.86H271.861H271.862H271.862H271.863H271.863H271.864H271.864H271.865H271.866H271.866H271.867H271.867H271.868H271.869H271.869H271.87H271.871H271.871H271.872H271.872H271.873H271.874H271.874H271.875H271.876H271.876H271.877H271.878H271.878H271.879H271.88H271.88H271.881H271.882H271.882H271.883H271.884H271.884H271.885H271.886H271.887H271.887H271.888H271.889H271.889H271.89H271.891H271.892H271.892H271.893H271.894H271.895H271.895H271.896H271.897H271.898H271.899H271.899H271.9H271.901H271.902H271.902H271.903H271.904H271.905H271.906H271.906C272.833 124.569 273.46 125.319 274.069 126.278L240.43 145.688Z" fill="white" stroke="#E6E6EB"/>
<path d="M209.304 129.922V168.059C209.304 171.527 207.575 174.746 204.364 176.479L174.969 193.567C173.239 194.557 171.263 195.053 169.287 195.053V147.257L208.069 124.969C208.81 126.455 209.304 128.189 209.304 129.922Z" fill="url(#paint1_linear_1331_35820)"/>
<path d="M169.287 147.257V177.47V195.053C167.311 195.053 165.335 194.557 163.605 193.567L150.76 186.137L133.963 176.479C130.999 174.746 129.269 171.526 129.022 168.307V129.674C129.022 127.941 129.516 126.207 130.258 124.722L169.287 147.257Z" fill="url(#paint2_linear_1331_35820)"/>
<path d="M208.07 124.986L169.04 147.257L130.257 124.721C130.999 123.236 132.234 121.997 133.716 121.254L163.852 103.672C166.817 101.938 170.275 101.938 173.239 103.424L204.364 121.502C204.364 121.502 204.611 121.502 204.611 121.75C206.093 122.74 207.329 123.748 208.07 124.986Z" fill="url(#paint3_linear_1331_35820)"/>
<g filter="url(#filter3_b_1331_35820)">
<path d="M195.806 152.971C195.745 153.237 195.728 153.51 195.691 153.78C195.664 153.979 195.596 154.178 195.431 154.376C195.377 154.441 195.33 154.512 195.304 154.592C194.989 155.539 194.674 156.486 194.359 157.434C194.339 157.496 194.247 158.039 194.247 158.104V158.104C194.247 158.112 194.246 158.141 194.243 158.148C190.606 166.888 183.001 173.094 173.936 174.969C173.823 174.992 173.708 175.004 173.592 175.004V175.004C173.465 175.004 173.337 175.018 173.212 175.044C169.983 175.723 166.754 175.363 163.525 175.004C148.53 171.704 139.386 157.404 142.312 142.738C145.238 127.705 159.868 118.171 174.497 121.471C179.618 122.571 184.372 125.138 188.395 128.804C194.879 134.944 197.815 144.284 195.806 152.971Z" fill="white" fill-opacity="0.39"/>
</g>
<path d="M171.528 136.792L166.672 159.454" stroke="white" stroke-width="4.85609" stroke-linecap="round"/>
<path d="M179.621 154.598L186.096 148.123L179.621 141.648" stroke="white" stroke-width="4.85609" stroke-linecap="round" stroke-linejoin="round"/>
<path d="M158.578 154.598L152.103 148.123L158.578 141.648" stroke="white" stroke-width="4.85609" stroke-linecap="round" stroke-linejoin="round"/>
<defs>
<filter id="filter0_f_1331_35820" x="-146.122" y="83.9655" width="509.875" height="509.875" filterUnits="userSpaceOnUse" color-interpolation-filters="sRGB">
<feFlood flood-opacity="0" result="BackgroundImageFix"/>
<feBlend mode="normal" in="SourceGraphic" in2="BackgroundImageFix" result="shape"/>
<feGaussianBlur stdDeviation="63.4676" result="effect1_foregroundBlur_1331_35820"/>
</filter>
<filter id="filter1_f_1331_35820" x="39.3021" y="114.607" width="456.932" height="452.564" filterUnits="userSpaceOnUse" color-interpolation-filters="sRGB">
<feFlood flood-opacity="0" result="BackgroundImageFix"/>
<feBlend mode="normal" in="SourceGraphic" in2="BackgroundImageFix" result="shape"/>
<feGaussianBlur stdDeviation="63.4676" result="effect1_foregroundBlur_1331_35820"/>
</filter>
<filter id="filter2_f_1331_35820" x="-153.696" y="120.826" width="355.363" height="355.363" filterUnits="userSpaceOnUse" color-interpolation-filters="sRGB">
<feFlood flood-opacity="0" result="BackgroundImageFix"/>
<feBlend mode="normal" in="SourceGraphic" in2="BackgroundImageFix" result="shape"/>
<feGaussianBlur stdDeviation="63.4676" result="effect1_foregroundBlur_1331_35820"/>
</filter>
<filter id="filter3_b_1331_35820" x="122.562" y="101.612" width="93.0746" height="93.0215" filterUnits="userSpaceOnUse" color-interpolation-filters="sRGB">
<feFlood flood-opacity="0" result="BackgroundImageFix"/>
<feGaussianBlur in="BackgroundImage" stdDeviation="9.60321"/>
<feComposite in2="SourceAlpha" operator="in" result="effect1_backgroundBlur_1331_35820"/>
<feBlend mode="normal" in="SourceGraphic" in2="effect1_backgroundBlur_1331_35820" result="shape"/>
</filter>
<linearGradient id="paint0_linear_1331_35820" x1="108.815" y1="210.901" x2="108.815" y2="466.905" gradientUnits="userSpaceOnUse">
<stop stop-color="#FFD8FC"/>
<stop offset="1" stop-color="#5C41FF"/>
</linearGradient>
<linearGradient id="paint1_linear_1331_35820" x1="255.356" y1="186.527" x2="207.092" y2="82.7493" gradientUnits="userSpaceOnUse">
<stop stop-color="#D490F3"/>
<stop offset="0.487834" stop-color="#6A9AF8"/>
<stop offset="1" stop-color="#46C6FD"/>
</linearGradient>
<linearGradient id="paint2_linear_1331_35820" x1="114.875" y1="218.748" x2="218.692" y2="184.348" gradientUnits="userSpaceOnUse">
<stop stop-color="#D490F3"/>
<stop offset="0.487834" stop-color="#6A9AF8"/>
<stop offset="1" stop-color="#46C6FD"/>
</linearGradient>
<linearGradient id="paint3_linear_1331_35820" x1="166.836" y1="65.0225" x2="193.142" y2="177.162" gradientUnits="userSpaceOnUse">
<stop stop-color="#D490F3"/>
<stop offset="0.487834" stop-color="#6A9AF8"/>
<stop offset="1" stop-color="#46C6FD"/>
</linearGradient>
</defs>
</svg>
