<svg width="328" height="328" viewBox="0 0 328 328" fill="none" xmlns="http://www.w3.org/2000/svg">
<mask id="mask0_1331_35818" style="mask-type:alpha" maskUnits="userSpaceOnUse" x="0" y="0" width="328" height="328">
<rect width="328" height="328" fill="#C4C4C4"/>
</mask>
<g mask="url(#mask0_1331_35818)">
<rect width="328" height="328" fill="#F2F2F7"/>
<g opacity="0.8">
<g filter="url(#filter0_f_1331_35818)">
<circle cx="224.091" cy="298.875" r="128.002" fill="url(#paint0_linear_1331_35818)"/>
</g>
<g filter="url(#filter1_f_1331_35818)">
<path d="M68.6913 288.602C75.5313 258.05 32.4036 241.691 42.3264 211.536C59.7384 158.622 181.341 269.047 165.197 322.149C158.431 344.401 148.119 358.049 122.416 372.468C75.7657 398.639 -4.77575 409.239 -32.1254 372.468C-60.2304 334.682 59.3104 330.503 68.6913 288.602Z" fill="#4ACFFF"/>
</g>
<g filter="url(#filter2_f_1331_35818)">
<circle cx="308.921" cy="339.27" r="50.7464" fill="#3354FF"/>
</g>
</g>
</g>
<g filter="url(#filter3_d_1331_35818)">
<rect x="46.3707" y="61.8215" width="235.258" height="202.327" rx="16" fill="#FF0000" fill-opacity="0.01" shape-rendering="crispEdges"/>
</g>
<rect x="40.5757" y="56.9795" width="246.848" height="214.041" rx="15.5" fill="white" stroke="#E6E6EB"/>
<path opacity="0.6" d="M41.0681 85.3896H82.6486V271.439H57.0681C48.2316 271.439 41.0681 264.276 41.0681 255.439V85.3896Z" fill="#F2F2F7"/>
<circle cx="54.6805" cy="71.4225" r="4.29019" fill="#FF5166"/>
<circle cx="67.883" cy="71.4225" r="4.29019" fill="#FFC451"/>
<circle cx="81.0856" cy="71.4225" r="4.29019" fill="#76DA80"/>
<line x1="40.2696" y1="86.5874" x2="287.75" y2="86.5874" stroke="#E6E6EB"/>
<rect x="95.5401" y="100.767" width="73.7147" height="8" rx="4" fill="url(#paint1_linear_1331_35818)"/>
<rect x="95.5401" y="170.767" width="73.7147" height="8" rx="4" fill="#E6E6EB"/>
<rect x="95.5401" y="142.767" width="27.2583" height="8" rx="4" fill="#E6E6EB"/>
<rect x="95.5401" y="212.767" width="27.2583" height="8" rx="4" fill="url(#paint2_linear_1331_35818)"/>
<rect x="128.798" y="142.767" width="66.9348" height="8" rx="4" fill="#E6E6EB"/>
<rect x="128.798" y="212.767" width="66.9348" height="8" rx="4" fill="#E6E6EB"/>
<rect x="201.733" y="142.767" width="63.0749" height="8" rx="4" fill="#E6E6EB"/>
<rect x="201.733" y="212.767" width="63.0749" height="8" rx="4" fill="#E6E6EB"/>
<rect x="108.103" y="114.767" width="87.6306" height="8" rx="4" fill="#E6E6EB"/>
<rect x="108.103" y="184.767" width="87.6306" height="8" rx="4" fill="#E6E6EB"/>
<rect x="109.169" y="156.767" width="52.4673" height="8" rx="4" fill="#E6E6EB"/>
<rect x="109.169" y="226.767" width="52.4673" height="8" rx="4" fill="#E6E6EB"/>
<rect x="167.637" y="156.767" width="68.7452" height="8" rx="4" fill="url(#paint3_linear_1331_35818)"/>
<rect x="167.637" y="226.767" width="68.7452" height="8" rx="4" fill="url(#paint4_linear_1331_35818)"/>
<rect x="201.733" y="114.767" width="36.6163" height="8" rx="4" fill="#E6E6EB"/>
<rect x="201.733" y="184.767" width="36.6163" height="8" rx="4" fill="url(#paint5_linear_1331_35818)"/>
<rect x="152" y="128.767" width="100" height="8" rx="4" fill="#E6E6EB"/>
<rect x="152" y="198.767" width="100" height="8" rx="4" fill="#E6E6EB"/>
<rect x="175.255" y="100.767" width="89.5533" height="8" rx="4" fill="#E6E6EB"/>
<rect x="175.255" y="170.767" width="89.5533" height="8" rx="4" fill="#E6E6EB"/>
<defs>
<filter id="filter0_f_1331_35818" x="-30.8465" y="43.9379" width="509.875" height="509.875" filterUnits="userSpaceOnUse" color-interpolation-filters="sRGB">
<feFlood flood-opacity="0" result="BackgroundImageFix"/>
<feBlend mode="normal" in="SourceGraphic" in2="BackgroundImageFix" result="shape"/>
<feGaussianBlur stdDeviation="63.4676" result="effect1_foregroundBlur_1331_35818"/>
</filter>
<filter id="filter1_f_1331_35818" x="-163.329" y="70.6074" width="456.932" height="452.564" filterUnits="userSpaceOnUse" color-interpolation-filters="sRGB">
<feFlood flood-opacity="0" result="BackgroundImageFix"/>
<feBlend mode="normal" in="SourceGraphic" in2="BackgroundImageFix" result="shape"/>
<feGaussianBlur stdDeviation="63.4676" result="effect1_foregroundBlur_1331_35818"/>
</filter>
<filter id="filter2_f_1331_35818" x="131.239" y="161.589" width="355.363" height="355.363" filterUnits="userSpaceOnUse" color-interpolation-filters="sRGB">
<feFlood flood-opacity="0" result="BackgroundImageFix"/>
<feBlend mode="normal" in="SourceGraphic" in2="BackgroundImageFix" result="shape"/>
<feGaussianBlur stdDeviation="63.4676" result="effect1_foregroundBlur_1331_35818"/>
</filter>
<filter id="filter3_d_1331_35818" x="12.3707" y="40.8215" width="303.258" height="270.327" filterUnits="userSpaceOnUse" color-interpolation-filters="sRGB">
<feFlood flood-opacity="0" result="BackgroundImageFix"/>
<feColorMatrix in="SourceAlpha" type="matrix" values="0 0 0 0 0 0 0 0 0 0 0 0 0 0 0 0 0 0 127 0" result="hardAlpha"/>
<feOffset dy="13"/>
<feGaussianBlur stdDeviation="17"/>
<feComposite in2="hardAlpha" operator="out"/>
<feColorMatrix type="matrix" values="0 0 0 0 0.0709108 0 0 0 0 0.0708231 0 0 0 0 0.0752103 0 0 0 0.2 0"/>
<feBlend mode="normal" in2="BackgroundImageFix" result="effect1_dropShadow_1331_35818"/>
<feBlend mode="normal" in="SourceGraphic" in2="effect1_dropShadow_1331_35818" result="shape"/>
</filter>
<linearGradient id="paint0_linear_1331_35818" x1="224.091" y1="170.873" x2="224.091" y2="426.877" gradientUnits="userSpaceOnUse">
<stop stop-color="#FFD8FC"/>
<stop offset="1" stop-color="#5C41FF"/>
</linearGradient>
<linearGradient id="paint1_linear_1331_35818" x1="69.6401" y1="111.462" x2="76.8042" y2="73.2549" gradientUnits="userSpaceOnUse">
<stop stop-color="#D490F3"/>
<stop offset="0.487834" stop-color="#6A9AF8"/>
<stop offset="1" stop-color="#46C6FD"/>
</linearGradient>
<linearGradient id="paint2_linear_1331_35818" x1="85.9628" y1="223.462" x2="101.916" y2="192.001" gradientUnits="userSpaceOnUse">
<stop stop-color="#D490F3"/>
<stop offset="0.487834" stop-color="#6A9AF8"/>
<stop offset="1" stop-color="#46C6FD"/>
</linearGradient>
<linearGradient id="paint3_linear_1331_35818" x1="143.483" y1="167.462" x2="151.126" y2="129.448" gradientUnits="userSpaceOnUse">
<stop stop-color="#D490F3"/>
<stop offset="0.487834" stop-color="#6A9AF8"/>
<stop offset="1" stop-color="#46C6FD"/>
</linearGradient>
<linearGradient id="paint4_linear_1331_35818" x1="143.483" y1="237.462" x2="151.126" y2="199.448" gradientUnits="userSpaceOnUse">
<stop stop-color="#D490F3"/>
<stop offset="0.487834" stop-color="#6A9AF8"/>
<stop offset="1" stop-color="#46C6FD"/>
</linearGradient>
<linearGradient id="paint5_linear_1331_35818" x1="188.868" y1="195.462" x2="201.935" y2="160.844" gradientUnits="userSpaceOnUse">
<stop stop-color="#D490F3"/>
<stop offset="0.487834" stop-color="#6A9AF8"/>
<stop offset="1" stop-color="#46C6FD"/>
</linearGradient>
</defs>
</svg>
