<svg width="58" height="58" viewBox="0 0 58 58" fill="none" xmlns="http://www.w3.org/2000/svg">
<path d="M34.4036 54.9645C38.4077 54.9645 41.6536 51.7185 41.6536 47.7145C41.6536 43.7104 38.4077 40.4645 34.4036 40.4645C30.3995 40.4645 27.1536 43.7104 27.1536 47.7145C27.1536 51.7185 30.3995 54.9645 34.4036 54.9645Z" stroke="white" stroke-width="2.5" stroke-linecap="round" stroke-linejoin="round"/>
<path d="M39.5294 42.5862L52.345 29.7706L56.1899 33.6155" stroke="white" stroke-width="2.5" stroke-linecap="round" stroke-linejoin="round"/>
<path d="M47.2193 34.8965L49.7833 37.4606" stroke="white" stroke-width="2.5" stroke-linecap="round" stroke-linejoin="round"/>
<path d="M56.1899 22.3395V6.02698C56.1899 5.06557 55.808 4.14353 55.1281 3.46372C54.4483 2.7839 53.5263 2.40198 52.5649 2.40198H5.43988C4.47847 2.40198 3.55644 2.7839 2.87662 3.46372C2.1968 4.14353 1.81488 5.06557 1.81488 6.02698V45.902C1.81488 46.8634 2.1968 47.7854 2.87662 48.4652C3.55644 49.1451 4.47847 49.527 5.43988 49.527H18.125" stroke="white" stroke-width="2.5" stroke-linecap="round" stroke-linejoin="round"/>
<path d="M1.81488 13.277H56.1899" stroke="white" stroke-width="2.5" stroke-linecap="round" stroke-linejoin="round"/>
</svg>
