<svg width="58" height="58" viewBox="0 0 58 58" fill="none" xmlns="http://www.w3.org/2000/svg">
<path d="M45.3125 9.0625H12.6875C10.6855 9.0625 9.0625 10.6855 9.0625 12.6875V45.3125C9.0625 47.3145 10.6855 48.9375 12.6875 48.9375H45.3125C47.3145 48.9375 48.9375 47.3145 48.9375 45.3125V12.6875C48.9375 10.6855 47.3145 9.0625 45.3125 9.0625Z" stroke="white" stroke-width="2.5" stroke-linecap="round" stroke-linejoin="round"/>
<path d="M29 9.0625V3.625" stroke="white" stroke-width="2.5" stroke-linecap="round" stroke-linejoin="round"/>
<path d="M16.3125 9.0625V3.625" stroke="white" stroke-width="2.5" stroke-linecap="round" stroke-linejoin="round"/>
<path d="M41.6875 9.0625V3.625" stroke="white" stroke-width="2.5" stroke-linecap="round" stroke-linejoin="round"/>
<path d="M29 54.375V48.9375" stroke="white" stroke-width="2.5" stroke-linecap="round" stroke-linejoin="round"/>
<path d="M16.3125 54.375V48.9375" stroke="white" stroke-width="2.5" stroke-linecap="round" stroke-linejoin="round"/>
<path d="M41.6875 54.375V48.9375" stroke="white" stroke-width="2.5" stroke-linecap="round" stroke-linejoin="round"/>
<path d="M54.375 29H48.9375" stroke="white" stroke-width="2.5" stroke-linecap="round" stroke-linejoin="round"/>
<path d="M54.375 41.6875H48.9375" stroke="white" stroke-width="2.5" stroke-linecap="round" stroke-linejoin="round"/>
<path d="M54.375 16.3125H48.9375" stroke="white" stroke-width="2.5" stroke-linecap="round" stroke-linejoin="round"/>
<path d="M9.0625 29H3.625" stroke="white" stroke-width="2.5" stroke-linecap="round" stroke-linejoin="round"/>
<path d="M9.0625 41.6875H3.625" stroke="white" stroke-width="2.5" stroke-linecap="round" stroke-linejoin="round"/>
<path d="M9.0625 16.3125H3.625" stroke="white" stroke-width="2.5" stroke-linecap="round" stroke-linejoin="round"/>
<path d="M38.0625 16.3125H19.9375C17.9355 16.3125 16.3125 17.9355 16.3125 19.9375V38.0625C16.3125 40.0645 17.9355 41.6875 19.9375 41.6875H38.0625C40.0645 41.6875 41.6875 40.0645 41.6875 38.0625V19.9375C41.6875 17.9355 40.0645 16.3125 38.0625 16.3125Z" stroke="white" stroke-width="2.5" stroke-linecap="round" stroke-linejoin="round"/>
<path d="M34.4375 34.4375H29" stroke="white" stroke-width="2.5" stroke-linecap="round" stroke-linejoin="round"/>
</svg>
