<svg width="58" height="58" viewBox="0 0 58 58" fill="none" xmlns="http://www.w3.org/2000/svg">
<path d="M29 54.4912C40.0112 54.4912 48.9375 45.5649 48.9375 34.5537C48.9375 23.5425 40.0112 14.6162 29 14.6162C17.9888 14.6162 9.0625 23.5425 9.0625 34.5537C9.0625 45.5649 17.9888 54.4912 29 54.4912Z" stroke="white" stroke-width="2.5" stroke-linecap="round" stroke-linejoin="round"/>
<path d="M11.2568 25.4911H46.7431" stroke="white" stroke-width="2.5" stroke-linecap="round" stroke-linejoin="round"/>
<path d="M29 25.4911V54.4911" stroke="white" stroke-width="2.5" stroke-linecap="round" stroke-linejoin="round"/>
<path d="M10.3723 27.4317C8.35113 26.1625 6.01162 25.4922 3.625 25.4983" stroke="white" stroke-width="2.5" stroke-linecap="round" stroke-linejoin="round"/>
<path d="M3.625 50.8659C5.41835 50.8675 7.19156 50.488 8.82722 49.7527C10.4629 49.0173 11.9237 47.9429 13.1128 46.6005" stroke="white" stroke-width="2.5" stroke-linecap="round" stroke-linejoin="round"/>
<path d="M3.625 36.3661H9.14708" stroke="white" stroke-width="2.5" stroke-linecap="round" stroke-linejoin="round"/>
<path d="M47.6277 27.4317C49.6489 26.1625 51.9884 25.4922 54.375 25.4983" stroke="white" stroke-width="2.5" stroke-linecap="round" stroke-linejoin="round"/>
<path d="M54.375 50.8659C52.5816 50.8675 50.8084 50.488 49.1727 49.7527C47.5371 49.0173 46.0763 47.9429 44.8871 46.6005" stroke="white" stroke-width="2.5" stroke-linecap="round" stroke-linejoin="round"/>
<path d="M54.3749 36.3661H48.8529" stroke="white" stroke-width="2.5" stroke-linecap="round" stroke-linejoin="round"/>
<path d="M14.4033 3.625C14.4033 10.7228 14.9543 13.3569 20.8969 16.3318" stroke="white" stroke-width="2.5" stroke-linecap="round" stroke-linejoin="round"/>
<path d="M43.4032 3.625C43.4032 10.7228 42.8523 13.3569 36.9097 16.3318" stroke="white" stroke-width="2.5" stroke-linecap="round" stroke-linejoin="round"/>
</svg>
