<svg width="178" height="33" viewBox="0 0 178 33" fill="none" xmlns="http://www.w3.org/2000/svg">
<path d="M27.5048 3.15869L40.4788 16.1327L27.5048 29.1067" stroke="url(#paint0_linear_1331_36340)" stroke-width="5.83917" stroke-linecap="round" stroke-linejoin="round"/>
<path d="M16.1329 3.15869L3.15887 16.1327L16.1329 29.1067" stroke="url(#paint1_linear_1331_36340)" stroke-width="5.83917" stroke-linecap="round" stroke-linejoin="round"/>
<path d="M76.6239 12.4183H73.5328C73.4139 11.7578 73.1927 11.1766 72.869 10.6746C72.5454 10.1726 72.1491 9.74661 71.6801 9.39654C71.2112 9.04648 70.6861 8.78229 70.1049 8.60395C69.5302 8.42562 68.9193 8.33645 68.272 8.33645C67.1029 8.33645 66.056 8.63037 65.1313 9.21821C64.2132 9.80605 63.4867 10.668 62.9517 11.804C62.4233 12.9401 62.1591 14.3271 62.1591 15.9652C62.1591 17.6164 62.4233 19.01 62.9517 20.1461C63.4867 21.2821 64.2165 22.1408 65.1412 22.722C66.0659 23.3033 67.1062 23.5939 68.2621 23.5939C68.9028 23.5939 69.5104 23.508 70.085 23.3363C70.6663 23.1579 71.1914 22.897 71.6603 22.5536C72.1293 22.2101 72.5256 21.7907 72.8492 21.2953C73.1795 20.7934 73.4073 20.2187 73.5328 19.5715L76.6239 19.5814C76.4588 20.5787 76.1385 21.4968 75.6629 22.3356C75.194 23.1678 74.5896 23.8878 73.8499 24.4954C73.1167 25.0965 72.2779 25.5621 71.3334 25.8924C70.3889 26.2226 69.3585 26.3878 68.2423 26.3878C66.4853 26.3878 64.92 25.9716 63.5461 25.1394C62.1723 24.3006 61.0891 23.1018 60.2965 21.543C59.5105 19.9843 59.1175 18.125 59.1175 15.9652C59.1175 13.7987 59.5138 11.9394 60.3064 10.3873C61.099 8.82852 62.1822 7.63303 63.5561 6.8008C64.9299 5.96198 66.4919 5.54256 68.2423 5.54256C69.3189 5.54256 70.3228 5.69778 71.2541 6.00821C72.192 6.31204 73.0341 6.76117 73.7805 7.35562C74.5269 7.94346 75.1444 8.6634 75.6332 9.51543C76.122 10.3609 76.4522 11.3285 76.6239 12.4183ZM86.4595 26.4175C85.0328 26.4175 83.7878 26.0905 82.7244 25.4366C81.661 24.7828 80.8354 23.868 80.2476 22.6923C79.6597 21.5166 79.3658 20.1428 79.3658 18.5708C79.3658 16.9922 79.6597 15.6118 80.2476 14.4295C80.8354 13.2472 81.661 12.3291 82.7244 11.6753C83.7878 11.0214 85.0328 10.6944 86.4595 10.6944C87.8862 10.6944 89.1312 11.0214 90.1946 11.6753C91.258 12.3291 92.0836 13.2472 92.6715 14.4295C93.2593 15.6118 93.5532 16.9922 93.5532 18.5708C93.5532 20.1428 93.2593 21.5166 92.6715 22.6923C92.0836 23.868 91.258 24.7828 90.1946 25.4366C89.1312 26.0905 87.8862 26.4175 86.4595 26.4175ZM86.4694 23.9307C87.3941 23.9307 88.1603 23.6863 88.7679 23.1976C89.3756 22.7088 89.8247 22.0582 90.1153 21.2458C90.4126 20.4334 90.5612 19.5384 90.5612 18.5609C90.5612 17.59 90.4126 16.6983 90.1153 15.8859C89.8247 15.0669 89.3756 14.4097 88.7679 13.9143C88.1603 13.419 87.3941 13.1713 86.4694 13.1713C85.5381 13.1713 84.7653 13.419 84.1511 13.9143C83.5434 14.4097 83.091 15.0669 82.7938 15.8859C82.5032 16.6983 82.3578 17.59 82.3578 18.5609C82.3578 19.5384 82.5032 20.4334 82.7938 21.2458C83.091 22.0582 83.5434 22.7088 84.1511 23.1976C84.7653 23.6863 85.5381 23.9307 86.4694 23.9307ZM102.557 26.4076C101.328 26.4076 100.232 26.0938 99.2673 25.4664C98.3096 24.8323 97.5566 23.9307 97.0084 22.7616C96.4668 21.586 96.196 20.1758 96.196 18.5312C96.196 16.8865 96.4701 15.4797 97.0183 14.3106C97.5732 13.1415 98.3327 12.2466 99.297 11.6257C100.261 11.0048 101.354 10.6944 102.576 10.6944C103.521 10.6944 104.28 10.8529 104.855 11.17C105.436 11.4804 105.885 11.8437 106.203 12.2598C106.526 12.6759 106.777 13.0425 106.955 13.3595H107.134V5.81997H110.096V26.1104H107.203V23.7425H106.955C106.777 24.0661 106.52 24.436 106.183 24.8521C105.852 25.2682 105.397 25.6315 104.815 25.9419C104.234 26.2524 103.481 26.4076 102.557 26.4076ZM103.21 23.8812C104.063 23.8812 104.782 23.6566 105.37 23.2075C105.965 22.7517 106.414 22.121 106.718 21.3152C107.028 20.5094 107.183 19.5715 107.183 18.5015C107.183 17.4447 107.031 16.52 106.728 15.7274C106.424 14.9348 105.978 14.3172 105.39 13.8747C104.802 13.4322 104.076 13.2109 103.21 13.2109C102.319 13.2109 101.576 13.4421 100.981 13.9044C100.387 14.3668 99.9377 14.9975 99.6339 15.7967C99.3367 16.5959 99.1881 17.4975 99.1881 18.5015C99.1881 19.5186 99.34 20.4334 99.6438 21.2458C99.9476 22.0582 100.397 22.7022 100.991 23.1778C101.592 23.6467 102.332 23.8812 103.21 23.8812ZM120.883 26.4175C119.384 26.4175 118.092 26.0971 117.009 25.4565C115.932 24.8092 115.1 23.901 114.512 22.7319C113.931 21.5562 113.641 20.1791 113.641 18.6005C113.641 17.0418 113.931 15.6679 114.512 14.479C115.1 13.2902 115.919 12.3622 116.969 11.6951C118.026 11.028 119.261 10.6944 120.675 10.6944C121.533 10.6944 122.366 10.8364 123.171 11.1204C123.977 11.4044 124.7 11.8503 125.341 12.4579C125.982 13.0656 126.487 13.8549 126.857 14.8258C127.227 15.7901 127.412 16.9625 127.412 18.3429V19.3931H115.315V17.1739H124.509C124.509 16.3945 124.35 15.7043 124.033 15.1032C123.716 14.4956 123.271 14.0167 122.696 13.6666C122.128 13.3166 121.461 13.1415 120.695 13.1415C119.862 13.1415 119.136 13.3463 118.515 13.7558C117.901 14.1587 117.425 14.6871 117.088 15.341C116.758 15.9883 116.593 16.6917 116.593 17.4513V19.1851C116.593 20.2022 116.771 21.0675 117.128 21.7808C117.491 22.4941 117.996 23.0391 118.644 23.4155C119.291 23.7854 120.047 23.9704 120.913 23.9704C121.474 23.9704 121.986 23.8911 122.448 23.7326C122.911 23.5674 123.31 23.3231 123.647 22.9994C123.984 22.6758 124.241 22.2762 124.42 21.8006L127.224 22.3059C126.999 23.1315 126.596 23.8548 126.015 24.4756C125.44 25.0899 124.717 25.5687 123.845 25.9122C122.98 26.2491 121.992 26.4175 120.883 26.4175ZM133.661 5.81997V26.1104H130.699V5.81997H133.661ZM139.519 31.817C139.076 31.817 138.673 31.7807 138.31 31.708C137.947 31.642 137.676 31.5693 137.498 31.4901L138.211 29.0628C138.752 29.2081 139.235 29.2708 139.657 29.251C140.08 29.2312 140.453 29.0727 140.777 28.7754C141.107 28.4782 141.398 27.9928 141.649 27.3191L142.015 26.3085L136.447 10.8926H139.618L143.472 22.7022H143.63L147.484 10.8926H150.665L144.393 28.1414C144.102 28.934 143.733 29.6044 143.283 30.1526C142.834 30.7074 142.299 31.1235 141.678 31.4009C141.058 31.6783 140.338 31.817 139.519 31.817ZM163.2 5.81997L168.054 13.7558H168.213L173.068 5.81997H176.614L170.294 15.9652L176.654 26.1104H173.087L168.213 18.2835H168.054L163.18 26.1104H159.613L166.083 15.9652L159.653 5.81997H163.2Z" fill="white"/>
<defs>
<linearGradient id="paint0_linear_1331_36340" x1="33.9918" y1="3.15869" x2="33.9918" y2="29.1067" gradientUnits="userSpaceOnUse">
<stop stop-color="#63A4FA"/>
<stop offset="1" stop-color="#6384FA"/>
</linearGradient>
<linearGradient id="paint1_linear_1331_36340" x1="9.64587" y1="3.15869" x2="9.64587" y2="29.1067" gradientUnits="userSpaceOnUse">
<stop stop-color="#63A4FA"/>
<stop offset="1" stop-color="#6384FA"/>
</linearGradient>
</defs>
</svg>
