<svg width="112" height="22" viewBox="0 0 112 22" fill="none" xmlns="http://www.w3.org/2000/svg">
<path d="M56.5682 19.5444C56.5682 19.9316 56.5682 20.0196 56.8306 20.2572L58.2998 21.7004V21.762H51.7853V18.99C51.1295 20.8169 49.3952 22.0251 47.4653 21.9996C44.1162 21.9996 41.6852 19.3596 41.6852 14.502C41.6852 9.95246 44.3084 6.91647 47.9899 6.91647C49.6219 6.81322 51.1407 7.75922 51.7764 9.27486V3.15919C51.8003 3.02066 51.7851 2.87826 51.7326 2.74778C51.6801 2.6173 51.5924 2.50385 51.479 2.41999L50.0799 1.0648V1.0032L56.5682 0.237599V19.5444ZM51.7853 18.6644V9.53886C51.5538 9.24839 51.2584 9.01477 50.9217 8.85608C50.5851 8.69738 50.2163 8.61786 49.8438 8.62367C48.2611 8.62367 46.7308 10.0669 46.7308 14.3524C46.7308 18.3652 48.0512 19.782 49.6953 19.782C50.1075 19.7728 50.5116 19.6668 50.8748 19.4726C51.2379 19.2783 51.5498 19.0014 51.785 18.6644H51.7853ZM60.8882 21.762V9.44206C60.9088 9.30689 60.8957 9.16873 60.85 9.03981C60.8042 8.91089 60.7273 8.79516 60.6259 8.70287L59.1829 7.20687V7.14527H65.6977V19.6412C65.6977 20.0284 65.6977 20.1164 65.96 20.354L67.3942 21.7092V21.7708L60.8882 21.762ZM60.6521 2.63969C60.6521 1.18183 61.8267 0 63.2753 0C64.7239 0 65.8987 1.18213 65.8987 2.63999C65.8987 4.09785 64.7242 5.27998 63.2756 5.27998C61.8269 5.27998 60.6521 4.09785 60.6521 2.63999V2.63969ZM83.2741 19.518C83.2741 19.9052 83.2741 20.0196 83.5364 20.2572L85.0056 21.7004V21.762H78.456V18.6028C77.8595 20.6004 76.0424 21.9761 73.9701 21.9996C71.0669 21.9996 69.5104 19.87 69.5104 15.8396C69.5104 13.8948 69.5104 11.7653 69.5715 9.37166C69.5951 9.24037 69.5833 9.10518 69.5372 8.97993C69.4911 8.85468 69.4124 8.74387 69.3091 8.65887L67.8664 7.20687V7.14527H74.3285V15.1796C74.3285 17.8196 74.7134 19.5796 76.3572 19.5796C76.7933 19.5513 77.2153 19.4149 77.585 19.1829C77.9546 18.9508 78.26 18.6304 78.4734 18.2508V9.45086C78.494 9.31569 78.4809 9.17753 78.4351 9.04861C78.3894 8.91969 78.3124 8.80396 78.2111 8.71167L76.7595 7.20687V7.14527H83.2741V19.518ZM105.45 21.762C105.45 21.2868 105.538 15.2324 105.538 13.842C105.538 11.2021 105.127 9.38046 103.282 9.38046C102.823 9.39546 102.373 9.51802 101.971 9.7382C101.568 9.95838 101.223 10.27 100.964 10.6477C101.15 11.4705 101.237 12.3123 101.227 13.1556C101.227 14.986 101.165 17.318 101.139 19.65C101.116 19.7813 101.127 19.9165 101.173 20.0418C101.22 20.167 101.298 20.2778 101.402 20.3628L102.871 21.718V21.7796H96.2949C96.2949 21.3396 96.3822 15.25 96.3822 13.8596C96.3822 11.1757 95.9713 9.39806 94.1525 9.39806C93.7099 9.41491 93.2787 9.54322 92.8994 9.77099C92.5202 9.99876 92.2051 10.3186 91.9838 10.7005V19.6764C91.9838 20.0636 91.9838 20.1516 92.2461 20.3892L93.6803 21.7444V21.806H87.1743V9.48606C87.1949 9.35089 87.1818 9.21273 87.1361 9.08381C87.0903 8.95489 87.0134 8.83916 86.912 8.74687L85.469 7.20687V7.14527H91.9838V10.2781C92.588 8.21007 94.5127 6.82026 96.6533 6.90767C98.822 6.90767 100.291 8.12207 100.912 10.4277C101.602 8.30129 103.586 6.87453 105.809 6.90767C108.712 6.90767 110.356 9.06366 110.356 13.138C110.356 15.0828 110.295 17.3004 110.269 19.6324C110.244 19.7671 110.258 19.9061 110.311 20.0327C110.364 20.1592 110.452 20.2678 110.566 20.3452L112 21.7004V21.762H105.45ZM23.6102 19.8436L25.5428 21.7004V21.762H15.7401V21.7004L17.7078 19.8436C17.8111 19.7586 17.8898 19.6478 17.9359 19.5226C17.982 19.3973 17.9938 19.2621 17.9701 19.1308V7.25967C17.9701 6.75807 17.9701 6.08048 18.0573 5.49968L11.4464 21.9999H11.368L4.52097 6.81997C4.37213 6.44157 4.32851 6.41517 4.23213 6.15997V16.1127C4.15019 16.7785 4.26264 17.4537 4.55604 18.0575L7.31036 21.7007V21.7623H0V21.7007L2.75461 18.0487C3.04563 17.4473 3.15781 16.7755 3.07794 16.1127V5.11278C3.12304 4.57203 2.96065 4.03436 2.62345 3.60798L0.673474 1.0648V1.0032H7.66905L13.5278 13.8599L18.6872 1.0032H25.5339V1.0648L23.6102 3.22078C23.4969 3.30464 23.4091 3.4181 23.3566 3.54858C23.3041 3.67906 23.2889 3.82145 23.3128 3.95998V19.1311C23.2877 19.2659 23.3025 19.4049 23.3554 19.5315C23.4082 19.658 23.4968 19.7665 23.6105 19.8439L23.6102 19.8436ZM31.2792 13.8948V13.9564C31.2792 17.7228 33.2118 19.2364 35.4766 19.2364C37.3676 19.3012 39.1181 18.2341 39.9363 16.5172H39.9976C39.2106 20.2396 36.9193 21.9996 33.4915 21.9996C29.7926 21.9996 26.3035 19.7556 26.3035 14.5548C26.3035 9.09006 29.8014 6.90767 33.6663 6.90767C36.7796 6.90767 40.0936 8.38607 40.0936 13.138V13.8948H31.2792ZM31.2792 13.138H35.5904V12.3724C35.5904 8.50047 34.7946 7.47087 33.5965 7.47087C32.1449 7.47087 31.2619 9.01086 31.2619 13.138H31.2792Z" fill="white"/>
</svg>
