<svg width="328" height="328" viewBox="0 0 328 328" fill="none" xmlns="http://www.w3.org/2000/svg">
<mask id="mask0_1331_35819" style="mask-type:alpha" maskUnits="userSpaceOnUse" x="0" y="0" width="328" height="328">
<rect width="328" height="328" fill="#C4C4C4"/>
</mask>
<g mask="url(#mask0_1331_35819)">
<rect width="328" height="328" fill="#F2F2F7"/>
<g opacity="0.8">
<g filter="url(#filter0_f_1331_35819)">
<circle cx="226.454" cy="-34.9797" r="128.002" fill="url(#paint0_linear_1331_35819)"/>
</g>
<g filter="url(#filter1_f_1331_35819)">
<path d="M71.0545 -45.2528C77.8946 -75.8051 34.7669 -92.1641 44.6896 -122.319C62.1017 -175.233 183.704 -64.808 167.56 -11.7064C160.795 10.5461 150.483 24.1936 124.779 38.6132C78.129 64.7838 -2.41247 75.384 -29.7621 38.6132C-57.8671 0.826904 61.6737 -3.35187 71.0545 -45.2528Z" fill="#4ACFFF"/>
</g>
<g filter="url(#filter2_f_1331_35819)">
<circle cx="311.284" cy="5.41538" r="50.7464" fill="#B133FF"/>
</g>
</g>
<g filter="url(#filter3_d_1331_35819)">
<rect x="51.9958" y="59.1362" width="224.008" height="200.596" rx="16" fill="#FF0000" fill-opacity="0.01" shape-rendering="crispEdges"/>
</g>
<rect x="45.3245" y="52.0918" width="237.351" height="218.929" rx="15.5" fill="white" stroke="#E6E6EB"/>
<rect x="84.1504" y="106.602" width="71.6306" height="5.93879" rx="2.9694" fill="url(#paint1_linear_1331_35819)"/>
<rect x="84.1504" y="170.358" width="42.9936" height="5.93879" rx="2.9694" fill="url(#paint2_linear_1331_35819)"/>
<rect opacity="0.8" x="131.73" y="170.358" width="85.4454" height="5.93879" rx="2.9694" fill="#E6E6EB"/>
<rect opacity="0.8" x="84.1504" y="122.541" width="158.704" height="5.93879" rx="2.9694" fill="#E6E6EB"/>
<rect opacity="0.8" x="84.1504" y="186.297" width="158.704" height="5.93879" rx="2.9694" fill="#E6E6EB"/>
<rect opacity="0.8" x="84.1504" y="138.48" width="123.696" height="5.93879" rx="2.9694" fill="#E6E6EB"/>
<rect opacity="0.8" x="84.1504" y="202.236" width="123.696" height="5.93879" rx="2.9694" fill="#E6E6EB"/>
<rect opacity="0.8" x="84.1504" y="154.419" width="158.704" height="5.93879" rx="2.9694" fill="#E6E6EB"/>
<rect opacity="0.8" x="84.1504" y="218.175" width="158.704" height="5.93879" rx="2.9694" fill="#E6E6EB"/>
<path d="M63.0247 102.967L68.8841 108.826L63.0247 114.686" stroke="#A8A8B5" stroke-width="5" stroke-linecap="round" stroke-linejoin="round"/>
<path opacity="0.4" d="M44.8245 67.5918C44.8245 58.7552 51.9879 51.5918 60.8245 51.5918H267.175C276.012 51.5918 283.175 58.7552 283.175 67.5918V81.0915H44.8245V67.5918Z" fill="#E6E6EB"/>
<circle cx="59.6805" cy="66.4225" r="4.29019" fill="#FF5166"/>
<circle cx="72.8831" cy="66.4225" r="4.29019" fill="#FFC451"/>
<circle cx="86.0857" cy="66.4225" r="4.29019" fill="#76DA80"/>
</g>
<defs>
<filter id="filter0_f_1331_35819" x="-28.4832" y="-289.917" width="509.875" height="509.875" filterUnits="userSpaceOnUse" color-interpolation-filters="sRGB">
<feFlood flood-opacity="0" result="BackgroundImageFix"/>
<feBlend mode="normal" in="SourceGraphic" in2="BackgroundImageFix" result="shape"/>
<feGaussianBlur stdDeviation="63.4676" result="effect1_foregroundBlur_1331_35819"/>
</filter>
<filter id="filter1_f_1331_35819" x="-160.965" y="-263.248" width="456.932" height="452.564" filterUnits="userSpaceOnUse" color-interpolation-filters="sRGB">
<feFlood flood-opacity="0" result="BackgroundImageFix"/>
<feBlend mode="normal" in="SourceGraphic" in2="BackgroundImageFix" result="shape"/>
<feGaussianBlur stdDeviation="63.4676" result="effect1_foregroundBlur_1331_35819"/>
</filter>
<filter id="filter2_f_1331_35819" x="133.602" y="-172.266" width="355.363" height="355.363" filterUnits="userSpaceOnUse" color-interpolation-filters="sRGB">
<feFlood flood-opacity="0" result="BackgroundImageFix"/>
<feBlend mode="normal" in="SourceGraphic" in2="BackgroundImageFix" result="shape"/>
<feGaussianBlur stdDeviation="63.4676" result="effect1_foregroundBlur_1331_35819"/>
</filter>
<filter id="filter3_d_1331_35819" x="17.9958" y="38.1362" width="292.008" height="268.596" filterUnits="userSpaceOnUse" color-interpolation-filters="sRGB">
<feFlood flood-opacity="0" result="BackgroundImageFix"/>
<feColorMatrix in="SourceAlpha" type="matrix" values="0 0 0 0 0 0 0 0 0 0 0 0 0 0 0 0 0 0 127 0" result="hardAlpha"/>
<feOffset dy="13"/>
<feGaussianBlur stdDeviation="17"/>
<feComposite in2="hardAlpha" operator="out"/>
<feColorMatrix type="matrix" values="0 0 0 0 0.0709108 0 0 0 0 0.0708231 0 0 0 0 0.0752103 0 0 0 0.2 0"/>
<feBlend mode="normal" in2="BackgroundImageFix" result="effect1_dropShadow_1331_35819"/>
<feBlend mode="normal" in="SourceGraphic" in2="effect1_dropShadow_1331_35819" result="shape"/>
</filter>
<linearGradient id="paint0_linear_1331_35819" x1="226.454" y1="-162.982" x2="226.454" y2="93.0225" gradientUnits="userSpaceOnUse">
<stop stop-color="#FFD8FC"/>
<stop offset="1" stop-color="#5C41FF"/>
</linearGradient>
<linearGradient id="paint1_linear_1331_35819" x1="58.9826" y1="114.541" x2="63.1038" y2="85.7713" gradientUnits="userSpaceOnUse">
<stop stop-color="#D490F3"/>
<stop offset="0.487834" stop-color="#6A9AF8"/>
<stop offset="1" stop-color="#46C6FD"/>
</linearGradient>
<linearGradient id="paint2_linear_1331_35819" x1="69.0444" y1="178.297" x2="75.6738" y2="150.519" gradientUnits="userSpaceOnUse">
<stop stop-color="#D490F3"/>
<stop offset="0.487834" stop-color="#6A9AF8"/>
<stop offset="1" stop-color="#46C6FD"/>
</linearGradient>
</defs>
</svg>
