<svg width="150" height="28" viewBox="0 0 150 28" fill="none" xmlns="http://www.w3.org/2000/svg">
<path d="M23.8288 2.74512L35.0689 14.0196L23.8288 25.2941" stroke="url(#paint0_linear_1316_36877)" stroke-width="5.02793" stroke-linecap="round" stroke-linejoin="round"/>
<path d="M13.9767 2.74512L2.73669 14.0196L13.9767 25.2941" stroke="url(#paint1_linear_1316_36877)" stroke-width="5.02793" stroke-linecap="round" stroke-linejoin="round"/>
<path d="M65.1856 11.0484H62.6263C62.5279 10.5016 62.3447 10.0203 62.0767 9.60471C61.8087 9.1891 61.4806 8.83637 61.0924 8.54654C60.7041 8.2567 60.2693 8.03796 59.7881 7.89031C59.3123 7.74266 58.8065 7.66883 58.2706 7.66883C57.3026 7.66883 56.4359 7.91218 55.6703 8.39889C54.9101 8.88559 54.3086 9.59924 53.8656 10.5398C53.4281 11.4804 53.2094 12.6288 53.2094 13.985C53.2094 15.3522 53.4281 16.506 53.8656 17.4466C54.3086 18.3872 54.9129 19.0982 55.6785 19.5794C56.4441 20.0606 57.3054 20.3012 58.2624 20.3012C58.7928 20.3012 59.2959 20.2301 59.7717 20.088C60.2529 19.9403 60.6877 19.7243 61.0759 19.4399C61.4642 19.1556 61.7923 18.8083 62.0603 18.3982C62.3337 17.9826 62.5224 17.5068 62.6263 16.9709L65.1856 16.9791C65.0489 17.8048 64.7836 18.565 64.3899 19.2595C64.0016 19.9485 63.5013 20.5446 62.8888 21.0477C62.2818 21.5453 61.5873 21.9309 60.8053 22.2043C60.0232 22.4777 59.1702 22.6144 58.246 22.6144C56.7913 22.6144 55.4953 22.2699 54.3578 21.5809C53.2203 20.8864 52.3235 19.8938 51.6673 18.6032C51.0165 17.3127 50.6911 15.7733 50.6911 13.985C50.6911 12.1913 51.0192 10.6519 51.6755 9.36682C52.3317 8.07624 53.2285 7.08643 54.366 6.39739C55.5035 5.70288 56.7968 5.35563 58.246 5.35563C59.1373 5.35563 59.9686 5.48414 60.7396 5.74116C61.5162 5.99271 62.2134 6.36458 62.8314 6.85675C63.4493 7.34345 63.9606 7.93953 64.3653 8.64497C64.77 9.34495 65.0434 10.1461 65.1856 11.0484ZM73.329 22.6391C72.1478 22.6391 71.1169 22.3684 70.2365 21.827C69.3561 21.2856 68.6725 20.5282 68.1858 19.5548C67.6991 18.5814 67.4557 17.4439 67.4557 16.1424C67.4557 14.8354 67.6991 13.6925 68.1858 12.7136C68.6725 11.7347 69.3561 10.9746 70.2365 10.4332C71.1169 9.89181 72.1478 9.62111 73.329 9.62111C74.5102 9.62111 75.541 9.89181 76.4215 10.4332C77.3019 10.9746 77.9855 11.7347 78.4722 12.7136C78.9589 13.6925 79.2022 14.8354 79.2022 16.1424C79.2022 17.4439 78.9589 18.5814 78.4722 19.5548C77.9855 20.5282 77.3019 21.2856 76.4215 21.827C75.541 22.3684 74.5102 22.6391 73.329 22.6391ZM73.3372 20.5801C74.1028 20.5801 74.7371 20.3778 75.2402 19.9731C75.7433 19.5684 76.1152 19.0298 76.3558 18.3572C76.6019 17.6845 76.725 16.9435 76.725 16.1342C76.725 15.3303 76.6019 14.592 76.3558 13.9194C76.1152 13.2413 75.7433 12.6972 75.2402 12.287C74.7371 11.8769 74.1028 11.6718 73.3372 11.6718C72.5661 11.6718 71.9263 11.8769 71.4177 12.287C70.9146 12.6972 70.54 13.2413 70.2939 13.9194C70.0533 14.592 69.933 15.3303 69.933 16.1342C69.933 16.9435 70.0533 17.6845 70.2939 18.3572C70.54 19.0298 70.9146 19.5684 71.4177 19.9731C71.9263 20.3778 72.5661 20.5801 73.3372 20.5801ZM86.6566 22.6309C85.6394 22.6309 84.7316 22.3711 83.9332 21.8516C83.1403 21.3266 82.5169 20.5801 82.063 19.6122C81.6145 18.6388 81.3903 17.4713 81.3903 16.1096C81.3903 14.7479 81.6173 13.5831 82.0712 12.6152C82.5305 11.6472 83.1594 10.9062 83.9578 10.3922C84.7562 9.87814 85.6613 9.62111 86.673 9.62111C87.455 9.62111 88.0839 9.75236 88.5596 10.0149C89.0409 10.2719 89.4127 10.5726 89.6752 10.9172C89.9432 11.2617 90.151 11.5652 90.2986 11.8277H90.4463V5.58531H92.8989V22.3848H90.5037V20.4243H90.2986C90.151 20.6922 89.9377 20.9985 89.6588 21.343C89.3854 21.6875 89.0081 21.9883 88.5268 22.2453C88.0456 22.5023 87.4222 22.6309 86.6566 22.6309ZM87.198 20.5391C87.9034 20.5391 88.4995 20.3532 88.9862 19.9813C89.4784 19.604 89.8502 19.0817 90.1018 18.4146C90.3588 17.7474 90.4873 16.9709 90.4873 16.085C90.4873 15.21 90.3615 14.4444 90.11 13.7882C89.8584 13.1319 89.4893 12.6206 89.0026 12.2542C88.5159 11.8878 87.9143 11.7046 87.198 11.7046C86.4597 11.7046 85.8445 11.896 85.3523 12.2788C84.8601 12.6616 84.4883 13.1839 84.2367 13.8456C83.9906 14.5073 83.8676 15.2537 83.8676 16.085C83.8676 16.9271 83.9934 17.6845 84.2449 18.3572C84.4965 19.0298 84.8683 19.563 85.3605 19.9567C85.8582 20.345 86.4706 20.5391 87.198 20.5391ZM101.83 22.6391C100.588 22.6391 99.5193 22.3738 98.6225 21.8434C97.7311 21.3075 97.0421 20.5555 96.5554 19.5876C96.0741 18.6142 95.8335 17.474 95.8335 16.167C95.8335 14.8764 96.0741 13.7389 96.5554 12.7546C97.0421 11.7703 97.7202 11.0019 98.5897 10.4496C99.4647 9.89728 100.487 9.62111 101.658 9.62111C102.368 9.62111 103.058 9.73869 103.725 9.97384C104.392 10.209 104.991 10.5781 105.521 11.0812C106.052 11.5843 106.47 12.2378 106.776 13.0417C107.082 13.8401 107.235 14.8108 107.235 15.9537V16.8232H97.2198V14.9858H104.832C104.832 14.3405 104.701 13.769 104.438 13.2714C104.176 12.7683 103.807 12.3718 103.331 12.082C102.861 11.7921 102.308 11.6472 101.674 11.6472C100.985 11.6472 100.383 11.8167 99.8693 12.1558C99.3608 12.4894 98.967 12.9269 98.6881 13.4683C98.4147 14.0042 98.278 14.5866 98.278 15.2155V16.651C98.278 17.4931 98.4256 18.2095 98.7209 18.8001C99.0217 19.3907 99.44 19.8419 99.976 20.1536C100.512 20.4598 101.138 20.6129 101.854 20.6129C102.319 20.6129 102.743 20.5473 103.126 20.4161C103.509 20.2794 103.84 20.077 104.118 19.8091C104.397 19.5411 104.611 19.2103 104.758 18.8165L107.08 19.2349C106.894 19.9184 106.56 20.5172 106.079 21.0313C105.603 21.5399 105.004 21.9363 104.282 22.2207C103.566 22.4996 102.749 22.6391 101.83 22.6391ZM112.409 5.58531V22.3848H109.957V5.58531H112.409ZM117.259 27.1096C116.893 27.1096 116.559 27.0795 116.259 27.0194C115.958 26.9647 115.734 26.9045 115.586 26.8389L116.177 24.8292C116.625 24.9495 117.024 25.0015 117.374 24.9851C117.724 24.9687 118.033 24.8374 118.301 24.5913C118.575 24.3452 118.815 23.9433 119.023 23.3855L119.327 22.5488L114.717 9.78517H117.341L120.532 19.563H120.664L123.854 9.78517H126.488L121.295 24.0664C121.055 24.7226 120.748 25.2776 120.376 25.7315C120.005 26.1909 119.562 26.5354 119.048 26.7651C118.534 26.9948 117.937 27.1096 117.259 27.1096ZM136.866 5.58531L140.886 12.1558H141.017L145.036 5.58531H147.973L142.74 13.985L148.006 22.3848H145.053L141.017 15.9045H140.886L136.85 22.3848H133.897L139.253 13.985L133.93 5.58531H136.866Z" fill="#121213"/>
<defs>
<linearGradient id="paint0_linear_1316_36877" x1="29.4489" y1="2.74512" x2="29.4489" y2="25.2941" gradientUnits="userSpaceOnUse">
<stop stop-color="#63A4FA"/>
<stop offset="1" stop-color="#6384FA"/>
</linearGradient>
<linearGradient id="paint1_linear_1316_36877" x1="8.3567" y1="2.74512" x2="8.3567" y2="25.2941" gradientUnits="userSpaceOnUse">
<stop stop-color="#63A4FA"/>
<stop offset="1" stop-color="#6384FA"/>
</linearGradient>
</defs>
</svg>
